<svg width="82" height="94" viewBox="0 0 82 94" fill="none" xmlns="http://www.w3.org/2000/svg">
<path d="M10.2492 93.6402C10.0788 93.5239 9.73422 93.3212 9.44127 93.185C8.92176 92.8953 8.65435 91.7706 9.14291 91.8508C9.32656 91.8813 9.41357 91.7203 9.35618 91.4775C9.29935 91.2341 9.48595 91.0318 9.86591 91.007C10.2452 90.9821 10.433 90.7791 10.3498 90.5024C10.301 90.2025 10.4883 90.0002 10.9332 89.9567C11.3822 89.8846 11.566 89.7108 11.4995 89.3204C11.456 88.9918 11.5856 88.7504 11.9086 88.687C12.1964 88.6469 12.3531 88.4393 12.2876 88.253C12.1917 88.0621 12.4048 87.8931 12.7536 87.863C13.1945 87.8481 13.6737 87.3722 14.1481 86.5165C14.5745 85.7692 15.1626 85.1948 15.485 85.1315C15.8039 85.096 16.0873 84.8803 16.1173 84.6808C16.2295 83.9404 17.0613 82.9973 17.4411 83.1767C17.6419 83.2977 17.9256 83.2855 18.0737 83.1351C18.1912 82.9794 18.1516 82.8271 17.9686 82.7966C17.6325 82.7409 17.8589 82.4867 19.1661 81.5048C19.5151 81.2704 19.8112 80.969 19.8332 80.8266C19.85 80.7129 20.1638 80.5018 20.53 80.3579C20.8915 80.2427 21.1272 79.9312 21.0657 79.7164C20.978 79.2641 22.5468 78.0046 23.0965 78.0955C23.3099 78.1306 23.4143 77.8559 23.4181 77.4188C23.3695 76.914 23.4957 76.701 23.7709 76.7467C23.8827 76.7671 23.9972 76.7406 24.0897 76.674C24.1821 76.6066 24.2447 76.5051 24.2632 76.3899C24.298 76.1624 24.45 75.9828 24.6336 76.0132C24.7861 76.0384 24.978 75.8075 25.0254 75.4942C25.0687 75.2088 25.404 74.8554 25.7655 74.7401C26.1277 74.6248 26.354 74.3699 26.2886 74.1844C26.1662 73.9596 26.2663 73.9176 26.5586 74.0539C26.8469 74.218 27.1256 74.0303 27.5048 73.3921C27.8436 72.8059 28.3015 72.4724 28.8075 72.4395C29.2179 72.4193 29.5922 72.2189 29.6222 72.0193C29.6529 71.8197 30.0838 71.2488 30.5982 70.7495C31.0814 70.2451 31.3948 69.8299 31.2729 69.8099C31.1549 69.7608 31.4255 69.6302 31.8878 69.473C32.3449 69.3444 32.6939 69.11 32.6549 68.9577C32.5625 68.5334 34.2916 66.8335 34.8673 66.7534C35.1903 66.69 35.469 66.5023 35.5037 66.2747C35.5344 66.0751 35.8086 65.7118 36.1178 65.5294C36.4011 65.313 36.5538 65.134 36.4312 65.1135C36.3092 65.0936 36.4877 64.9478 36.828 64.77C37.1983 64.5982 37.5557 64.5108 37.6392 64.5832C37.722 64.6551 37.8787 64.4474 37.9301 64.1056C38.0127 63.7689 38.2438 63.486 38.4361 63.4593C38.5966 63.4274 38.7141 63.2716 38.6141 63.1087C38.544 62.9511 38.806 62.8777 39.2071 62.9148C39.6042 62.9804 39.7396 62.9151 39.5388 62.7942C39.3075 62.6685 39.4642 62.4609 40.0434 62.148C40.5191 61.9049 40.9153 61.5615 40.9454 61.3626C40.9714 61.1916 41.5773 60.7076 42.2919 60.3294C43.007 59.9505 43.8266 59.2975 44.14 58.8822C44.4488 58.4956 45.1721 57.8553 45.6997 57.4752C46.2266 57.0957 46.6449 56.6099 46.5834 56.3951C46.5306 56.1237 46.7748 55.9593 47.2814 55.9263C47.8822 55.8795 47.9917 55.781 47.764 55.4219C47.4099 54.8674 45.586 54.5072 45.8487 55.0472C45.9406 55.2666 45.9055 55.2906 45.7094 55.141C45.5431 54.9968 44.7624 55.1888 43.9869 55.5571C43.2147 55.8968 42.4214 56.1746 42.2689 56.1494C42.0859 56.1189 41.6581 56.2529 41.3442 56.4639C40.9999 56.6697 40.2889 56.8151 39.7611 56.7861C39.2333 56.7578 38.4838 56.9551 38.0738 57.1795C37.6896 57.4372 36.9355 57.6631 36.4646 57.6727C35.9586 57.7056 35.5308 57.8395 35.5095 57.9819C35.4881 58.1242 35.1652 58.1883 34.768 58.1227C34.4014 58.0617 33.2327 58.3357 32.1734 58.7155C31.1445 59.1005 30.2942 59.3398 30.3069 59.254C30.3202 59.1688 29.9363 59.2223 29.413 59.3696C28.2615 59.7341 23.316 60.5524 22.1204 60.5884C21.5886 60.588 20.3803 60.7098 19.4207 60.8434C16.9304 61.1614 14.5172 60.763 12.2161 59.6236C10.5837 58.8283 10.3353 58.6122 10.5307 58.1478C10.7613 57.6601 10.6785 57.5883 9.8277 57.6227C9.04196 57.6392 8.92865 57.562 9.13783 57.2167C9.29855 56.9805 9.29433 56.6006 9.16724 56.4044C9.04007 56.2077 8.91276 55.6031 8.87289 55.0417C8.79292 54.1231 8.8321 54.0712 9.42131 54.3143C9.86275 54.5043 10.1546 54.4356 10.3551 54.1474C10.4853 53.9059 10.8212 53.5525 11.0999 53.3654C11.4178 53.1258 11.479 52.9315 11.2949 52.6968C10.8757 52.1603 11.0145 51.8615 11.5648 51.9523C11.8698 52.0034 12.0178 51.8523 11.9346 51.5757C11.8824 51.3042 12.1089 51.05 12.4703 50.9341C12.8325 50.8188 13.1551 50.5512 13.1851 50.3516C13.2198 50.1235 13.5601 49.9456 13.9434 49.8922C14.4149 49.8826 14.9897 49.3941 15.5947 48.5011C16.5482 47.1695 17.6293 46.2382 18.1783 46.3291C18.3314 46.3543 18.4191 46.1932 18.3617 45.9505C18.3042 45.7071 18.522 45.5101 18.9019 45.4845C19.3422 45.4703 19.4866 45.552 19.334 45.7317C19.2118 45.9154 19.452 45.7802 19.8442 45.4654C20.2663 45.1559 20.6108 44.7452 20.6455 44.517C20.6795 44.2889 20.8282 44.1384 21.0112 44.1689C21.1643 44.1941 21.3469 44.0198 21.3856 43.7637C21.4203 43.5355 21.5908 43.4468 21.73 43.5579C21.8963 43.7021 22.2188 43.4339 22.4752 42.9801C22.7322 42.5256 23.2287 42.1409 23.5821 42.0821C24.0576 42.0439 24.136 41.9401 23.8869 41.7241C23.6384 41.5073 23.7168 41.4035 24.2268 41.3421C24.6412 41.2933 24.9333 41.0204 24.998 40.5933C25.0622 40.1663 25.246 39.9918 25.6079 40.0807C25.9441 40.1364 26.1836 40.0006 26.2403 39.6307C26.287 39.3168 26.4743 39.1144 26.6838 39.1782C26.8898 39.2704 27.2295 39.0927 27.4599 38.8099C27.691 38.527 28.0652 38.326 28.2793 38.3611C28.5239 38.4015 28.8073 38.1858 28.9462 37.8877C29.0857 37.589 29.0541 37.3795 28.885 37.4687C28.7191 37.5286 28.6098 37.423 28.6312 37.2806C28.6415 37.197 28.6858 37.121 28.752 37.0715C28.8188 37.0213 28.9029 37.002 28.9842 37.0177C29.4424 37.0939 30.6408 36.2112 30.466 35.9192C30.3614 35.7849 30.4223 35.7949 30.5921 35.9112C31.0685 36.2821 33.601 34.6556 33.5739 34.009C33.5556 33.7138 33.7867 33.4309 34.0745 33.3908C34.3365 33.3175 34.5887 33.0959 34.628 32.8397C34.6621 32.6116 34.9673 32.4577 35.3034 32.5134C35.6396 32.5691 35.9447 32.4146 35.9834 32.1585C36.0182 31.9309 36.1615 31.8085 36.2973 31.9474C36.6332 32.2074 36.8947 31.9292 37.2293 30.9624C37.512 30.1334 37.9255 29.6756 37.8347 30.2743C37.7526 30.8151 38.4373 30.4322 38.8591 29.7136C39.0683 29.3682 39.4214 29.1059 39.6653 29.1458C39.8795 29.1809 40.3282 28.7003 40.7022 28.0908C41.0503 27.4474 41.5249 27.0002 41.6998 27.0872C41.9398 27.1562 42.0965 26.9486 42.1136 26.4257C42.1521 25.7605 42.2609 25.6613 42.7103 25.7941C43.1552 25.9555 43.264 25.8564 43.1809 25.3754C43.1408 25.0183 43.2412 24.7721 43.4242 24.8026C43.5773 24.8277 43.651 24.7526 43.6074 24.6282C43.5372 24.4706 43.9945 24.1378 44.6354 23.8347C45.2457 23.5264 45.8164 23.0658 45.8558 22.8096C45.8986 22.5249 46.1474 22.3325 46.3913 22.3723C46.636 22.4127 46.845 22.2723 46.8405 22.096C46.8096 21.8872 46.9834 21.7694 47.1584 21.857C47.6343 22.023 47.7423 21.5155 47.3062 21.2969C46.9569 21.1228 49.0969 19.6069 49.5544 19.6832C49.7076 19.7084 49.7946 19.5473 49.7378 19.3045C49.6803 19.0612 49.9241 18.6932 50.3036 18.4634C50.6479 18.257 50.9398 18.1891 50.9184 18.3314C50.897 18.4737 51.0669 18.3852 51.2932 18.1303C51.5197 17.8761 51.8121 17.8067 52.0089 17.9562C52.205 18.1058 52.1919 17.9874 51.9906 17.6616C51.7153 17.2074 51.7279 17.1216 52.0641 17.1773C52.4307 17.2376 52.4394 17.1811 52.1333 16.9259C51.8537 16.7045 51.9632 16.6059 52.5647 16.5591C53.0402 16.5209 53.346 16.367 53.2494 16.1762C53.1833 15.99 53.3838 15.7018 53.7195 15.5527C54.225 15.3149 54.2688 15.2344 53.9062 15.1455C53.5137 15.0512 53.5178 15.0233 53.9934 14.7802C54.2675 14.6211 54.6292 14.3016 54.7906 14.0653C54.9254 13.7952 55.2042 13.6081 55.3878 13.638C55.5708 13.6685 55.6144 13.7922 55.4969 13.9486C55.3794 14.1043 55.4973 14.1528 55.7898 14.0841C56.1731 14.0307 56.221 13.9222 55.9679 13.7341C55.7493 13.5227 55.841 13.3337 56.3552 13.0387C56.8694 12.7445 56.9956 12.5315 56.8208 12.2396C56.6719 11.9816 56.6674 11.8053 56.8989 11.7267C57.0688 11.6381 57.2736 11.7305 57.3702 11.9213C57.5587 12.3322 58.0779 12.4184 58.138 12.0193C58.1593 11.877 58.0507 11.7712 57.8848 11.8312C57.719 11.8919 57.5528 11.7476 57.4655 11.4995C57.4087 11.2567 57.5302 11.0718 57.6827 11.097C57.8663 11.1275 57.9966 10.8866 57.9531 10.5573C57.917 10.1723 58.0392 9.98791 58.3448 10.0383C58.5888 10.0787 58.6977 9.98023 58.6322 9.794C58.5621 9.6364 58.6756 9.50926 58.8891 9.54443C59.1032 9.57953 59.5217 9.50281 59.7877 9.40088C60.1884 9.23373 60.2058 9.11931 59.9262 8.89797C59.4809 8.53235 59.9552 7.67599 60.5354 7.77213C60.78 7.81253 60.985 7.70064 61.0111 7.52967C61.0365 7.35876 61.2328 7.30343 61.4336 7.42438C61.6085 7.51139 61.9925 7.45794 62.2361 7.29421C62.5891 7.03126 62.6024 6.94541 62.2968 6.89505C62.0833 6.85988 62.2008 6.70416 62.5624 6.58892C62.9245 6.47296 63.2947 6.30115 63.4042 6.20193C63.513 6.10342 64.376 5.77836 65.3617 5.47444C66.805 5.04125 67.4367 4.59058 68.5958 3.3513C69.3579 2.45487 70.1368 1.44539 70.3195 1.06614C70.8419 -0.102952 71.6615 -0.14262 72.4965 0.958437C73.1169 1.82019 73.1697 2.0922 72.8314 3.49595C72.5109 4.99077 72.682 5.72038 73.0908 4.67779C73.2257 4.4083 73.096 5.46739 72.7973 7.02408C72.239 10.2905 72.0436 10.7542 69.84 13.5147C67.2837 16.7423 60.5624 23.487 59.7553 23.6458C59.5985 23.7016 59.4828 23.8381 59.4506 24.0045C59.3985 24.3465 56.536 26.9104 55.5076 27.4997C55.124 27.7573 54.7623 28.0775 54.7363 28.2485C54.7109 28.4194 54.018 29.0637 53.1766 29.6549C52.3657 30.2514 51.6429 30.891 51.5472 31.1086C51.3512 31.573 49.7912 32.571 49.3636 32.5007C49.2111 32.4748 49.0457 32.7397 48.989 33.1096C48.9202 33.5659 48.8201 33.6079 48.6798 33.2927C48.5137 32.9435 48.3824 32.9802 48.0345 33.4194C47.773 33.6976 47.6692 33.9723 47.76 33.987C48.1571 34.0526 46.0661 35.6635 45.2761 35.9128C44.8185 36.0421 44.4176 36.4135 44.3742 36.6983C44.3315 36.9836 43.9393 37.2984 43.4897 37.3706C42.9756 37.46 42.7268 37.653 42.8013 37.9863C42.8846 38.2629 42.7671 38.4187 42.4621 38.3682C42.2175 38.3278 41.7251 38.6846 41.3679 39.1804C41.0153 39.6476 40.4485 40.0796 40.1309 40.115C39.7814 40.1445 39.2147 40.5766 38.8799 41.1348C38.4755 41.7396 38.1218 42.0026 37.9297 41.8251C37.7024 41.6703 37.6679 41.6936 37.7552 41.9417C37.9219 42.2907 35.1852 44.4376 34.6614 44.38C34.3252 44.3243 33.31 45.0327 33.6109 45.1117C33.7336 45.1322 33.4981 45.2387 33.0485 45.3109C32.4642 45.4482 32.3553 45.5467 32.6349 45.7681C32.941 46.0233 32.8971 46.1032 32.4659 46.2657C32.1999 46.3676 31.45 46.9741 30.8141 47.6576C30.1828 48.3124 29.8607 48.7849 30.0611 48.701C30.2574 48.6457 30.5192 48.7766 30.6416 49.0013C30.8077 49.3498 30.8687 49.3604 30.9127 49.0749C30.9428 48.8761 31.0775 48.8108 31.2478 48.9265C31.3876 49.0368 31.5448 49.034 31.5661 48.8911C31.6095 48.6063 32.5473 48.4109 33.6029 48.4688C33.9477 48.4673 34.3092 48.352 34.4227 48.2242C34.7234 47.8941 38.3295 47.03 38.9713 47.136C39.2153 47.1765 39.7824 46.9487 40.2397 46.6158C40.6975 46.2823 41.3867 46.075 41.8448 46.1506C42.2724 46.2215 42.6299 46.1342 42.6512 45.9918C42.6773 45.8209 42.8563 45.88 43.0702 46.1193C43.2841 46.3593 43.3416 46.6027 43.2063 46.668C43.1014 46.738 42.932 47.0314 42.8236 47.3347C42.7152 47.6381 42.7847 47.7957 42.9327 47.6447C43.0767 47.5222 43.4342 47.4355 43.6789 47.4759C43.9229 47.5164 44.1543 47.4377 44.1797 47.2668C44.2018 47.1244 44.3711 46.831 44.5543 46.6566C44.7807 46.4024 44.9338 46.4275 45.2306 46.7394C45.528 47.0511 45.7414 47.0863 46.0201 46.8986C46.4382 46.6177 45.845 46.4031 44.2743 46.2311C43.0662 46.1479 43.3319 45.6369 44.8011 45.2376C45.8133 44.9669 46.253 44.9521 46.2148 45.2082C46.1882 45.3792 46.3931 45.2667 46.6674 44.9033C46.9423 44.5399 47.3292 44.2538 47.5433 44.2889C47.7614 44.2954 48.1328 44.3284 48.4119 44.3449C48.6559 44.3853 48.7999 44.2628 48.7344 44.0766C48.6643 43.9197 48.8692 43.8065 49.2048 43.8628C49.5103 43.9126 49.8332 44.0541 49.9033 44.2117C49.9476 44.3353 49.9603 44.2502 49.9293 44.0407C49.903 43.8026 50.1818 43.6155 50.5312 43.5853C50.8496 43.5505 51.2636 43.2975 51.433 43.0048C51.6111 42.6542 51.8777 42.5522 52.231 42.6983C52.5233 42.8339 52.8768 42.7758 53.003 42.5629C53.2507 42.1657 56.5387 41.1321 56.4866 41.4734C56.4693 41.5878 56.7134 41.4233 57.0406 41.1271C57.3367 40.8263 57.738 40.6584 57.8772 40.7695C58.013 40.9084 58.1483 40.8431 58.1697 40.7007C58.1957 40.5298 58.8671 40.232 59.6822 40.0161C60.4981 39.8007 61.1647 39.531 61.1867 39.3886C61.2087 39.2455 61.378 39.1577 61.592 39.1922C61.8056 39.2286 62.3422 38.9955 62.8259 38.6959C64.2817 37.7684 67.3006 37.8871 66.4383 38.8255C66.2903 38.9759 66.3034 39.095 66.4606 39.0916C67.6515 39.0842 67.8303 39.3476 67.4392 40.48C67.1612 41.281 67.1443 41.5996 67.4103 41.497C67.6106 41.4131 67.7678 41.4104 67.7552 41.4961C67.7464 41.5527 67.7946 41.8527 67.8738 42.1579C67.9484 42.4912 67.9005 42.6003 67.6779 42.4175C67.5076 42.3018 67.2895 42.2946 67.176 42.4224C67.0326 42.5442 67.0894 42.7877 67.2551 42.9319C67.4783 43.1147 67.4304 43.2232 67.1293 43.3491C66.7983 43.4696 66.8027 43.6452 67.1609 44.1719C67.4715 44.6027 67.4978 44.8409 67.2843 44.8057C67.0091 44.76 67.0183 44.9076 67.311 45.248C67.7527 45.8464 67.2608 47.0208 66.3499 47.4544C66.0753 47.6135 65.8535 47.8397 65.8667 47.9588C65.9106 48.4916 65.2833 49.1179 64.8818 48.8767C64.5371 48.6733 64.189 49.3168 64.2074 50.2254C64.1906 50.3391 64.0593 50.3758 63.8498 50.3121C63.645 50.2197 63.4745 50.3083 63.4227 50.446C63.284 51.1532 61.4637 53.2469 60.5746 53.7423C60.0293 54.032 59.6635 54.3801 59.7424 54.4811C59.8516 54.5862 59.6858 54.6468 59.4107 54.6011C59.1667 54.5606 58.8264 54.7384 58.6921 55.0078C58.5261 55.2727 57.9334 55.8758 57.3327 56.331C56.7309 56.7871 55.977 57.4214 55.6418 57.7748C55.3065 58.1282 54.7445 58.5316 54.4393 58.6855C54.1036 58.8346 53.8116 59.1075 53.7855 59.2785C53.7595 59.4495 53.1104 60.0139 52.3692 60.5632C49.3844 62.6981 48.452 63.4789 48.3826 63.9346C48.3392 64.2193 48.0126 64.5155 47.6512 64.6314C47.289 64.7467 46.9792 64.9292 46.9578 65.0715C46.9404 65.1853 46.1865 65.8203 45.3066 66.4633C44.3955 67.1011 43.2845 68.027 42.8053 68.5029C41.7598 69.615 39.4021 71.3279 39.1099 71.1924C38.9925 71.1432 38.7608 71.4267 38.5741 71.8339C38.2264 72.6815 37.1021 73.6933 36.6135 73.6124C36.4305 73.5819 36.26 73.6705 36.2386 73.8129C36.2167 73.9559 35.9121 74.1097 35.5891 74.1731C35.2098 74.1979 34.9874 74.4242 35.0442 74.667C35.1017 74.9104 34.7704 75.2352 34.3041 75.421C33.833 75.6348 33.4847 75.8692 33.5589 75.9988C33.6025 76.1226 33.1193 76.627 32.4523 77.1004C31.8206 77.551 31.3414 78.0269 31.446 78.1606C31.5248 78.2616 31.2893 78.3688 30.9053 78.4217C30.526 78.4471 30.199 78.5391 30.1817 78.6529C30.1643 78.7666 29.4455 79.3777 28.565 80.0208C27.6804 80.6924 26.9443 81.4179 26.9055 81.674C26.8709 81.9022 26.6663 82.2189 26.4573 82.3594C26.2476 82.4999 25.8732 82.9052 25.6077 83.212C25.368 83.552 24.6926 83.8783 24.1209 83.9299C23.4538 83.9948 23.079 84.1959 23.066 84.4853C23.0327 85.3267 22.854 85.6767 22.6049 85.4607C22.4651 85.3497 22.2215 85.5141 22.0515 85.8076C21.9126 86.1056 21.5682 86.3114 21.3242 86.2709C21.0796 86.2305 20.8573 86.4568 20.8059 86.7987C20.7538 87.1406 20.4618 87.4135 20.0824 87.4383C19.733 87.4685 19.524 87.609 19.5941 87.7666C19.6642 87.9242 19.4804 88.0987 19.2237 88.1433C18.9352 88.1834 18.661 88.5468 18.6009 88.9459C18.5275 89.4302 18.349 89.5759 17.991 89.4584C17.6331 89.3409 17.3151 89.5799 16.967 90.2233C16.6973 90.7629 16.0436 91.356 15.4465 91.5785C14.8793 91.8057 14.2476 92.2563 14.0079 92.5964C13.7729 92.9078 13.3025 93.1222 12.9664 93.0666C12.6302 93.0109 12.3338 93.1082 12.3077 93.2792C12.2823 93.4501 12.0854 93.5055 11.8541 93.3792C11.6228 93.2536 11.2388 93.3071 10.9906 93.4994C10.7729 93.6971 10.4194 93.7558 10.2492 93.6402ZM48.871 54.5246C49.2111 54.5517 49.5036 54.483 49.521 54.3692C49.5684 54.0559 48.7091 53.9426 48.4475 54.2208C48.33 54.3766 48.5308 54.4975 48.871 54.5246ZM30.7044 50.4421C30.6785 50.6137 30.7227 50.7374 30.7838 50.748C30.8752 50.7626 31.0451 50.6747 31.1626 50.5183C31.2761 50.3912 31.2365 50.2382 31.084 50.213C30.9004 50.1832 30.7264 50.2997 30.7044 50.4421ZM40.5553 47.8356C40.6342 47.9367 40.8391 47.8241 40.974 47.5546C41.2178 47.186 41.1912 47.1521 40.8469 47.3585C40.6034 47.5229 40.4772 47.7352 40.5553 47.8356ZM41.8549 47.3207C42.0073 47.3452 42.0864 47.242 42.0202 47.0558C41.9508 46.8982 41.819 46.7307 41.7275 46.7154C41.6665 46.7055 41.5835 46.8379 41.5621 46.9803C41.5361 47.1512 41.6719 47.2901 41.8549 47.3207ZM35.1971 43.7385C35.3806 43.9732 35.7993 43.6922 35.8594 43.2931C35.8854 43.1221 35.7289 43.1255 35.4847 43.2893C35.275 43.4298 35.1488 43.6427 35.1971 43.7385ZM51.0599 44.6361C51.2739 44.8761 51.6443 44.4994 51.7177 44.0151C51.7433 43.6399 51.6823 43.6293 51.3736 44.0166C51.1472 44.2708 51.0117 44.541 51.0599 44.6361ZM52.3207 44.3772C52.4732 44.4024 52.5516 44.2986 52.4861 44.1124C52.416 43.9548 52.2842 43.7873 52.1934 43.772C52.1324 43.762 52.0494 43.8945 52.028 44.0368C52.002 44.2078 52.1371 44.3468 52.3207 44.3772ZM51.8086 43.417C51.9759 43.4381 52.1297 43.3237 52.1616 43.1541C52.1836 43.0117 52.0398 42.9292 51.8739 42.9892C51.6776 43.0445 51.5336 43.167 51.5209 43.2522C51.5122 43.3094 51.6255 43.3865 51.8086 43.417ZM65.6532 38.8419C65.6919 38.5851 65.5216 38.4695 65.2337 38.5089C64.9718 38.5829 64.8238 38.734 64.8939 38.8916C65.0778 39.3305 65.5838 39.2976 65.6532 38.8419ZM47.3202 34.2067C47.5337 34.2419 47.5245 34.0943 47.3458 33.8315C47.1968 33.5729 47.2097 33.2829 47.3491 33.1897C47.4931 33.0672 47.4321 33.0572 47.2006 33.1359C46.9698 33.2145 46.8389 33.4554 46.9268 33.7034C46.9836 33.9469 47.1671 34.1816 47.3202 34.2067Z" fill="#FCD718"/>
<path d="M51.3936 17.1856C51.4156 17.0432 51.2712 16.9615 51.1054 17.0215C50.909 17.0768 50.7657 17.1993 50.7523 17.2845C50.7443 17.3416 50.8576 17.4187 51.0406 17.4486C51.2079 17.4696 51.3617 17.3553 51.3936 17.1856Z" fill="#FCD718"/>
</svg>
