<svg width="162" height="48" viewBox="0 0 162 48" fill="none" xmlns="http://www.w3.org/2000/svg">
<path d="M162 14.832V47.6455H154.842V14.832H162Z" fill="white"/>
<path d="M146.844 17.315C145.588 17.315 145.812 18.0836 145.002 17.315C144.221 16.5168 144.165 17.6697 144.165 16.5168C144.165 15.3344 144.012 17.2854 144.793 16.5168C145.602 15.7187 144.416 16.2508 145.672 16.2508C146.9 16.2508 146.063 15.7187 146.844 16.5168C147.653 17.2854 148.184 15.0683 148.184 16.2508C147.346 17.397 148.449 16.5168 147.639 17.315C146.858 18.0836 148.072 17.315 146.844 17.315ZM149.651 22.9022V47.6453H142.493V22.9022H149.651Z" fill="white"/>
<path d="M121.245 26.4054C121.915 25.2525 122.877 24.3213 124.133 23.6118C125.389 22.9024 126.826 22.5476 128.445 22.5476C130.37 22.5476 132.114 23.065 133.677 24.0996C135.24 25.1343 136.468 26.6124 137.361 28.5339C138.281 30.4554 138.742 32.6873 138.742 35.2296C138.742 37.7719 138.281 40.0186 137.361 41.9697C136.468 43.8912 135.24 45.384 133.677 46.4482C132.114 47.4829 130.37 48.0002 128.445 48.0002C126.798 48.0002 125.361 47.6603 124.133 46.9804C122.905 46.2709 121.942 45.3397 121.245 44.1868V47.6455H114.087V14.832H121.245V26.4054ZM131.458 35.2296C131.458 33.3376 130.956 31.8596 129.952 30.7953C128.975 29.7016 127.761 29.1547 126.31 29.1547C124.887 29.1547 123.673 29.7016 122.668 30.7953C121.691 31.8891 121.203 33.382 121.203 35.2739C121.203 37.1659 121.691 38.6587 122.668 39.7525C123.673 40.8463 124.887 41.3932 126.31 41.3932C127.733 41.3932 128.947 40.8463 129.952 39.7525C130.956 38.6292 131.458 37.1215 131.458 35.2296Z" fill="white"/>
<path d="M84.2471 35.2259C84.2471 32.6836 84.6936 30.4517 85.5866 28.5302C86.5075 26.6087 87.7493 25.1306 89.312 24.0959C90.8748 23.0613 92.6189 22.5439 94.5444 22.5439C96.1909 22.5439 97.628 22.8987 98.8559 23.6082C100.112 24.3176 101.074 25.2488 101.744 26.4017V22.8987H108.902V47.6418H101.744V44.1388C101.047 45.2917 100.07 46.2229 98.8141 46.9323C97.5862 47.6418 96.149 47.9966 94.5026 47.9966C92.6049 47.9966 90.8748 47.4792 89.312 46.4446C87.7493 45.3803 86.5075 43.8875 85.5866 41.966C84.6936 40.0149 84.2471 37.7682 84.2471 35.2259ZM101.744 35.2702C101.744 33.3783 101.242 31.8854 100.237 30.7917C99.2605 29.6979 98.0606 29.151 96.6374 29.151C95.2142 29.151 94.0002 29.6979 92.9956 30.7917C92.0189 31.8559 91.5306 33.334 91.5306 35.2259C91.5306 37.1179 92.0189 38.6255 92.9956 39.7488C94.0002 40.8426 95.2142 41.3895 96.6374 41.3895C98.0606 41.3895 99.2605 40.8426 100.237 39.7488C101.242 38.6551 101.744 37.1622 101.744 35.2702Z" fill="white"/>
<path d="M64.423 26.4054C65.0928 25.2525 66.0556 24.3213 67.3113 23.6118C68.5671 22.9024 70.0043 22.5476 71.6228 22.5476C73.5483 22.5476 75.2925 23.065 76.8552 24.0996C78.418 25.1343 79.6458 26.6124 80.5388 28.5339C81.4597 30.4554 81.9202 32.6873 81.9202 35.2296C81.9202 37.7719 81.4597 40.0186 80.5388 41.9697C79.6458 43.8912 78.418 45.384 76.8552 46.4482C75.2925 47.4829 73.5483 48.0002 71.6228 48.0002C69.9764 48.0002 68.5392 47.6603 67.3113 46.9804C66.0835 46.2709 65.1207 45.3397 64.423 44.1868V47.6455H57.2651V14.832H64.423V26.4054ZM74.6367 35.2296C74.6367 33.3376 74.1344 31.8596 73.1298 30.7953C72.153 29.7016 70.9391 29.1547 69.488 29.1547C68.0648 29.1547 66.8509 29.7016 65.8463 30.7953C64.8695 31.8891 64.3812 33.382 64.3812 35.2739C64.3812 37.1659 64.8695 38.6587 65.8463 39.7525C66.8509 40.8463 68.0648 41.3932 69.488 41.3932C70.9112 41.3932 72.1251 40.8463 73.1298 39.7525C74.1344 38.6292 74.6367 37.1215 74.6367 35.2296Z" fill="white"/>
<path d="M148.118 20.8857C147.749 20.8857 147.454 21.1949 147.454 21.5804C147.454 21.7647 147.524 21.9414 147.648 22.0716C147.773 22.2019 147.942 22.2751 148.118 22.2751C148.294 22.2751 148.463 22.2019 148.588 22.0716C148.712 21.9414 148.782 21.7647 148.782 21.5804C148.782 21.3962 148.712 21.2195 148.588 21.0892C148.463 20.9589 148.294 20.8857 148.118 20.8857ZM142.805 15.3281V16.0228H143.469L144.664 18.6592L144.213 19.5102C144.163 19.6075 144.133 19.7221 144.133 19.8437C144.133 20.0279 144.203 20.2046 144.328 20.3349C144.452 20.4652 144.621 20.5384 144.797 20.5384H148.782V19.8437H144.937C144.915 19.8437 144.894 19.8345 144.878 19.8182C144.862 19.802 144.854 19.7799 144.854 19.7568C144.854 19.7395 144.857 19.7256 144.864 19.7152L145.163 19.149H147.637C147.886 19.149 148.105 19.0031 148.218 18.7912L149.407 16.5438C149.43 16.4883 149.446 16.4292 149.446 16.3702C149.446 16.2781 149.411 16.1897 149.349 16.1246C149.287 16.0594 149.202 16.0228 149.114 16.0228H144.203L143.891 15.3281M144.797 20.8857C144.429 20.8857 144.133 21.1949 144.133 21.5804C144.133 21.7647 144.203 21.9414 144.328 22.0716C144.452 22.2019 144.621 22.2751 144.797 22.2751C144.973 22.2751 145.142 22.2019 145.267 22.0716C145.391 21.9414 145.461 21.7647 145.461 21.5804C145.461 21.3962 145.391 21.2195 145.267 21.0892C145.142 20.9589 144.973 20.8857 144.797 20.8857Z" fill="white"/>
<path d="M18.5664 43.4406C18.5664 43.4406 21.1078 33.6454 27.5844 30.2955C34.0609 26.9456 40.4189 27.3893 44.8954 31.744C49.372 36.0987 53.5353 47.8442 53.5353 47.8442H40.6896C40.6896 47.8442 41.457 39.1705 32.1146 36.5415C22.7723 33.9125 18.5664 43.4406 18.5664 43.4406Z" fill="white"/>
<path d="M27.6994 0L42.3619 25.5672C24.1847 24.4001 18.9411 28.9849 14.5944 47.8152H0L27.6994 0Z" fill="white"/>
<ellipse cx="37.2427" cy="33.5358" rx="1.3965" ry="1.34142" fill="#063D30"/>
</svg>
