<svg width="162" height="48" viewBox="0 0 162 48" fill="none" xmlns="http://www.w3.org/2000/svg">
<path d="M162 14.8318V47.6453H154.842V14.8318H162Z" fill="#063D30"/>
<path d="M146.844 17.3152C145.588 17.3152 145.812 18.0838 145.002 17.3152C144.221 16.5171 144.165 17.67 144.165 16.5171C144.165 15.3346 144.012 17.2857 144.793 16.5171C145.602 15.7189 144.416 16.251 145.672 16.251C146.9 16.251 146.063 15.7189 146.844 16.5171C147.653 17.2857 148.184 15.0686 148.184 16.251C147.346 17.3972 148.449 16.5171 147.639 17.3152C146.858 18.0838 148.072 17.3152 146.844 17.3152ZM149.651 22.9024V47.6455H142.493V22.9024H149.651Z" fill="#063D30"/>
<path d="M121.245 26.4052C121.915 25.2523 122.877 24.3211 124.133 23.6116C125.389 22.9021 126.826 22.5474 128.445 22.5474C130.37 22.5474 132.114 23.0647 133.677 24.0994C135.24 25.134 136.468 26.6121 137.361 28.5336C138.282 30.4551 138.742 32.687 138.742 35.2294C138.742 37.7717 138.282 40.0183 137.361 41.9694C136.468 43.8909 135.24 45.3838 133.677 46.448C132.114 47.4827 130.37 48 128.445 48C126.798 48 125.361 47.66 124.133 46.9801C122.905 46.2706 121.943 45.3394 121.245 44.1865V47.6453H114.087V14.8318H121.245V26.4052ZM131.459 35.2294C131.459 33.3374 130.956 31.8593 129.952 30.7951C128.975 29.7013 127.761 29.1544 126.31 29.1544C124.887 29.1544 123.673 29.7013 122.668 30.7951C121.691 31.8889 121.203 33.3817 121.203 35.2737C121.203 37.1656 121.691 38.6585 122.668 39.7523C123.673 40.8461 124.887 41.393 126.31 41.393C127.733 41.393 128.947 40.8461 129.952 39.7523C130.956 38.6289 131.459 37.1213 131.459 35.2294Z" fill="#063D30"/>
<path d="M84.2469 35.2259C84.2469 32.6836 84.6934 30.4517 85.5864 28.5302C86.5073 26.6087 87.7492 25.1306 89.3119 24.0959C90.8746 23.0613 92.6188 22.5439 94.5443 22.5439C96.1908 22.5439 97.6279 22.8987 98.8558 23.6081C100.112 24.3176 101.074 25.2488 101.744 26.4017V22.8987H108.902V47.6418H101.744V44.1387C101.046 45.2916 100.07 46.2228 98.8139 46.9323C97.5861 47.6418 96.1489 47.9965 94.5024 47.9965C92.6048 47.9965 90.8746 47.4792 89.3119 46.4445C87.7492 45.3803 86.5073 43.8875 85.5864 41.966C84.6934 40.0149 84.2469 37.7682 84.2469 35.2259ZM101.744 35.2702C101.744 33.3783 101.242 31.8854 100.237 30.7916C99.2604 29.6979 98.0605 29.151 96.6373 29.151C95.214 29.151 94.0001 29.6979 92.9955 30.7916C92.0188 31.8559 91.5304 33.3339 91.5304 35.2259C91.5304 37.1178 92.0188 38.6255 92.9955 39.7488C94.0001 40.8426 95.214 41.3895 96.6373 41.3895C98.0605 41.3895 99.2604 40.8426 100.237 39.7488C101.242 38.655 101.744 37.1622 101.744 35.2702Z" fill="#063D30"/>
<path d="M64.4229 26.4052C65.0926 25.2523 66.0554 24.3211 67.3111 23.6116C68.5669 22.9021 70.0041 22.5474 71.6226 22.5474C73.5482 22.5474 75.2923 23.0647 76.855 24.0994C78.4178 25.134 79.6456 26.6121 80.5386 28.5336C81.4595 30.4551 81.92 32.687 81.92 35.2294C81.92 37.7717 81.4595 40.0183 80.5386 41.9694C79.6456 43.8909 78.4178 45.3838 76.855 46.448C75.2923 47.4827 73.5482 48 71.6226 48C69.9762 48 68.539 47.66 67.3111 46.9801C66.0833 46.2706 65.1205 45.3394 64.4229 44.1865V47.6453H57.265V14.8318H64.4229V26.4052ZM74.6365 35.2294C74.6365 33.3374 74.1342 31.8593 73.1296 30.7951C72.1529 29.7013 70.9389 29.1544 69.4878 29.1544C68.0646 29.1544 66.8507 29.7013 65.8461 30.7951C64.8694 31.8889 64.381 33.3817 64.381 35.2737C64.381 37.1656 64.8694 38.6585 65.8461 39.7523C66.8507 40.8461 68.0646 41.393 69.4878 41.393C70.911 41.393 72.1249 40.8461 73.1296 39.7523C74.1342 38.6289 74.6365 37.1213 74.6365 35.2294Z" fill="#063D30"/>
<path d="M147.734 19.9275C147.37 19.9275 147.078 20.2366 147.078 20.6222C147.078 20.8064 147.147 20.9831 147.27 21.1134C147.393 21.2437 147.56 21.3169 147.734 21.3169C147.908 21.3169 148.075 21.2437 148.197 21.1134C148.32 20.9831 148.39 20.8064 148.39 20.6222C148.39 20.4379 148.32 20.2612 148.197 20.1309C148.075 20.0007 147.908 19.9275 147.734 19.9275ZM142.487 14.3699V15.0646H143.143L144.324 17.701L143.878 18.552C143.829 18.6492 143.799 18.7638 143.799 18.8854C143.799 19.0697 143.868 19.2464 143.991 19.3766C144.114 19.5069 144.281 19.5801 144.455 19.5801H148.39V18.8854H144.593C144.571 18.8854 144.55 18.8763 144.535 18.86C144.519 18.8437 144.511 18.8216 144.511 18.7986C144.511 18.7812 144.514 18.7673 144.52 18.7569L144.815 18.1907H147.258C147.504 18.1907 147.721 18.0448 147.832 17.8329L149.006 15.5856C149.029 15.53 149.045 15.471 149.045 15.4119C149.045 15.3198 149.011 15.2314 148.949 15.1663C148.888 15.1012 148.804 15.0646 148.717 15.0646H143.868L143.56 14.3699M144.455 19.9275C144.091 19.9275 143.799 20.2366 143.799 20.6222C143.799 20.8064 143.868 20.9831 143.991 21.1134C144.114 21.2437 144.281 21.3169 144.455 21.3169C144.629 21.3169 144.796 21.2437 144.919 21.1134C145.042 20.9831 145.111 20.8064 145.111 20.6222C145.111 20.4379 145.042 20.2612 144.919 20.1309C144.796 20.0007 144.629 19.9275 144.455 19.9275Z" fill="#063D30"/>
<path d="M18.5663 43.4407C18.5663 43.4407 21.1077 33.6456 27.5842 30.2956C34.0608 26.9457 40.4188 27.3894 44.8953 31.7441C49.3719 36.0988 53.5352 47.8443 53.5352 47.8443H40.6895C40.6895 47.8443 41.4568 39.1707 32.1145 36.5416C22.7722 33.9126 18.5663 43.4407 18.5663 43.4407Z" fill="#063D30"/>
<path d="M27.6994 0L42.3619 25.5672C24.1847 24.4001 18.9411 28.9849 14.5944 47.8152H0L27.6994 0Z" fill="#063D30"/>
<ellipse cx="37.2425" cy="33.5356" rx="1.3965" ry="1.34142" fill="white"/>
</svg>
