<svg width="25" height="16" viewBox="0 0 25 16" fill="none" xmlns="http://www.w3.org/2000/svg">
<path d="M14.875 2.625C14.875 2.39293 14.9672 2.17037 15.1313 2.00628C15.2954 1.84219 15.5179 1.75 15.75 1.75H22.75C22.9821 1.75 23.2046 1.84219 23.3687 2.00628C23.5328 2.17037 23.625 2.39293 23.625 2.625C23.625 2.85706 23.5328 3.07962 23.3687 3.24372C23.2046 3.40781 22.9821 3.5 22.75 3.5H15.75C15.5179 3.5 15.2954 3.40781 15.1313 3.24372C14.9672 3.07962 14.875 2.85706 14.875 2.625ZM12.25 11.1563C12.25 12.3746 11.766 13.543 10.9045 14.4045C10.043 15.266 8.8746 15.75 7.6562 15.75H0.875C0.64294 15.75 0.42038 15.6578 0.25628 15.4937C0.09219 15.3296 0 15.1071 0 14.875V0.875C0 0.64293 0.09219 0.42037 0.25628 0.25628C0.42038 0.09219 0.64294 0 0.875 0H7.21875C8.0556 0.00089 8.8727 0.25439 9.5632 0.72734C10.2536 1.20029 10.7852 1.87064 11.0883 2.65068C11.3915 3.43072 11.4521 4.28409 11.2622 5.09919C11.0723 5.91419 10.6409 6.65299 10.0242 7.21879C10.7034 7.62729 11.2653 8.20459 11.6553 8.89459C12.0453 9.58459 12.2502 10.3637 12.25 11.1563ZM1.75 6.56249H7.21875C7.8569 6.56249 8.469 6.30899 8.9202 5.85769C9.3715 5.40649 9.625 4.79439 9.625 4.15629C9.625 3.51807 9.3715 2.90603 8.9202 2.45477C8.469 2.00351 7.8569 1.75 7.21875 1.75H1.75V6.56249ZM10.5 11.1563C10.5 10.7828 10.4264 10.413 10.2835 10.068C10.1406 9.72299 9.9312 9.40949 9.6671 9.14539C9.403 8.88139 9.0895 8.67189 8.7445 8.52899C8.3995 8.38609 8.0297 8.31249 7.6562 8.31249H1.75V14H7.6562C8.0297 14 8.3995 13.9265 8.7445 13.7835C9.0895 13.6406 9.403 13.4312 9.6671 13.1671C9.9312 12.903 10.1406 12.5895 10.2835 12.2445C10.4264 11.8995 10.5 11.5297 10.5 11.1563ZM24.5 10.5C24.5 10.7321 24.4078 10.9546 24.2437 11.1187C24.0796 11.2828 23.8571 11.375 23.625 11.375H15.8594C16.0241 12.0135 16.3658 12.5924 16.8452 13.0452C17.3245 13.4979 17.9221 13.8061 18.5689 13.9341C19.2157 14.0621 19.8855 14.0048 20.5012 13.7688C21.1169 13.5327 21.6534 13.1276 22.0489 12.6C22.1179 12.5081 22.2044 12.4307 22.3033 12.3721C22.4023 12.3136 22.5117 12.2752 22.6255 12.259C22.7394 12.2428 22.8552 12.2491 22.9666 12.2777C23.0779 12.3063 23.1825 12.3565 23.2745 12.4256C23.3664 12.4946 23.4438 12.581 23.5023 12.68C23.5608 12.7789 23.5993 12.8884 23.6155 13.0022C23.6317 13.116 23.6253 13.2319 23.5967 13.3432C23.5682 13.4546 23.5179 13.5592 23.4489 13.6511C22.7006 14.6481 21.622 15.3463 20.4061 15.6208C19.1901 15.8953 17.9162 15.7281 16.8121 15.1493C15.7081 14.5705 14.8461 13.6177 14.3803 12.4614C13.9145 11.3052 13.8753 10.0209 14.2698 8.83839C14.6642 7.65589 15.4665 6.65229 16.5332 6.00729C17.5999 5.36219 18.8612 5.11769 20.0917 5.31759C21.3221 5.51739 22.4413 6.14849 23.2489 7.09799C24.0566 8.04749 24.5001 9.25349 24.5 10.5ZM22.6406 9.62499C22.4479 8.87209 22.01 8.20479 21.3961 7.72829C20.7822 7.25179 20.0271 6.99309 19.25 6.99309C18.4729 6.99309 17.7178 7.25179 17.1039 7.72829C16.49 8.20479 16.0521 8.87209 15.8594 9.62499H22.6406Z" fill="#0A0A0A"/>
</svg>
