<svg width="108" height="30" viewBox="0 0 108 30" fill="none" xmlns="http://www.w3.org/2000/svg">
<g clip-path="url(#clip0_1_3496)">
<path d="M9.25762 6.14648C10.1763 6.14648 11.0243 6.21785 11.8017 6.42915C12.5791 6.57049 13.2151 6.85317 13.7804 7.20651C14.3458 7.55986 14.7698 8.05454 15.0525 8.69126C15.3351 9.32658 15.4765 10.1047 15.4765 10.9527C15.4765 11.9414 15.2645 12.7901 14.7698 13.4261C14.3458 14.0614 13.6391 14.6268 12.7911 15.0508C13.9924 15.4041 14.9111 16.0394 15.4765 16.8882C16.0418 17.7362 16.3952 18.7962 16.3952 19.9976C16.3952 20.9863 16.1832 21.835 15.8298 22.5417C15.4765 23.2484 14.9111 23.8844 14.2751 24.3084C13.6391 24.7331 12.8617 25.0865 12.0137 25.2978C11.1657 25.5091 10.3177 25.6511 9.46963 25.6511H0V6.14648H9.25762ZM8.69227 14.0614C9.46963 14.0614 10.1056 13.8494 10.6003 13.4961C11.095 13.1427 11.307 12.5067 11.307 11.7293C11.307 11.3053 11.2364 10.8813 11.095 10.5986C10.9537 10.316 10.7417 10.104 10.459 9.89193C10.1763 9.75059 9.89364 9.60925 9.5403 9.53858C9.18695 9.46791 8.83361 9.46791 8.4096 9.46791H4.3108V14.0614H8.69227ZM8.90428 22.4003C9.32829 22.4003 9.75231 22.3297 10.1056 22.2597C10.459 22.1883 10.8123 22.047 11.095 21.835C11.3777 21.623 11.5897 21.411 11.8017 21.0576C11.943 20.7043 12.0844 20.2796 12.0844 19.7856C12.0844 18.7962 11.8017 18.0895 11.2364 17.5942C10.671 17.1701 9.89364 16.9588 8.97495 16.9588H4.3108V22.4003H8.90428ZM22.5434 22.3297C23.1087 22.895 23.9568 23.1777 25.0875 23.1777C25.8648 23.1777 26.5715 22.9657 27.1369 22.6124C27.7022 22.1876 28.0555 21.7643 28.1969 21.3396H31.6597C31.0943 23.0357 30.2463 24.2377 29.1156 25.0144C27.9849 25.7211 26.6422 26.1458 25.0168 26.1458C23.8861 26.1458 22.8967 25.9331 21.978 25.5797C21.0593 25.2264 20.3526 24.7324 19.7166 24.0257C19.0806 23.3897 18.5859 22.6124 18.3032 21.693C17.9499 20.7743 17.8086 19.7856 17.8086 18.6542C17.8086 17.5942 17.9499 16.6055 18.3032 15.6861C18.6566 14.7674 19.1513 13.9908 19.7873 13.2841C20.4233 12.648 21.2007 12.0827 22.0487 11.7293C22.9674 11.376 23.8861 11.164 25.0168 11.164C26.2182 11.164 27.2782 11.376 28.1969 11.8707C29.1156 12.3654 29.8223 12.9307 30.3876 13.7787C30.953 14.5561 31.377 15.4741 31.6597 16.4642C31.801 17.4535 31.8717 18.4429 31.801 19.5736H21.554C21.554 20.7043 21.978 21.7643 22.5434 22.3297ZM26.9955 14.9094C26.5008 14.4148 25.7235 14.1321 24.8048 14.1321C24.1688 14.1321 23.6741 14.2727 23.2501 14.4854C22.826 14.6974 22.5434 14.9794 22.2607 15.2628C21.978 15.5462 21.8367 15.8988 21.766 16.2522C21.6953 16.6055 21.6247 16.8875 21.6247 17.1709H27.9849C27.8435 16.1108 27.4902 15.4041 26.9955 14.9094ZM37.3132 6.14648V13.4961H37.3838C37.8785 12.648 38.5145 12.0827 39.2919 11.7293C40.0693 11.376 40.7759 11.164 41.5533 11.164C42.6133 11.164 43.4614 11.3053 44.0974 11.588C44.7334 11.8707 45.2988 12.2947 45.6521 12.7894C46.0054 13.2841 46.2881 13.9201 46.4295 14.6268C46.5708 15.3335 46.6415 16.1115 46.6415 17.0295V25.7218H42.7547V17.7362C42.7547 16.5348 42.5427 15.6868 42.1893 15.1215C41.836 14.5561 41.2 14.2734 40.2813 14.2734C39.2212 14.2734 38.4439 14.6268 38.0199 15.1928C37.5252 15.8281 37.3132 16.8882 37.3132 18.3016V25.7218H33.4264V6.14648H37.3132ZM49.4682 13.6374C49.8922 13.0014 50.3869 12.5774 51.0229 12.1527C51.659 11.7993 52.3656 11.5173 53.143 11.3753C53.9204 11.234 54.697 11.1633 55.4751 11.1633C56.1818 11.1633 56.8884 11.234 57.6665 11.3046C58.3732 11.3753 59.0799 11.5866 59.6445 11.87C60.2806 12.1519 60.7046 12.5767 61.1293 13.0714C61.4819 13.5667 61.6939 14.2734 61.6939 15.1215V22.5417C61.6939 23.1777 61.7646 23.8137 61.8353 24.3798C61.9066 24.9451 62.1172 25.4398 62.33 25.7218H58.3725C58.2304 25.5804 58.1598 25.2978 58.0898 25.0865C58.0191 24.8738 58.0191 24.5918 58.0191 24.3798C57.3831 25.0151 56.6764 25.4398 55.8284 25.7218C54.9804 26.0045 54.1324 26.0751 53.2843 26.0751C52.5776 26.0751 52.0123 26.0045 51.3763 25.7932C50.8109 25.6518 50.3162 25.3684 49.8216 25.0151C49.3975 24.6618 49.0442 24.2377 48.7615 23.6731C48.5495 23.107 48.4082 22.5417 48.4082 21.7643C48.4082 20.9863 48.5495 20.2796 48.8322 19.7856C49.1149 19.2909 49.4682 18.8669 49.8922 18.5136C50.3162 18.2316 50.8816 17.9482 51.4469 17.8069C52.0123 17.6662 52.5777 17.5249 53.2137 17.4535L54.9097 17.2415C55.4751 17.1709 55.9698 17.1002 56.3938 17.0295C56.8178 16.8882 57.1711 16.7468 57.4538 16.5348C57.7365 16.3228 57.8071 16.0401 57.8071 15.6161C57.8071 15.1921 57.7365 14.8388 57.5951 14.6268C57.4538 14.4148 57.2418 14.2028 57.0298 14.0614C56.8171 13.9201 56.5351 13.8494 56.2524 13.7795C55.9698 13.7081 55.6164 13.7081 55.2631 13.7081C54.4857 13.7081 53.9204 13.8494 53.4963 14.2028C53.0723 14.5561 52.7897 15.1215 52.719 15.8281H48.8322C48.8322 14.9801 49.1149 14.2028 49.4682 13.6374ZM57.1704 19.1496C56.9591 19.2202 56.6764 19.2909 56.3931 19.3616C56.1104 19.433 55.8277 19.433 55.4744 19.5029C55.1924 19.5736 54.8391 19.5736 54.5557 19.6443L53.7076 19.8563C53.425 19.9269 53.1423 20.0683 53.001 20.2096C52.7889 20.351 52.6476 20.563 52.5063 20.775C52.295 21.0576 52.295 21.3403 52.295 21.6937C52.295 22.047 52.3656 22.3297 52.507 22.5417C52.6483 22.7537 52.7897 22.9664 53.0017 23.107C53.2137 23.2484 53.4963 23.3198 53.779 23.3897C54.0617 23.4597 54.3437 23.4604 54.697 23.4604C55.4751 23.4604 56.0397 23.3198 56.4637 23.107C56.8885 22.8251 57.1704 22.5417 57.3831 22.1883C57.5951 21.835 57.7365 21.4817 57.7365 21.1283C57.8071 20.775 57.8071 20.493 57.8071 20.2803V18.7962C57.5951 18.9376 57.3831 19.0796 57.1704 19.1496ZM67.5602 11.5173V13.4961H67.6308C68.1248 12.648 68.7615 12.0827 69.5382 11.7293C70.3162 11.376 71.1643 11.164 71.9409 11.164C73.001 11.164 73.849 11.3053 74.485 11.588C75.1917 11.8707 75.6871 12.2947 76.0404 12.7894C76.3938 13.2841 76.6757 13.9201 76.8877 14.6268C77.0291 15.3335 77.1005 16.1115 77.1005 17.0295V25.7218H73.2137V17.7362C73.2137 16.5348 73.001 15.6868 72.6476 15.1215C72.2943 14.5561 71.6582 14.2028 70.6689 14.2028C69.6088 14.2028 68.8308 14.6268 68.3368 15.2628C67.8421 15.8988 67.6301 16.9588 67.6301 18.3722V25.7925H63.7433V11.5173H67.5602ZM85.7913 14.0614C85.156 14.0614 84.6606 14.2028 84.2373 14.4861C83.8133 14.7681 83.4599 15.1215 83.1773 15.6168C82.8946 16.0409 82.7533 16.5355 82.6112 17.1009C82.4706 17.6669 82.4706 18.1609 82.4706 18.727C82.4706 19.221 82.5413 19.787 82.6112 20.281C82.7533 20.847 82.8939 21.2704 83.1773 21.6944C83.4599 22.1191 83.7426 22.4724 84.1666 22.7544C84.5907 23.0371 85.0846 23.1791 85.7206 23.1791C86.6401 23.1791 87.3467 22.8964 87.9114 22.4011C88.4068 21.9071 88.7601 21.2004 88.8308 20.281H92.5762C92.2943 22.189 91.5876 23.6024 90.3848 24.5925C89.1841 25.5812 87.6294 26.0765 85.7206 26.0765C84.6606 26.0765 83.6712 25.8645 82.8232 25.5112C81.9038 25.1578 81.1971 24.6632 80.5618 24.0271C79.9265 23.3911 79.4304 22.6138 79.0771 21.7657C78.7237 20.847 78.5831 19.9276 78.5831 18.8676C78.5831 17.7369 78.7237 16.7475 79.0771 15.8289C79.4304 14.9102 79.8551 14.0621 80.4904 13.3554C81.1265 12.6488 81.9038 12.1541 82.7526 11.7301C83.6705 11.3767 84.6599 11.1647 85.7906 11.1647C86.6393 11.1647 87.4167 11.306 88.1934 11.518C88.97 11.7301 89.6774 12.0834 90.2427 12.5067C90.8788 12.9314 91.3735 13.4961 91.7268 14.2028C92.0801 14.8388 92.2929 15.6868 92.3628 16.6055H88.5467C88.4075 14.9094 87.4881 14.0614 85.7913 14.0614ZM20.7767 7.48919H28.6916V9.39725H20.7767V7.48919ZM98.4418 22.3297C99.0078 22.895 99.9258 23.1777 100.986 23.1777C101.764 23.1777 102.471 22.9657 103.035 22.6124C103.601 22.1876 103.955 21.7643 104.095 21.3396H107.488C106.922 23.0357 106.075 24.2377 104.943 25.0144C103.812 25.7211 102.47 26.1458 100.844 26.1458C99.7138 26.1458 98.7244 25.9331 97.805 25.5797C96.9352 25.2554 96.1587 24.7217 95.5443 24.0257C94.9083 23.3897 94.4136 22.6124 94.131 21.693C93.7776 20.7743 93.6363 19.7856 93.6363 18.6542C93.6363 17.5942 93.7776 16.6055 94.131 15.6861C94.4713 14.7998 94.9747 13.9851 95.615 13.2841C96.251 12.648 97.0284 12.0827 97.8764 11.7293C98.7951 11.376 99.7845 11.164 100.844 11.164C102.045 11.164 103.105 11.376 103.954 11.8707C104.872 12.3654 105.579 12.9307 106.145 13.7787C106.71 14.5561 107.134 15.4741 107.417 16.4642C107.699 17.4528 107.77 18.5129 107.699 19.6443H97.4517C97.4517 20.7043 97.8764 21.7643 98.4418 22.3297ZM102.965 14.9094C102.47 14.4148 101.692 14.1321 100.774 14.1321C100.138 14.1321 99.6424 14.2727 99.2184 14.4854C98.7944 14.6974 98.441 14.9794 98.2297 15.2628C98.0184 15.5462 97.805 15.8988 97.7351 16.2522C97.6651 16.6055 97.5944 16.8875 97.5944 17.1709H103.955C103.742 16.1108 103.389 15.4041 102.965 14.9094Z" fill="#146EF5"/>
</g>
<defs>
<clipPath id="clip0_1_3496">
<rect width="108" height="33" fill="white"/>
</clipPath>
</defs>
</svg>
