<svg width="32" height="30" viewBox="0 0 32 30" fill="none" xmlns="http://www.w3.org/2000/svg">
<path d="M10.9999 16L6 21V16H3.5C2.11931 16 1 14.8807 1 13.5V3.5C1 2.11931 2.11931 1 3.5 1H18.5C19.8807 1 21 2.11931 21 3.5V13.5C21 14.8807 19.8807 16 18.5 16H10.9999Z" stroke="#063D30" stroke-width="2" stroke-miterlimit="10" stroke-linecap="round" stroke-linejoin="round"/>
<path d="M13.25 21C13.25 22.3807 14.3693 23.5 15.75 23.5H20.7501L25.75 28.5V23.5H28C29.3807 23.5 30.5 22.3807 30.5 21V11C30.5 9.61929 29.3807 8.5 28 8.5H25.5" stroke="#063D30" stroke-width="2" stroke-miterlimit="10" stroke-linecap="round" stroke-linejoin="round"/>
</svg>
