<svg width="20" height="20" viewBox="0 0 20 20" fill="none" xmlns="http://www.w3.org/2000/svg">
<path d="M14.0306 6.96937C14.1004 7.03903 14.1557 7.12175 14.1934 7.21279C14.2312 7.30384 14.2506 7.40144 14.2506 7.5C14.2506 7.59856 14.2312 7.69616 14.1934 7.7872C14.1557 7.8783 14.1004 7.961 14.0306 8.0306L8.7806 13.2806C8.711 13.3504 8.6283 13.4057 8.5372 13.4434C8.4462 13.4812 8.3486 13.5006 8.25 13.5006C8.1514 13.5006 8.0538 13.4812 7.9628 13.4434C7.8718 13.4057 7.789 13.3504 7.71938 13.2806L5.46938 11.0306C5.32865 10.8899 5.24959 10.699 5.24959 10.5C5.24959 10.301 5.32865 10.1101 5.46938 9.9694C5.61011 9.8286 5.80098 9.7496 6 9.7496C6.19903 9.7496 6.3899 9.8286 6.53063 9.9694L8.25 11.6897L12.9694 6.96937C13.039 6.89964 13.1218 6.84432 13.2128 6.80658C13.3038 6.76884 13.4014 6.74941 13.5 6.74941C13.5986 6.74941 13.6962 6.76884 13.7872 6.80658C13.8783 6.84432 13.961 6.89964 14.0306 6.96937ZM19.5 9.75C19.5 11.6784 18.9282 13.5634 17.8568 15.1668C16.7855 16.7702 15.2627 18.0199 13.4812 18.7578C11.6996 19.4958 9.7392 19.6889 7.8479 19.3127C5.95656 18.9365 4.21928 18.0079 2.85571 16.6443C1.49215 15.2807 0.563551 13.5434 0.187351 11.6521C-0.188859 9.7608 0.00422132 7.8004 0.742181 6.01884C1.48013 4.23726 2.72982 2.71451 4.33319 1.64317C5.93657 0.57183 7.8216 0 9.75 0C12.335 0.00273 14.8134 1.03084 16.6413 2.85872C18.4692 4.68661 19.4973 7.16498 19.5 9.75ZM18 9.75C18 8.1183 17.5161 6.52325 16.6096 5.16655C15.7031 3.80984 14.4146 2.75242 12.9071 2.12799C11.3997 1.50357 9.7409 1.34019 8.1405 1.65852C6.54017 1.97685 5.07016 2.76259 3.91637 3.91637C2.76259 5.07015 1.97685 6.54016 1.65853 8.1405C1.3402 9.7408 1.50358 11.3996 2.128 12.9071C2.75242 14.4146 3.80984 15.7031 5.16655 16.6096C6.52326 17.5161 8.1183 18 9.75 18C11.9373 17.9975 14.0343 17.1275 15.5809 15.5809C17.1275 14.0343 17.9975 11.9373 18 9.75Z" fill="#063D30"/>
</svg>
