<svg width="72" height="20" viewBox="0 0 72 20" fill="none" xmlns="http://www.w3.org/2000/svg">
<path d="M18.7241 -0.166016H22.0369V19.569H18.7241V-0.166016Z" fill="white"/>
<path d="M33.5599 13.3145C33.5599 16.3721 30.9673 16.65 30.1031 16.65C28.0867 16.65 27.7986 14.8433 27.7986 13.8705V6.22656H24.4858V13.7315C24.4858 15.5382 25.062 17.206 26.2142 18.1788C27.2225 19.1517 28.5188 19.5686 30.1031 19.5686C31.2554 19.5686 32.6957 19.2906 33.5599 18.4568V19.5686H36.8726V6.22656H33.5599V13.3145Z" fill="white"/>
<path d="M43.3551 1.36328H40.0423V6.22751H37.5938V9.28511H40.0423V19.5695H43.3551V9.28511H45.8036V6.22751H43.3551V1.36328Z" fill="white"/>
<path d="M56.1707 15.5388C55.4505 16.0947 54.4423 16.5116 53.4341 16.5116C51.1295 16.5116 49.5452 14.8439 49.5452 12.6202C49.5452 10.3966 51.1295 8.86782 53.4341 8.86782C54.4423 8.86782 55.4505 9.14572 56.1707 9.84062L56.6028 10.2576L58.9073 8.17292L58.3312 7.75602C57.0349 6.64412 55.3065 5.94922 53.4341 5.94922C49.4012 5.94922 46.3765 8.86782 46.3765 12.7592C46.3765 16.6506 49.4012 19.5692 53.4341 19.5692C55.3065 19.5692 57.0349 18.8743 58.3312 17.7624L58.9073 17.3455L56.6028 15.1218L56.1707 15.5388Z" fill="white"/>
<path d="M70.5767 7.33888C69.5684 6.36598 68.5602 5.94908 66.9759 5.94908C65.8236 5.94908 64.6713 6.22698 63.8071 7.06088V-0.166016H60.4944V19.569H63.8071V12.2031C63.8071 9.14559 65.9676 8.86758 66.8318 8.86758C68.8483 8.86758 68.7042 10.6744 68.7042 11.6472V19.43H72.017V11.7862C72.017 9.97948 71.5849 8.31168 70.5767 7.33888Z" fill="white"/>
<path d="M53.2917 14.9825C54.5645 14.9825 55.5962 13.9869 55.5962 12.7588C55.5962 11.5307 54.5645 10.5352 53.2917 10.5352C52.019 10.5352 50.9872 11.5307 50.9872 12.7588C50.9872 13.9869 52.019 14.9825 53.2917 14.9825Z" fill="#EF4335"/>
<path d="M14.1152 14.7046C12.9629 15.8164 11.2345 16.5113 9.36212 16.5113C5.7613 16.5113 3.16872 13.7318 3.16872 9.9793C3.16872 6.2269 5.7613 3.44733 9.50615 3.44733C11.2345 3.44733 12.9629 4.1422 14.2592 5.393L14.6913 5.81L16.8518 3.72529L16.4197 3.30835C14.5473 1.50163 12.0987 0.528766 9.50615 0.528766C4.03291 0.389786 0 4.5592 0 9.9793C0 15.3995 4.03291 19.5689 9.36212 19.5689C11.9547 19.5689 14.5473 18.596 16.2757 16.7893L16.7078 16.3724L14.5473 14.2877L14.1152 14.7046Z" fill="white"/>
</svg>
