<svg width="24" height="24" viewBox="0 0 24 24" fill="none" xmlns="http://www.w3.org/2000/svg">
<path d="M12.2399 2.64001C10.3886 2.64001 8.57899 3.18897 7.03975 4.21746C5.50051 5.24594 4.30081 6.70778 3.59238 8.4181C2.88394 10.1284 2.69858 12.0104 3.05974 13.826C3.42089 15.6417 4.31235 17.3095 5.62137 18.6185C6.93039 19.9276 8.59818 20.8191 10.4139 21.1802C12.2295 21.5414 14.1115 21.356 15.8218 20.6475C17.5321 19.9391 18.994 18.7394 20.0224 17.2001C21.051 15.6609 21.5999 13.8513 21.5999 12C21.5973 9.51839 20.6103 7.13916 18.8555 5.38439C17.1007 3.62962 14.7215 2.64264 12.2399 2.64001ZM12.2399 19.92C10.6735 19.92 9.14221 19.4555 7.83977 18.5852C6.53733 17.715 5.52221 16.478 4.92276 15.0308C4.32332 13.5836 4.16648 11.9912 4.47207 10.4549C4.77766 8.91857 5.53197 7.50736 6.6396 6.39973C7.74724 5.2921 9.15845 4.53779 10.6948 4.23219C12.2311 3.9266 13.8236 4.08344 15.2707 4.68288C16.7179 5.28234 17.9549 6.29746 18.8251 7.5999C19.6953 8.90233 20.1599 10.4336 20.1599 12C20.1575 14.0998 19.3223 16.1129 17.8375 17.5977C16.3528 19.0824 14.3397 19.9176 12.2399 19.92ZM15.8399 13.8C15.8399 14.4684 15.5743 15.1094 15.1018 15.582C14.6292 16.0545 13.9882 16.32 13.3199 16.32H12.9599V17.04C12.9599 17.231 12.884 17.4141 12.749 17.5491C12.614 17.6842 12.4308 17.76 12.2399 17.76C12.0489 17.76 11.8658 17.6842 11.7308 17.5491C11.5957 17.4141 11.5199 17.231 11.5199 17.04V16.32H10.0799C9.88894 16.32 9.70577 16.2442 9.57077 16.1091C9.43574 15.9741 9.35988 15.791 9.35988 15.6C9.35988 15.4091 9.43574 15.2259 9.57077 15.0909C9.70577 14.9559 9.88894 14.88 10.0799 14.88H13.3199C13.6063 14.88 13.881 14.7663 14.0836 14.5637C14.2861 14.3611 14.3999 14.0865 14.3999 13.8C14.3999 13.5135 14.2861 13.2389 14.0836 13.0363C13.881 12.8338 13.6063 12.72 13.3199 12.72H11.1599C10.4915 12.72 9.85054 12.4545 9.37798 11.982C8.90539 11.5094 8.63988 10.8684 8.63988 10.2C8.63988 9.53167 8.90539 8.8907 9.37798 8.4181C9.85054 7.94551 10.4915 7.68001 11.1599 7.68001H11.5199V6.96001C11.5199 6.76906 11.5957 6.58592 11.7308 6.4509C11.8658 6.31587 12.0489 6.24001 12.2399 6.24001C12.4308 6.24001 12.614 6.31587 12.749 6.4509C12.884 6.58592 12.9599 6.76906 12.9599 6.96001V7.68001H14.3999C14.5908 7.68001 14.774 7.75587 14.909 7.8909C15.044 8.02592 15.1199 8.20906 15.1199 8.40001C15.1199 8.59097 15.044 8.77411 14.909 8.90913C14.774 9.04415 14.5908 9.12001 14.3999 9.12001H11.1599C10.8734 9.12001 10.5988 9.2338 10.3962 9.43633C10.1936 9.63888 10.0799 9.91358 10.0799 10.2C10.0799 10.4865 10.1936 10.7611 10.3962 10.9637C10.5988 11.1663 10.8734 11.28 11.1599 11.28H13.3199C13.9882 11.28 14.6292 11.5455 15.1018 12.0181C15.5743 12.4907 15.8399 13.1317 15.8399 13.8Z" fill="#FAFAFA"/>
</svg>
