<svg width="92" height="23" viewBox="0 0 92 23" fill="none" xmlns="http://www.w3.org/2000/svg">
<path d="M28.1156 8.99612C29.1756 8.99612 30.02 8.14132 30.02 7.10842C30.02 6.07542 29.1576 5.22062 28.1156 5.22062C27.0557 5.22062 26.2113 6.07542 26.2113 7.10842C26.2113 8.14132 27.0737 8.99612 28.1156 8.99612ZM91.03 15.443C90.7426 15.2471 90.509 15.2115 90.3294 15.6033C87.1315 22.4776 81.724 19.0404 82.2629 19.3432C83.4666 18.8089 86.6105 16.2978 86.1255 12.8429C85.838 10.7236 84.0056 9.79752 82.0653 10.1359C78.6699 10.7236 77.4303 14.3388 78.0591 17.5445C78.1669 18.0965 78.3645 18.5418 78.5621 18.987C74.7355 22.0679 73.2085 16.2266 73.0468 15.532C73.0468 15.4964 76.011 13.0388 76.8195 7.21522C77.6818 1.10673 75.7236 -0.0152401 73.7115 0.0203799C69.9927 0.0916099 68.9866 7.80292 70.334 14.2142C70.2262 14.2498 69.6873 14.5347 68.8429 14.5703C68.2321 12.6648 65.6271 11.0085 64.9444 11.6497C63.2377 13.2525 65.3576 16.3869 66.8487 16.6362C65.9505 22.1036 60.3633 20.7501 61.4053 13.8936C63.2198 10.5455 64.6211 5.54122 64.3695 2.53145C64.2797 1.46291 63.4892 0.0381901 61.6927 0.10942C58.2254 0.25189 57.8482 7.96322 58.2614 13.4306C58.2434 13.2881 58.0458 14.0895 56.6265 14.4991C56.2852 12.647 53.285 10.7948 52.5843 11.6853C51.2549 13.3593 53.5545 16.3156 54.6324 16.5293C53.7341 21.9967 48.1469 20.6432 49.1889 13.7867C51.0034 10.4386 52.4047 5.43432 52.1532 2.4246C52.0633 1.35605 51.2729 -0.06867 49.4763 0.00256999C46.009 0.14504 45.6318 7.85632 46.045 13.3237C46.027 13.1812 45.8294 14.0183 44.3562 14.4101C44.3023 12.0237 41.3021 10.9195 40.5835 11.6853C39.29 13.0388 40.871 15.8348 42.3441 16.5293C41.4459 21.9967 35.8587 20.6432 36.9007 13.7867C38.7151 10.4386 40.1164 5.43432 39.8649 2.4246C39.7751 1.35605 38.9846 -0.06867 37.1881 0.00256999C33.7208 0.14504 33.4513 8.23032 33.8466 13.7155C32.7147 18.5596 28.8881 24.5968 29.3732 12.4867C29.4271 11.6319 29.481 11.3113 29.0498 10.9907C28.7265 10.7414 28.0079 10.8661 27.6126 10.8661C27.1276 10.8839 27.0018 11.1688 26.894 11.5962C26.6425 12.6826 26.6066 13.7511 26.5706 15.1937C26.5527 15.8704 26.4988 16.191 26.2293 17.117C25.9598 18.0431 24.4687 19.735 23.6423 19.45C22.5105 19.0582 22.8698 15.8704 23.0854 13.6799C23.265 11.9524 22.6901 11.1688 21.2349 10.8839C20.3726 10.7058 19.8696 10.7414 18.9713 10.4565C18.127 10.1893 17.9473 8.62212 16.1508 9.13862C15.1627 9.42352 15.7915 11.4894 15.5579 13.021C14.3902 20.5364 11.9828 20.7501 10.869 17.0992C15.9172 4.86443 12.3242 0.0381902 10.2222 0.0381902C8.03047 0.0381902 5.5333 1.53415 6.59325 11.0798C6.07226 10.9373 5.92854 10.8483 5.35365 10.8483C2.1738 10.8483 0 13.3949 0 16.5471C0 19.6994 2.1738 22.246 5.35365 22.246C7.24 22.246 8.55147 21.3912 9.55752 20.0911C10.2043 21.0172 10.9947 22.2639 12.4499 22.2104C16.7796 22.0501 18.0371 13.2525 18.1808 12.7538C18.6479 12.8251 19.0791 12.9497 19.5103 13.021C20.2289 13.1278 20.2648 13.4128 20.2648 14.1073C20.0852 20.0911 21.199 22.1926 23.7141 22.1926C25.1154 22.1926 26.373 20.8213 27.2353 19.8418C27.8821 21.1597 28.9061 22.157 30.2894 22.1926C33.631 22.2817 34.9065 16.9924 34.7987 17.6869C34.7089 18.239 35.8766 22.157 39.326 22.1748C43.5837 22.1926 44.3922 17.5445 44.482 16.7609C44.5 16.6006 44.5 16.6184 44.482 16.7609C44.482 16.7787 44.482 16.7965 44.482 16.8143C45.8294 16.565 46.53 15.8526 46.53 15.8526C46.53 15.8526 47.6259 22.2638 51.6501 22.1926C55.836 22.1214 56.6265 17.9184 56.7163 17.0992C56.7343 16.9033 56.7343 16.9211 56.7163 17.0992V17.117C58.3332 16.5293 58.7464 15.9594 58.7464 15.9594C58.7464 15.9594 59.6087 22.246 63.8665 22.2995C67.6572 22.3529 69.0585 18.5061 69.0585 16.8855C69.7052 16.8855 70.873 16.5115 70.855 16.4937C70.855 16.4937 72.2383 21.9789 76.1188 22.2638C77.9333 22.3885 79.2987 21.2487 80.0891 20.7323C81.9216 22.1926 88.0118 24.0804 91.8564 17.6157C92.3954 16.6896 91.2276 15.6033 91.03 15.443ZM5.20993 20.1446C3.3595 20.1446 2.15583 18.4349 2.15583 16.6006C2.15583 14.7662 3.25171 13.0566 5.10214 13.0566C5.9465 13.0566 6.39563 13.1456 7.06035 13.7155C7.18611 14.1785 7.50948 15.2471 7.67117 15.7279C7.88675 16.3691 8.15623 16.9211 8.40774 17.5266C8.04844 19.0582 6.8268 20.1446 5.20993 20.1446ZM9.73717 13.7689C9.66531 13.6443 9.68328 13.7155 9.59345 13.6087C9.25211 12.6826 8.60536 10.6345 8.51554 8.31942C8.42571 5.68362 8.87484 2.60269 10.1863 2.60269C11.0666 2.60269 12.0008 8.85362 9.73717 13.7689ZM35.8946 11.0263C35.679 9.45912 35.679 2.49583 37.3678 2.69173C38.284 3.06572 36.7749 9.63722 35.8946 11.0263ZM48.2008 11.0263C47.9852 9.45912 47.9852 2.49583 49.674 2.69173C50.6082 3.06572 49.0811 9.63722 48.2008 11.0263ZM60.4352 11.1332C60.2196 9.56602 60.2196 2.60269 61.9083 2.79859C62.8245 3.17258 61.2975 9.74412 60.4352 11.1332ZM73.9271 2.28213C75.4721 2.12185 75.4002 8.80022 72.3102 13.021C71.897 11.4894 71.2862 2.8164 73.9271 2.28213ZM80.3946 16.654C79.8915 14.1785 81.185 12.5401 82.4965 12.362C82.9636 12.2908 83.6283 12.5935 83.7541 13.1456C83.9697 14.1964 83.7181 15.7279 80.7718 17.7047C80.7898 17.7047 80.5023 17.2061 80.3946 16.654Z" fill="#EA4C89"/>
</svg>
