<svg width="23" height="23" viewBox="0 0 23 23" fill="none" xmlns="http://www.w3.org/2000/svg">
<path d="M11.375 0C9.1252 0 6.926 0.66713 5.05539 1.91703C3.18478 3.16693 1.72682 4.94346 0.865878 7.02197C0.00492835 9.10049 -0.220332 11.3876 0.218568 13.5942C0.657478 15.8007 1.74084 17.8275 3.33167 19.4183C4.92249 21.0092 6.94932 22.0925 9.1559 22.5314C11.3624 22.9703 13.6495 22.7451 15.728 21.8841C17.8065 21.0232 19.5831 19.5652 20.833 17.6946C22.0829 15.824 22.75 13.6248 22.75 11.375C22.7468 8.35909 21.5474 5.46771 19.4148 3.33518C17.2823 1.20264 14.3909 0.00318 11.375 0ZM12.25 20.9595V14H14.875C15.1071 14 15.3296 13.9078 15.4937 13.7437C15.6578 13.5796 15.75 13.3571 15.75 13.125C15.75 12.8929 15.6578 12.6704 15.4937 12.5063C15.3296 12.3422 15.1071 12.25 14.875 12.25H12.25V9.62499C12.25 9.16089 12.4344 8.71579 12.7626 8.38759C13.0908 8.05939 13.5359 7.87499 14 7.87499H15.75C15.9821 7.87499 16.2046 7.78279 16.3687 7.61869C16.5328 7.45459 16.625 7.23209 16.625 7C16.625 6.76793 16.5328 6.54537 16.3687 6.38128C16.2046 6.21719 15.9821 6.125 15.75 6.125H14C13.0717 6.125 12.1815 6.49375 11.5251 7.15012C10.8688 7.80649 10.5 8.69669 10.5 9.62499V12.25H7.875C7.6429 12.25 7.4204 12.3422 7.25629 12.5063C7.09219 12.6704 7 12.8929 7 13.125C7 13.3571 7.09219 13.5796 7.25629 13.7437C7.4204 13.9078 7.6429 14 7.875 14H10.5V20.9595C8.0334 20.7344 5.7485 19.567 4.12064 17.7001C2.49278 15.8333 1.64727 13.4108 1.75997 10.9364C1.87268 8.46209 2.93492 6.12648 4.72574 4.41536C6.51657 2.70425 8.8981 1.74938 11.375 1.74938C13.8519 1.74938 16.2334 2.70425 18.0243 4.41536C19.8151 6.12648 20.8773 8.46209 20.99 10.9364C21.1027 13.4108 20.2572 15.8333 18.6294 17.7001C17.0015 19.567 14.7166 20.7344 12.25 20.9595Z" fill="#0A0A0A"/>
</svg>
