<svg width="100" height="30" viewBox="0 0 100 30" fill="none" xmlns="http://www.w3.org/2000/svg">
<path fill-rule="evenodd" clip-rule="evenodd" d="M10.8844 10.6667H21.7688V0H0.217773V0.108844L10.8844 10.6667Z" fill="#67DBFF"/>
<path fill-rule="evenodd" clip-rule="evenodd" d="M10.8844 10.666H0V21.3326H21.551V21.2238L10.8844 10.666Z" fill="#01A3FF"/>
<path fill-rule="evenodd" clip-rule="evenodd" d="M0.108887 21.2246H10.8844V32.0001L0.108887 21.2246Z" fill="#0162FF"/>
<path d="M36.5715 21.2239V15.3463H42.9933V12.6252H36.5715V8.70688H43.5375V5.87695H33.415V21.115H36.5715V21.2239Z" fill="white"/>
<path d="M51.5918 10.122C51.3741 10.0131 50.9387 9.9043 50.3945 9.9043C49.3061 9.9043 48.4353 10.4485 47.8911 11.2104V10.122H44.8435V21.224H47.8911V14.3669C48.1088 13.3873 48.9796 12.8431 49.9591 12.8431C50.5034 12.8431 51.0476 12.9519 51.483 13.1696V10.122H51.5918Z" fill="white"/>
<path d="M61.8231 21.224V14.1492C61.8231 11.5369 60.0816 9.9043 57.1428 9.9043C54.6394 9.9043 52.7891 11.4281 52.4625 13.4961H55.4013C55.619 12.8431 56.1632 12.4077 57.0339 12.4077C58.2312 12.4077 58.8843 13.1696 58.8843 14.1492V14.9111C58.4489 14.5846 57.3605 14.258 56.3809 14.258C53.9863 14.258 52.136 15.673 52.136 17.8499C52.136 20.1356 53.9863 21.4417 56.272 21.4417C57.4693 21.4417 58.5578 21.0063 58.9931 20.6798V21.224H61.8231ZM58.8843 18.1764C58.5578 18.7206 57.7959 19.156 56.9251 19.156C55.9455 19.156 54.9659 18.7206 54.9659 17.741C54.9659 16.7614 55.9455 16.3261 56.9251 16.3261C57.7959 16.3261 58.6666 16.6526 58.8843 17.3057V18.1764Z" fill="white"/>
<path d="M72.7074 11.3193C72.0544 10.4485 71.0748 9.9043 69.7687 9.9043C68.5714 9.9043 67.4829 10.3397 66.9387 11.1016V10.2308H63.8911V21.3329H66.9387V14.1492C67.1564 13.1696 67.9183 12.7342 68.6802 12.7342C69.7687 12.7342 70.204 13.4961 70.204 14.6934V21.3329H73.2517V14.1492C73.4693 13.1696 74.1224 12.7342 74.9932 12.7342C76.0816 12.7342 76.6258 13.4961 76.6258 14.6934V21.3329H79.6734V14.0403C79.6734 11.5369 78.2585 9.9043 75.9727 9.9043C74.5578 9.9043 73.4693 10.5574 72.7074 11.3193Z" fill="white"/>
<path d="M88.4897 17.6322C88.2721 18.6118 87.5102 19.0471 86.4217 19.0471C85.0067 19.0471 84.136 18.0676 84.0272 16.4349H91.4285V15.4553C91.4285 12.19 89.687 9.9043 86.4217 9.9043C83.3741 9.9043 81.0884 12.4077 81.0884 15.673C81.0884 19.0472 83.2653 21.4417 86.4217 21.4417C89.2516 21.4417 90.8843 19.9179 91.3197 17.5233H88.4897V17.6322ZM86.4217 12.4077C87.7278 12.4077 88.3809 13.2784 88.3809 14.4757H84.136C84.4625 13.1696 85.2244 12.4077 86.4217 12.4077Z" fill="white"/>
<path d="M99.5918 10.122C99.3741 10.0131 98.9387 9.9043 98.3945 9.9043C97.3061 9.9043 96.4353 10.4485 95.8911 11.2104V10.122H92.8435V21.224H95.8911V14.3669C96.1088 13.3873 96.9796 12.8431 97.9591 12.8431C98.5034 12.8431 99.0476 12.9519 99.483 13.1696V10.122H99.5918Z" fill="white"/>
</svg>
