<svg width="90" height="29" viewBox="0 0 90 29" fill="none" xmlns="http://www.w3.org/2000/svg">
<g clip-path="url(#clip0_1_3539)">
<path d="M38.6106 14.8816C38.6106 18.91 35.3256 21.8785 31.2941 21.8785C27.2626 21.8785 23.9775 18.91 23.9775 14.8816C23.9775 10.8249 27.2626 7.88477 31.2941 7.88477C35.3256 7.88477 38.6106 10.8249 38.6106 14.8816ZM35.4078 14.8816C35.4078 12.3643 33.5039 10.6419 31.2941 10.6419C29.0843 10.6419 27.1804 12.3643 27.1804 14.8816C27.1804 17.3737 29.0843 19.1214 31.2941 19.1214C33.5039 19.1214 35.4078 17.3706 35.4078 14.8816Z" fill="#EA4335"/>
<path d="M54.3945 14.8816C54.3945 18.91 51.1094 21.8785 47.0779 21.8785C43.0464 21.8785 39.7614 18.91 39.7614 14.8816C39.7614 10.828 43.0464 7.88477 47.0779 7.88477C51.1094 7.88477 54.3945 10.8249 54.3945 14.8816ZM51.1916 14.8816C51.1916 12.3643 49.2877 10.6419 47.0779 10.6419C44.8681 10.6419 42.9642 12.3643 42.9642 14.8816C42.9642 17.3737 44.8681 19.1214 47.0779 19.1214C49.2877 19.1214 51.1916 17.3706 51.1916 14.8816Z" fill="#FBBC05"/>
<path d="M69.5207 8.30748V20.869C69.5207 26.0362 66.3442 28.1466 62.5889 28.1466C59.0539 28.1466 56.9264 25.8785 56.124 24.0236L58.9125 22.91C59.4091 24.0488 60.6258 25.3927 62.5856 25.3927C64.9894 25.3927 66.479 23.97 66.479 21.2917V20.2854H66.3672C65.6503 21.134 64.2692 21.8753 62.5264 21.8753C58.8796 21.8753 55.5387 18.828 55.5387 14.9069C55.5387 10.9573 58.8796 7.88477 62.5264 7.88477C64.2659 7.88477 65.6471 8.62609 66.3672 9.44944H66.479V8.31064H69.5207V8.30748ZM66.7059 14.9069C66.7059 12.4431 64.9927 10.6419 62.8125 10.6419C60.6027 10.6419 58.7514 12.4431 58.7514 14.9069C58.7514 17.3454 60.6027 19.1214 62.8125 19.1214C64.9927 19.1214 66.7059 17.3454 66.7059 14.9069Z" fill="#4285F4"/>
<path d="M74.5354 0.943359V21.4481H71.4115V0.943359H74.5354Z" fill="#34A853"/>
<path d="M86.7092 17.1837L89.1952 18.7736C88.3929 19.9124 86.4593 21.8745 83.1184 21.8745C78.9751 21.8745 75.8807 18.8019 75.8807 14.8777C75.8807 10.7168 79.0014 7.88086 82.7599 7.88086C86.5448 7.88086 88.3962 10.7704 89.0012 12.3319L89.3333 13.1269L79.5834 17.0007C80.3299 18.4045 81.4906 19.1206 83.1184 19.1206C84.7494 19.1206 85.8806 18.3508 86.7092 17.1837ZM79.0573 14.6663L85.5748 12.0701C85.2163 11.1963 84.1378 10.5874 82.8685 10.5874C81.2407 10.5874 78.9751 11.966 79.0573 14.6663Z" fill="#EA4335"/>
<path d="M12.1528 13.0613V10.0929H22.5801C22.6821 10.6102 22.7347 11.2222 22.7347 11.8847C22.7347 14.1118 22.1 16.8657 20.0547 18.8279C18.0652 20.8153 15.5233 21.8752 12.1561 21.8752C5.91481 21.8752 0.666626 16.9982 0.666626 11.0109C0.666626 5.02346 5.91481 0.146484 12.1561 0.146484C15.6088 0.146484 18.0685 1.44617 19.9166 3.14018L17.7331 5.23481C16.4079 4.04239 14.6125 3.11494 12.1528 3.11494C7.59516 3.11494 4.0306 6.6386 4.0306 11.0109C4.0306 15.3831 7.59516 18.9068 12.1528 18.9068C15.109 18.9068 16.7926 17.768 17.8712 16.7333C18.7459 15.8941 19.3214 14.6954 19.5483 13.0582L12.1528 13.0613Z" fill="#4285F4"/>
</g>
<defs>
<clipPath id="clip0_1_3539">
<rect width="90" height="29" fill="white"/>
</clipPath>
</defs>
</svg>
