<svg width="23" height="23" viewBox="0 0 23 23" fill="none" xmlns="http://www.w3.org/2000/svg">
<path d="M21 0H1.75C1.28587 0 0.84075 0.18437 0.51256 0.51256C0.18437 0.84075 0 1.28587 0 1.75V21C0 21.4641 0.18437 21.9093 0.51256 22.2374C0.84075 22.5656 1.28587 22.75 1.75 22.75H21C21.4641 22.75 21.9092 22.5656 22.2374 22.2374C22.5656 21.9093 22.75 21.4641 22.75 21V1.75C22.75 1.28587 22.5656 0.84075 22.2374 0.51256C21.9092 0.18437 21.4641 0 21 0ZM21 21H1.75V1.75H21V21ZM7.875 9.62499V16.625C7.875 16.8571 7.7828 17.0796 7.6187 17.2437C7.4546 17.4078 7.23206 17.5 7 17.5C6.76794 17.5 6.54538 17.4078 6.38128 17.2437C6.21719 17.0796 6.125 16.8571 6.125 16.625V9.62499C6.125 9.39289 6.21719 9.17039 6.38128 9.00629C6.54538 8.84219 6.76794 8.74999 7 8.74999C7.23206 8.74999 7.4546 8.84219 7.6187 9.00629C7.7828 9.17039 7.875 9.39289 7.875 9.62499ZM17.5 12.6875V16.625C17.5 16.8571 17.4078 17.0796 17.2437 17.2437C17.0796 17.4078 16.8571 17.5 16.625 17.5C16.3929 17.5 16.1704 17.4078 16.0063 17.2437C15.8422 17.0796 15.75 16.8571 15.75 16.625V12.6875C15.75 12.1073 15.5195 11.5509 15.1093 11.1407C14.6991 10.7305 14.1427 10.5 13.5625 10.5C12.9823 10.5 12.4259 10.7305 12.0157 11.1407C11.6055 11.5509 11.375 12.1073 11.375 12.6875V16.625C11.375 16.8571 11.2828 17.0796 11.1187 17.2437C10.9546 17.4078 10.7321 17.5 10.5 17.5C10.2679 17.5 10.0454 17.4078 9.8813 17.2437C9.7172 17.0796 9.625 16.8571 9.625 16.625V9.62499C9.6261 9.41069 9.7058 9.20419 9.849 9.04479C9.9922 8.88529 10.189 8.78399 10.402 8.75989C10.615 8.73589 10.8293 8.79089 11.0045 8.91449C11.1796 9.03809 11.3033 9.22159 11.352 9.43029C11.944 9.02879 12.6341 8.79609 13.3483 8.75709C14.0625 8.71819 14.7738 8.87459 15.4059 9.20939C16.0379 9.54429 16.5668 10.045 16.9357 10.6578C17.3047 11.2705 17.4998 11.9722 17.5 12.6875ZM8.3125 6.5625C8.3125 6.82209 8.2355 7.07584 8.0913 7.29169C7.9471 7.50749 7.7421 7.67579 7.5023 7.77509C7.26244 7.87439 6.99854 7.90039 6.74394 7.84979C6.48934 7.79909 6.25548 7.67409 6.07192 7.49059C5.88837 7.30699 5.76336 7.07315 5.71272 6.81855C5.66208 6.56395 5.68807 6.30005 5.78741 6.06023C5.88675 5.8204 6.05498 5.61541 6.27081 5.47119C6.48665 5.32697 6.74041 5.25 7 5.25C7.3481 5.25 7.6819 5.38828 7.9281 5.63442C8.1742 5.88056 8.3125 6.2144 8.3125 6.5625Z" fill="#0A0A0A"/>
</svg>
