<svg width="98" height="18" viewBox="0 0 98 18" fill="none" xmlns="http://www.w3.org/2000/svg">
<path d="M14.8203 1.44137L13.9687 5.39412L8.05547 5.49733L7.73308 7.03208L13.1599 6.93736L12.3086 10.9005L6.88168 10.9952L5.55083 17.1972L0.272298 17.2894L3.61794 1.63677L14.8203 1.44137ZM21.7729 1.32001L18.4168 16.9728L13.096 17.0657L16.4522 1.41289L21.7729 1.32001ZM29.579 16.757L24.2794 16.8495L26.7529 5.18121L22.585 5.25396L23.4259 1.29102L37.0402 1.05338L36.1994 5.01632L32.0527 5.0887L29.579 16.757ZM34.8825 16.7273L38.2387 1.07457L43.8665 0.976331L45.1066 6.54743C46.333 4.6723 47.5271 2.7663 48.7642 0.890842L54.3811 0.792798L51.025 16.4456L45.7358 16.5379L46.9884 10.7034C46.4735 11.5084 45.9692 12.3235 45.4757 13.1491L41.731 13.2144L41.2335 10.7829L39.9707 16.6385L34.8825 16.7273ZM57.6173 16.3096L52.2753 16.4028L60.8037 0.628061L66.0822 0.535924L67.8569 16.1309L62.4301 16.2256L62.167 13.2768L59.1627 13.3292C58.619 14.3126 58.1504 15.3262 57.6173 16.3096ZM60.4953 9.65099L61.9657 9.62533L61.9432 5.90775L60.4953 9.65099ZM76.8929 15.9312L71.5931 16.0237L74.0666 4.35535L69.8987 4.4281L70.7396 0.465156L84.3538 0.227518L83.5131 4.19046L79.3664 4.26284L76.8929 15.9312ZM93.4293 15.6634L82.1319 15.8606L85.4882 0.207859L96.7854 0.0106646L95.9338 3.96341L89.9253 4.06829L89.6418 5.40336L95.1742 5.30679L94.3333 9.25935L88.8007 9.35592L88.2721 11.8053L94.2806 11.7005L93.4293 15.6634Z" fill="white"/>
</svg>
