<svg width="133" height="24" viewBox="0 0 133 24" fill="none" xmlns="http://www.w3.org/2000/svg">
<path d="M3.0512 5.25368C-0.877481 9.32187 -0.764328 15.8044 3.30394 19.733C5.30351 21.664 7.88481 22.6174 10.4597 22.6077C10.3972 21.5031 10.5177 20.389 10.8212 19.3156C8.94592 19.4242 7.03358 18.7805 5.57963 17.3765C2.81731 14.7089 2.74101 10.2917 5.40775 7.52927C8.0753 4.76699 12.4926 4.68989 15.2548 7.35739C16.7089 8.76156 17.4189 10.651 17.3757 12.5281C18.4379 12.1873 19.5472 12.0281 20.6533 12.0519C20.5731 9.47759 19.5302 6.93099 17.5305 5.00094C13.4623 1.0722 6.97987 1.18535 3.0512 5.25368Z" fill="white"/>
<path fill-rule="evenodd" clip-rule="evenodd" d="M17.7844 19.4799C18.9325 18.2911 19.7356 16.8949 20.195 15.4173C18.4472 15.1338 16.5933 15.6818 15.2701 17.0519C13.9469 18.4221 13.4639 20.294 13.8084 22.0309C15.2689 21.5201 16.6364 20.6688 17.7844 19.4799Z" fill="white"/>
<path d="M10.4823 16.052C12.518 16.0165 14.1395 14.3374 14.1039 12.3017C14.0684 10.2659 12.3893 8.6445 10.3536 8.68004C8.3179 8.71557 6.69644 10.3946 6.73197 12.4304C6.76751 14.4661 8.44658 16.0875 10.4823 16.052Z" fill="#CFCFCF"/>
<path d="M34.3136 19.479C33.3886 19.4952 32.5315 19.3471 31.7426 19.0342C30.9537 18.7222 30.2663 18.2735 29.6806 17.6901C29.0948 17.1068 28.635 16.4124 28.3002 15.6047C27.9653 14.7982 27.79 13.9138 27.7732 12.9528C27.7565 11.9918 27.898 11.111 28.1988 10.3113C28.4996 9.51165 28.9321 8.81251 29.4972 8.21504C30.0624 7.61757 30.7338 7.15522 31.5116 6.82686C32.2893 6.49849 33.1466 6.32663 34.0837 6.31028C35.1397 6.29184 36.0953 6.48 36.9505 6.87487C37.8058 7.26961 38.5102 7.83297 39.0626 8.5647C39.6149 9.29658 39.9597 10.16 40.096 11.1549L37.4268 11.2014C37.257 10.2911 36.8703 9.60636 36.2698 9.14815C35.6682 8.68996 34.9588 8.46749 34.1395 8.48179C33.4163 8.49442 32.781 8.67734 32.2355 9.03166C31.6901 9.38598 31.2681 9.88792 30.9709 10.5398C30.6734 11.1914 30.5332 11.9744 30.5491 12.8875C30.5651 13.8005 30.736 14.6079 31.0624 15.2727C31.3888 15.9376 31.8334 16.4465 32.3971 16.7983C32.9609 17.1502 33.6044 17.3199 34.3286 17.3073C35.0999 17.2938 35.7781 17.0501 36.3634 16.5772C36.9488 16.1044 37.3224 15.4093 37.4842 14.4931L40.1894 14.4459C40.0531 15.4455 39.7176 16.3208 39.1851 17.0716C38.6525 17.8224 37.9683 18.4069 37.1331 18.8252C36.298 19.2436 35.3565 19.4608 34.3136 19.479Z" fill="white"/>
<path d="M40.5744 19.1929L40.3508 6.38096L46.4367 6.27473C47.3857 6.25816 48.2037 6.41073 48.8919 6.73058C49.58 7.05127 50.1155 7.50465 50.4996 8.09053C50.8835 8.67742 51.0825 9.36838 51.0963 10.1626C51.1102 10.9568 50.9326 11.6604 50.5635 12.2724C50.1945 12.8845 49.6712 13.3652 48.9958 13.7148C48.3194 14.0643 47.5121 14.2484 46.5752 14.2647L42.6601 14.333L42.6234 12.2332L46.3956 12.1673C47.024 12.1564 47.5104 11.9729 47.8549 11.6173C48.1985 11.2615 48.3652 10.7978 48.3553 10.2285C48.3454 9.65896 48.1626 9.20555 47.8069 8.86696C47.4513 8.52936 46.9588 8.36513 46.3294 8.37612L43.1266 8.43202L43.3136 19.1451L40.5744 19.1929Z" fill="white"/>
<path d="M58.1233 19.0634C56.7358 19.0877 55.5382 18.8357 54.5327 18.3076C53.5271 17.7795 52.7446 17.0278 52.1879 16.0522C51.6303 15.0766 51.3405 13.9305 51.3175 12.6138C51.2945 11.2972 51.5474 10.1565 52.0756 9.15603C52.6037 8.15651 53.3464 7.36903 54.3037 6.79373C55.261 6.21942 56.38 5.92109 57.6617 5.89872C58.7177 5.88028 59.6669 6.05361 60.5098 6.41869C61.3526 6.78363 62.038 7.29128 62.5659 7.94066C63.0939 8.59003 63.4118 9.34691 63.5219 10.2114L60.7817 10.2592C60.6506 9.56096 60.3122 9.01823 59.7649 8.63007C59.2175 8.24191 58.5417 8.05485 57.7346 8.06894C56.9873 8.08198 56.3379 8.26814 55.7866 8.62754C55.2353 8.98694 54.8105 9.49605 54.5143 10.1537C54.217 10.8115 54.0768 11.5973 54.0927 12.5103C54.1086 13.4236 54.2773 14.267 54.5977 14.9309C54.918 15.5959 55.3805 16.0984 55.986 16.4375C56.5914 16.7767 57.3328 16.9387 58.2109 16.9234C58.9222 16.911 59.526 16.8114 60.0214 16.625C60.5167 16.4384 60.892 16.182 61.1471 15.8578L63.7636 16.8444C63.0873 17.5447 62.2993 18.0832 61.3975 18.4606C60.4967 18.8381 59.4049 19.0381 58.1233 19.0605L58.1233 19.0634ZM61.0224 16.8943L60.9609 13.3708L61.522 13.9126L58.1413 13.9716L58.1046 11.8718L63.6741 11.7746L63.7626 16.8464L61.0224 16.8943Z" fill="white"/>
<path d="M73.3014 18.7816C71.6401 18.8106 70.3049 18.4631 69.296 17.7392C68.2861 17.0154 67.6863 15.9785 67.4969 14.6288L70.1303 14.5829C70.2252 15.2698 70.5673 15.8063 71.1557 16.1938C71.7441 16.5812 72.4887 16.7671 73.3908 16.7513C74.1262 16.7385 74.6903 16.5988 75.0833 16.3301C75.4763 16.0625 75.669 15.7093 75.6614 15.2698C75.6541 14.8541 75.5294 14.5216 75.2882 14.2711C75.046 14.0204 74.6339 13.8228 74.0497 13.678L71.6536 13.0614C70.4259 12.7391 69.5245 12.2831 68.9506 11.6936C68.3768 11.104 68.082 10.3587 68.0662 9.45756C68.0528 8.68641 68.2399 8.01559 68.6277 7.44511C69.0154 6.87477 69.5683 6.43142 70.2862 6.11719C71.0043 5.80182 71.8498 5.63614 72.8229 5.61916C74.3172 5.59307 75.5162 5.92491 76.4177 6.6157C77.32 7.30647 77.8399 8.23166 77.9791 9.3925L75.3458 9.43846C75.2159 8.81215 74.9201 8.3546 74.4584 8.06594C73.9966 7.77713 73.4096 7.63945 72.6975 7.65188C72.08 7.66265 71.5895 7.79013 71.2271 8.0333C70.8636 8.27747 70.6853 8.60049 70.6924 9.00405C70.6978 9.31277 70.8036 9.59271 71.0099 9.84387C71.2161 10.095 71.6405 10.3045 72.2849 10.4711L74.681 11.0879C75.9448 11.4106 76.8571 11.8664 77.42 12.4551C77.9818 13.0448 78.2707 13.7963 78.2867 14.7093C78.309 15.991 77.8817 16.9828 77.0037 17.6867C76.1255 18.3905 74.8918 18.7558 73.3024 18.7836L73.3014 18.7816Z" fill="white"/>
<path d="M81.6945 18.2957L78.0518 9.45849L80.9349 9.40816L83.9416 17.473L81.6945 18.2957ZM79.8403 22.1553L82.2528 16.5591L82.7021 15.7858L84.9388 9.33827L87.786 9.28858L82.5096 22.1077L79.8403 22.1553Z" fill="white"/>
<path d="M88.1198 18.3606L87.9614 9.28478L90.5778 9.23911L90.6151 11.375L90.6681 11.374L90.7892 18.314L88.1198 18.3606ZM94.4375 18.2503L94.3394 12.627C94.3307 12.1286 94.1963 11.7571 93.9371 11.5128C93.6781 11.2686 93.3042 11.1501 92.8188 11.1586C92.4032 11.1658 92.0342 11.2673 91.7119 11.4628C91.3885 11.6582 91.1383 11.9234 90.9604 12.2592C90.7823 12.5952 90.6973 12.9884 90.7051 13.4389L90.4351 11.2542C90.7202 10.5847 91.1465 10.0467 91.715 9.63902C92.2834 9.23139 92.9883 9.02023 93.8315 9.00551C94.8394 8.98791 95.6156 9.25615 96.1599 9.81022C96.7031 10.3643 96.9841 11.1159 97.0006 12.0649L97.1078 18.2047L94.4375 18.2503Z" fill="white"/>
<path d="M102.288 18.2932C101.28 18.3108 100.398 18.1273 99.6441 17.7428C98.8899 17.3581 98.3017 16.8138 97.8797 16.1088C97.4578 15.4046 97.2386 14.589 97.2224 13.664C97.2063 12.7388 97.3966 11.9021 97.7939 11.1886C98.1911 10.4763 98.7539 9.91386 99.4822 9.50344C100.211 9.09301 101.061 8.8793 102.034 8.86232C103.007 8.84533 103.788 9.02147 104.482 9.38914C105.177 9.75666 105.719 10.2749 106.111 10.9446C106.502 11.6143 106.706 12.4061 106.722 13.3192C106.725 13.5091 106.722 13.6839 106.713 13.844C106.704 14.004 106.688 14.1562 106.668 14.2985L98.8029 14.4358L98.7721 12.6735L104.484 12.5738L104.027 12.9025C104.015 12.1674 103.83 11.6279 103.474 11.2833C103.119 10.9398 102.638 10.7734 102.033 10.7839C101.332 10.7961 100.794 11.0434 100.417 11.5246C100.04 12.0059 99.8591 12.7215 99.8757 13.6706C99.8922 14.6196 100.097 15.2806 100.49 15.7244C100.884 16.1681 101.466 16.3839 102.237 16.3704C102.664 16.3629 103.03 16.2856 103.336 16.1374C103.643 15.9901 103.869 15.7543 104.019 15.4309L106.528 15.3871C106.247 16.2704 105.751 16.9706 105.043 17.4865C104.333 18.0036 103.416 18.2715 102.289 18.2912L102.288 18.2932Z" fill="white"/>
<path d="M107.054 18.0311L106.895 8.95533L109.512 8.90966L109.549 11.0455L109.602 11.0446L109.723 17.9845L107.054 18.0311ZM109.641 13.2514L109.371 11.1025C109.571 10.3276 109.911 9.73411 110.39 9.32205C110.87 8.91 111.471 8.69766 112.195 8.68502C112.42 8.6811 112.587 8.70208 112.695 8.74714L112.738 11.2386C112.678 11.2158 112.596 11.2031 112.489 11.198C112.382 11.1939 112.251 11.1932 112.097 11.1959C111.243 11.2108 110.616 11.3727 110.219 11.6823C109.82 11.9921 109.628 12.5151 109.641 13.2514Z" fill="white"/>
<path d="M117.779 21.6703C116.522 21.6922 115.494 21.4433 114.695 20.9225C113.897 20.4029 113.419 19.6868 113.261 18.7762L115.787 18.7321C115.886 18.9552 116.094 19.1245 116.411 19.2379C116.726 19.3513 117.128 19.4032 117.615 19.3947C118.421 19.3806 119.006 19.2165 119.368 18.9014C119.73 18.5864 119.905 18.1027 119.894 17.4502L119.86 15.4752L120.002 15.5087C119.895 16.1752 119.56 16.7066 118.998 17.1012C118.435 17.4968 117.732 17.7018 116.89 17.7165C116.048 17.7312 115.377 17.5561 114.771 17.1929C114.165 16.8298 113.691 16.3125 113.347 15.6429C113.003 14.9724 112.823 14.181 112.807 13.2669C112.791 12.3529 112.949 11.5318 113.281 10.8374C113.613 10.1431 114.087 9.60116 114.704 9.21075C115.319 8.82021 116.044 8.61782 116.874 8.60333C117.704 8.58884 118.428 8.77805 118.975 9.17218C119.522 9.56633 119.849 10.1122 119.956 10.8109L119.831 10.831L119.795 8.73114L122.411 8.68547L122.563 17.3697C122.585 18.6744 122.17 19.7109 121.318 20.4802C120.465 21.2486 119.285 21.646 117.778 21.6723L117.779 21.6703ZM117.781 15.6535C118.409 15.6425 118.916 15.4167 119.3 14.9773C119.684 14.5379 119.869 13.9142 119.855 13.1079C119.841 12.3018 119.632 11.6848 119.226 11.2584C118.821 10.8327 118.299 10.6249 117.658 10.6361C117.016 10.6473 116.538 10.8756 116.148 11.3211C115.758 11.7675 115.57 12.3934 115.584 13.1996C115.598 14.0057 115.807 14.6197 116.213 15.0403C116.618 15.4608 117.14 15.6647 117.781 15.6535Z" fill="white"/>
<path d="M126.233 17.5183L122.59 8.68108L125.473 8.63076L128.48 16.6956L126.233 17.5183ZM124.378 21.3779L126.79 15.7817L127.24 15.0084L129.476 8.56089L132.323 8.51119L127.047 21.3303L124.378 21.3779Z" fill="white"/>
</svg>
