<svg width="115" height="66" viewBox="0 0 115 66" fill="none" xmlns="http://www.w3.org/2000/svg">
<mask id="mask0_1_1868" style="mask-type:luminance" maskUnits="userSpaceOnUse" x="1" y="19" width="30" height="29">
<path d="M29.7253 19.113L1.72601 19.6017L2.21474 47.601L30.214 47.1123L29.7253 19.113Z" fill="white"/>
</mask>
<g mask="url(#mask0_1_1868)">
<path d="M29.5246 32.683C29.6469 39.6899 23.6818 45.9137 16.1915 46.0444C8.70131 46.1751 2.52259 40.1634 2.40028 33.1564C2.27797 26.1494 8.25844 20.8007 15.7487 20.67C23.2389 20.5392 29.4023 25.6759 29.5246 32.683Z" fill="white"/>
<path d="M15.7486 20.67C8.25844 20.8007 2.27797 26.1494 2.40028 33.1564C2.42379 34.5034 2.673 35.8128 3.11045 37.0496C4.53867 38.9005 6.78646 40.0817 9.30357 40.0378C12.2508 39.9863 14.7759 38.2741 16.013 35.8109C17.3353 38.2295 19.9186 39.8525 22.8657 39.801C25.3829 39.7571 27.5881 38.4981 28.9509 36.5986C29.3448 35.3472 29.5482 34.0299 29.5246 32.683C29.4023 25.6759 23.2389 20.5392 15.7486 20.67Z" fill="white"/>
<path d="M16.1917 46.0442C20.2993 45.9725 23.5709 42.5845 23.4992 38.477C23.4275 34.3696 20.0396 31.0978 15.932 31.1695C11.8245 31.2412 8.55281 34.6292 8.62451 38.7367C8.69621 42.8441 12.0841 46.1159 16.1917 46.0442Z" fill="#D8D8D8"/>
<path d="M9.16609 32.1628C10.0118 32.1481 10.6853 31.4505 10.6706 30.6049C10.6558 29.7592 9.9583 29.0856 9.11264 29.1004C8.26697 29.1151 7.59339 29.8127 7.60815 30.6583C7.62291 31.504 8.32042 32.1776 9.16609 32.1628Z" fill="#8A8A8A"/>
<path d="M22.7285 31.9261C23.5742 31.9114 24.2478 31.2138 24.233 30.3682C24.2183 29.5225 23.5207 28.8489 22.6751 28.8637C21.8294 28.8784 21.1558 29.576 21.1706 30.4216C21.1853 31.2673 21.8829 31.9409 22.7285 31.9261Z" fill="#8A8A8A"/>
<path d="M16.7596 34.9032C16.3503 35.4979 15.6638 35.5099 15.2339 34.9298L14.556 34.0149C14.1262 33.4348 14.3651 32.9499 15.0869 32.9373L16.837 32.9067C17.5588 32.8941 17.8145 33.3704 17.4052 33.9652L16.7596 34.9032Z" fill="#8A8A8A"/>
<path d="M21.302 41.1412C19.4242 41.174 18.4155 38.5658 16.0564 38.6069C13.6972 38.6481 12.7802 41.29 10.9026 41.3227C10.0601 41.3374 9.30685 41.0305 8.68125 39.983C9.34269 43.4852 12.4682 46.1092 16.1861 46.0443C19.9041 45.9794 22.9363 43.2479 23.4749 39.7248C22.8865 40.7935 22.1444 41.1265 21.302 41.1412Z" fill="white"/>
<path d="M3.88113 42.758C3.70766 42.761 3.54134 42.6596 3.47 42.4899C3.37634 42.2671 3.48127 42.0106 3.70403 41.9168L12.3932 38.2641C12.6138 38.1718 12.8725 38.2751 12.9661 38.4979C13.0597 38.7209 12.9548 38.9772 12.732 39.0711L4.04289 42.7237C3.99032 42.7458 3.93538 42.757 3.88113 42.758Z" fill="#8A8A8A"/>
<path d="M2.95955 40.1482C2.76559 40.1516 2.58646 40.0247 2.53131 39.8293C2.4657 39.5968 2.60081 39.355 2.83341 39.2894L11.1075 36.957C11.341 36.8914 11.5818 37.0266 11.6474 37.2595C11.713 37.492 11.5779 37.7338 11.3453 37.7993L3.0712 40.1319C3.0338 40.1423 2.99675 40.1475 2.95955 40.1482Z" fill="#8A8A8A"/>
<path d="M2.48387 37.9683C2.27541 37.972 2.08824 37.8259 2.04735 37.6144C2.00093 37.3772 2.15589 37.1476 2.39309 37.1012L9.80752 35.659C10.0435 35.6128 10.2748 35.768 10.3204 36.005C10.3669 36.2422 10.2119 36.4719 9.9747 36.5181L2.56026 37.9603C2.5347 37.9653 2.50909 37.9679 2.48387 37.9683Z" fill="#8A8A8A"/>
<path d="M28.3808 42.3303C28.5543 42.3272 28.717 42.2201 28.7824 42.048C28.8682 41.8221 28.7544 41.5694 28.5285 41.4835L19.7171 38.1362C19.4934 38.0517 19.2385 38.1639 19.1528 38.3899C19.067 38.616 19.1808 38.8685 19.4066 38.9546L28.218 42.3017C28.2713 42.3219 28.3265 42.3312 28.3808 42.3303Z" fill="#8A8A8A"/>
<path d="M29.2098 39.69C29.4038 39.6866 29.5784 39.5536 29.6267 39.3564C29.6841 39.1217 29.5407 38.8848 29.306 38.8273L20.9555 36.7851C20.7198 36.7278 20.4839 36.8713 20.4264 37.1063C20.369 37.341 20.5124 37.5779 20.7471 37.6352L29.0977 39.6776C29.1354 39.6868 29.1727 39.6907 29.2098 39.69Z" fill="#8A8A8A"/>
<path d="M29.6091 37.4949C29.8175 37.4912 29.9995 37.3387 30.0329 37.1259C30.071 36.8873 29.9082 36.6632 29.6696 36.6251L22.2093 35.4426C21.9718 35.4046 21.746 35.5677 21.7087 35.8062C21.6706 36.0449 21.8335 36.269 22.0722 36.307L29.5324 37.4895C29.5581 37.4936 29.5838 37.4953 29.6091 37.4949Z" fill="#8A8A8A"/>
</g>
<path d="M40.4622 40.0415L36.9628 40.1026L36.925 37.9363L40.2949 37.8775C41.2514 37.8608 42.0477 37.6741 42.6836 37.3172C43.3255 36.9541 43.8007 36.4179 44.1094 35.7087C44.4242 34.9994 44.5724 34.117 44.5539 33.0618C44.5355 32.0063 44.3598 31.1328 44.0267 30.4409C43.6936 29.7491 43.2061 29.2359 42.5644 28.9013C41.9225 28.5606 41.1326 28.3984 40.1944 28.4148L36.6858 28.476L36.6479 26.3097L40.3048 26.2459C41.6749 26.222 42.8555 26.4762 43.8464 27.0083C44.8435 27.5403 45.6165 28.3172 46.1651 29.3386C46.714 30.36 47.0008 31.5866 47.0258 33.0186C47.0508 34.4504 46.807 35.6895 46.2943 36.7355C45.7816 37.7756 45.0301 38.582 44.0398 39.1549C43.0559 39.7216 41.8632 40.0171 40.4622 40.0415ZM38.0365 26.2855L38.2773 40.0797L35.7777 40.1233L35.5369 26.3291L38.0365 26.2855ZM53.2045 40.0229C52.1923 40.0406 51.3121 39.8337 50.5637 39.4022C49.8153 38.9708 49.2305 38.3574 48.8091 37.5622C48.3939 36.7669 48.1771 35.8384 48.1586 34.7769C48.14 33.7091 48.3241 32.7705 48.7113 31.9612C49.1046 31.1455 49.6676 30.5091 50.4005 30.0518C51.1334 29.5945 52.0059 29.3569 53.018 29.3393C54.0302 29.3216 54.9106 29.5286 55.659 29.96C56.4073 30.3915 56.9923 31.0078 57.4137 31.8093C57.8351 32.6045 58.055 33.536 58.0737 34.6038C58.0922 35.6653 57.9048 36.6009 57.5114 37.4103C57.1182 38.2197 56.555 38.8531 55.8222 39.3104C55.0894 39.7677 54.2167 40.0053 53.2045 40.0229ZM53.1703 38.0603C53.732 38.0505 54.1922 37.8942 54.5512 37.5917C54.9101 37.2829 55.1745 36.8707 55.3446 36.3554C55.5208 35.8398 55.6034 35.2704 55.5926 34.6471C55.5815 34.0113 55.4789 33.439 55.2848 32.9299C55.0968 32.4208 54.8183 32.0213 54.449 31.7315C54.0795 31.4354 53.614 31.2921 53.0523 31.3019C52.5031 31.3115 52.0459 31.4708 51.6809 31.7798C51.3158 32.0824 51.0451 32.4916 50.8688 33.007C50.6988 33.5225 50.6192 34.098 50.6303 34.7337C50.6412 35.357 50.7407 35.9232 50.9285 36.4325C51.1228 36.9414 51.4076 37.344 51.7832 37.64C52.1586 37.9297 52.6211 38.0699 53.1703 38.0603ZM64.0177 39.8342C62.9871 39.8522 62.0974 39.6423 61.3489 39.2047C60.6004 38.7609 60.0216 38.1413 59.6125 37.3459C59.2035 36.5503 58.9899 35.6312 58.9717 34.5881C58.9532 33.5327 59.1377 32.6004 59.5248 31.7909C59.912 30.9816 60.472 30.3453 61.2047 29.8817C61.9374 29.412 62.8067 29.1684 63.8128 29.1509C64.6583 29.1361 65.4078 29.2773 66.0612 29.5748C66.7146 29.872 67.2375 30.2982 67.63 30.853C68.0286 31.4018 68.2621 32.0491 68.3307 32.7948L65.9978 32.8355C65.9303 32.5034 65.8046 32.2061 65.6211 31.9438C65.4374 31.6816 65.1993 31.4758 64.9065 31.3266C64.6198 31.1773 64.279 31.106 63.884 31.1129C63.3842 31.1216 62.9483 31.265 62.5765 31.5432C62.2108 31.815 61.9274 32.2028 61.7264 32.7064C61.5252 33.21 61.4307 33.8105 61.4429 34.5079C61.4552 35.2115 61.5676 35.8176 61.7803 36.3264C61.9928 36.8289 62.2897 37.2158 62.671 37.4869C63.0523 37.752 63.4959 37.8801 64.002 37.8712C64.5389 37.8619 64.9898 37.6965 65.3547 37.3752C65.7256 37.054 65.9588 36.6146 66.054 36.0574L68.387 36.0166C68.3442 36.7519 68.1395 37.4039 67.7729 37.972C67.4062 38.5402 66.9046 38.9904 66.2684 39.3225C65.6321 39.6486 64.8818 39.8191 64.0177 39.8342ZM76.2791 35.0731L76.1743 29.0648L78.609 29.0223L78.7897 39.3725L76.429 39.4137L76.3968 37.5715L76.2856 37.5735C76.0613 38.1576 75.6869 38.6395 75.1627 39.0192C74.6383 39.3988 73.9872 39.5922 73.2094 39.5997C72.5306 39.6115 71.9293 39.4738 71.4057 39.1866C70.8882 38.8931 70.4762 38.4589 70.1699 37.8839C69.8696 37.3027 69.7122 36.5985 69.6977 35.7714L69.5827 29.1799L72.0174 29.1374L72.126 35.3586C72.1374 36.0067 72.3254 36.522 72.6901 36.9045C73.0611 37.2871 73.5397 37.47 74.1259 37.4537C74.4839 37.4474 74.828 37.355 75.1583 37.1764C75.4947 36.9977 75.7679 36.7336 75.9778 36.3841C76.1878 36.0348 76.2883 35.5978 76.2791 35.0731ZM88.6277 31.5979L86.4192 31.8678C86.3207 31.53 86.1149 31.2342 85.8018 30.9804C85.4885 30.7204 85.0511 30.5953 84.4894 30.6051C83.9833 30.614 83.5594 30.7324 83.2177 30.9607C82.8821 31.1888 82.7173 31.4757 82.7233 31.8213C82.7286 32.1237 82.844 32.3718 83.0697 32.5654C83.3015 32.7527 83.6806 32.9004 84.2072 33.0086L85.9819 33.348C86.9546 33.5347 87.6855 33.8554 88.175 34.3098C88.6645 34.7643 88.9157 35.3587 88.9285 36.0932C88.9398 36.7414 88.7615 37.3186 88.3939 37.8251C88.026 38.3315 87.5114 38.7295 86.8496 39.0189C86.1941 39.3081 85.4343 39.4604 84.5701 39.4755C83.305 39.4975 82.2819 39.2498 81.5012 38.7326C80.7265 38.209 80.2536 37.4733 80.0828 36.5256L82.4582 36.2618C82.5712 36.7228 82.8057 37.0706 83.1617 37.3052C83.5237 37.5335 83.9825 37.6428 84.538 37.6331C85.1182 37.623 85.5821 37.4975 85.9298 37.2569C86.2774 37.01 86.4482 36.7139 86.4422 36.3682C86.432 35.788 85.9623 35.4011 85.0327 35.2075L83.258 34.868C82.2607 34.6692 81.5201 34.3334 81.0365 33.8603C80.5528 33.381 80.3043 32.7649 80.2912 32.0119C80.28 31.37 80.4462 30.8115 80.7898 30.3363C81.1334 29.861 81.6176 29.4884 82.2426 29.2182C82.8676 28.948 83.5937 28.8056 84.4208 28.7911C85.6366 28.7699 86.5948 29.0156 87.2951 29.5281C88.0015 30.0344 88.4459 30.7244 88.6277 31.5979ZM94.8834 39.2954C93.8466 39.3135 92.9478 39.1132 92.1873 38.6942C91.4267 38.2692 90.8358 37.662 90.4146 36.8729C89.9994 36.0839 89.7825 35.1492 89.7637 34.0692C89.745 33.0014 89.9292 32.0629 90.3165 31.2535C90.7035 30.4379 91.2572 29.7985 91.9777 29.3353C92.6981 28.8721 93.552 28.6318 94.5396 28.6145C95.1752 28.6034 95.7788 28.6949 96.3502 28.8886C96.9277 29.0822 97.4392 29.3882 97.8849 29.8063C98.3367 30.2244 98.6949 30.7616 98.9595 31.4175C99.2239 32.0672 99.3641 32.8458 99.38 33.7531L99.3932 34.5123L90.9131 34.6603L90.8845 33.0216L98.1518 32.8947L97.0216 33.3961C97.0114 32.8097 96.9129 32.3022 96.7264 31.8731C96.5398 31.4381 96.2684 31.1002 95.9123 30.8595C95.5562 30.6188 95.1158 30.503 94.5912 30.5121C94.0666 30.5213 93.6213 30.6525 93.2553 30.9059C92.8892 31.1592 92.6143 31.4974 92.4302 31.9204C92.2462 32.3372 92.1586 32.8018 92.1675 33.3141L92.1874 34.4529C92.1984 35.0824 92.3157 35.6204 92.5397 36.0673C92.7696 36.5078 93.0841 36.8418 93.4832 37.0694C93.8885 37.2971 94.3565 37.4061 94.8874 37.3968C95.2329 37.3908 95.5469 37.336 95.829 37.2323C96.1173 37.1284 96.3616 36.976 96.562 36.775C96.7681 36.5676 96.9243 36.3148 97.0302 36.0167L99.3124 36.2454C99.1747 36.8466 98.9092 37.376 98.5158 37.8336C98.1287 38.2849 97.6255 38.6393 97.0064 38.8972C96.3934 39.1486 95.6858 39.2814 94.8834 39.2954ZM103.78 39.1494C103.12 39.1609 102.525 39.0539 101.997 38.8286C101.468 38.597 101.048 38.2524 100.738 37.7949C100.427 37.3373 100.266 36.769 100.254 36.0901C100.244 35.5099 100.344 35.0266 100.553 34.6401C100.762 34.2537 101.05 33.9431 101.417 33.7083C101.789 33.4733 102.209 33.2932 102.676 33.1677C103.143 33.0361 103.626 32.9413 104.125 32.8831C104.735 32.8046 105.227 32.7374 105.603 32.6813C105.979 32.6254 106.249 32.5405 106.413 32.4265C106.584 32.3123 106.668 32.138 106.664 31.9035L106.663 31.8572C106.654 31.3573 106.499 30.971 106.198 30.6984C105.897 30.4259 105.463 30.2945 104.895 30.3044C104.296 30.3149 103.823 30.4529 103.476 30.7182C103.135 30.9835 102.906 31.293 102.788 31.647L100.514 31.3625C100.682 30.7299 100.969 30.2001 101.376 29.7733C101.782 29.3401 102.279 29.0136 102.868 28.7933C103.463 28.5669 104.121 28.4473 104.843 28.4347C105.337 28.426 105.832 28.4762 106.328 28.5847C106.823 28.6873 107.28 28.8706 107.699 29.135C108.117 29.3994 108.454 29.7577 108.708 30.2101C108.963 30.6626 109.097 31.2313 109.109 31.9163L109.23 38.8412L106.887 38.8821L106.862 37.4564L106.788 37.4577C106.645 37.7442 106.44 38.0164 106.173 38.2741C105.912 38.5256 105.582 38.732 105.183 38.8933C104.791 39.0545 104.324 39.1399 103.78 39.1494ZM104.369 37.3426C104.863 37.334 105.287 37.2308 105.642 37.0332C105.996 36.8294 106.27 36.5653 106.461 36.2411C106.653 35.9104 106.746 35.5539 106.739 35.1712L106.718 33.9584C106.639 34.0215 106.51 34.0824 106.332 34.1411C106.154 34.1936 105.951 34.2435 105.724 34.2906C105.496 34.3378 105.271 34.3788 105.05 34.4136C104.834 34.4482 104.647 34.4761 104.486 34.4975C104.123 34.5532 103.797 34.6422 103.509 34.7645C103.227 34.8806 103.005 35.0389 102.842 35.2393C102.678 35.4396 102.6 35.6973 102.605 36.012C102.613 36.4626 102.782 36.7992 103.113 37.0218C103.445 37.2445 103.863 37.3514 104.369 37.3426ZM113.229 24.973L113.47 38.7672L111.035 38.8097L110.794 25.0155L113.229 24.973Z" fill="white"/>
</svg>
