<svg width="81" height="66" viewBox="0 0 81 66" fill="none" xmlns="http://www.w3.org/2000/svg">
<g clip-path="url(#clip0_1_723)">
<path d="M5.89001 31.5198L7.81078 26.8575L0.44455 26.9861L7.07417 37.3405L8.70615 31.4707L5.89001 31.5198Z" fill="white"/>
<path d="M11.5696 26.7919L10.2291 30.0216L12.5565 29.981L7.07418 37.3405L5.05668 41.13L9.3391 41.0552L17.7838 26.6834L11.5696 26.7919Z" fill="white"/>
<path d="M18.8233 40.8896L31.95 40.6605L31.8963 37.5834L21.8767 37.7583L21.8332 35.264L29.8977 35.1232L29.8439 32.046L21.7795 32.1868L21.7359 29.6924L31.7555 29.5175L31.7018 26.4404L18.5751 26.6696L18.8233 40.8896Z" fill="white"/>
<path d="M44.9238 35.6887L36.8102 26.3513L33.645 26.4066L33.8932 40.6266L36.9538 40.5732L36.7876 31.0505L44.9484 40.4337L48.102 40.3786L47.8538 26.1586L44.7584 26.2126L44.9238 35.6887Z" fill="white"/>
<path d="M74.2079 32.8107L80.0537 25.5965L76.004 25.6672L72.1758 30.4211L68.149 25.8043L67.8348 25.8098L64.9721 25.8597L50.1 26.1193L50.3482 40.3394L63.4631 40.1105L63.4094 37.0334L53.3898 37.2083L53.3462 34.714L61.4225 34.573L61.3688 31.4958L53.2925 31.6367L53.249 29.1424L66.7248 28.9072L70.1699 32.8812L64.3474 40.095L68.3972 40.0244L72.2259 35.2938L76.2522 39.8872L80.3251 39.8161L74.2079 32.8107Z" fill="white"/>
</g>
<defs>
<clipPath id="clip0_1_723">
<rect width="79.6444" height="64" fill="white" transform="translate(-0.00222778 1.38997) rotate(-1)"/>
</clipPath>
</defs>
</svg>
