<svg width="133" height="19" viewBox="0 0 133 19" fill="none" xmlns="http://www.w3.org/2000/svg">
<path d="M10.721 7.9289C10.6081 7.56857 10.4527 7.25138 10.2548 6.97689C10.0569 6.69756 9.81657 6.46364 9.53385 6.27512C9.25613 6.0814 8.9386 5.93574 8.58126 5.83771C8.22901 5.73973 7.83956 5.69433 7.41295 5.70178C6.61557 5.71569 5.91807 5.92146 5.32044 6.3188C4.72789 6.71619 4.27046 7.28731 3.94816 8.03218C3.62577 8.77207 3.47384 9.67285 3.49237 10.7342C3.5109 11.7958 3.69172 12.6956 4.03483 13.4338C4.37793 14.172 4.8551 14.7318 5.46632 15.113C6.07746 15.4894 6.79441 15.6704 7.61718 15.656C8.36376 15.643 8.99891 15.5029 9.52261 15.2358C10.0513 14.9636 10.4511 14.5869 10.7222 14.106C10.9983 13.6248 11.1307 13.0593 11.1193 12.4096L11.7914 12.4946L7.76898 12.5648L7.72664 10.1394L14.2555 10.0255L14.289 11.9449C14.3124 13.2841 14.043 14.4399 13.4807 15.4123C12.9185 16.3797 12.134 17.1326 11.1273 17.6712C10.1206 18.2047 8.96203 18.4829 7.65169 18.5058C6.18897 18.5313 4.89854 18.2388 3.78035 17.6282C2.66208 17.0127 1.78297 16.1275 1.14301 14.9727C0.508033 13.8129 0.176526 12.4295 0.148473 10.8223C0.126916 9.58732 0.290538 8.48307 0.639324 7.50944C0.993115 6.53089 1.49678 5.69836 2.15033 5.01229C2.80389 4.32608 3.56945 3.79921 4.44702 3.43156C5.32459 3.06404 6.27887 2.87129 7.30988 2.85329C8.1936 2.83787 9.01858 2.94992 9.78482 3.1896C10.551 3.4243 11.2326 3.7646 11.8297 4.21064C12.4319 4.65659 12.9264 5.19132 13.3132 5.81471C13.7 6.43312 13.9533 7.1183 14.0731 7.87039L10.721 7.9289Z" fill="white"/>
<path d="M16.1442 18.1492L15.9448 6.72138L19.0911 6.66647L19.1259 8.6604L19.2479 8.65827C19.4488 7.94525 19.7975 7.40333 20.294 7.03237C20.7903 6.65658 21.3661 6.46303 22.0213 6.45159C22.1838 6.44876 22.3593 6.45551 22.5475 6.47214C22.7358 6.48862 22.9013 6.51305 23.0441 6.54526L23.0931 9.3577C22.9401 9.31571 22.7286 9.27972 22.4588 9.24958C22.1891 9.21958 21.9425 9.20653 21.7189 9.21043C21.2416 9.21876 20.8167 9.32788 20.4444 9.53779C20.077 9.74278 19.7874 10.0256 19.5752 10.3865C19.3681 10.7474 19.2687 11.161 19.2768 11.6272L19.3897 18.0925L16.1442 18.1492Z" fill="white"/>
<path d="M28.9982 18.1481C27.815 18.1688 26.7873 17.9411 25.9152 17.4651C25.0483 16.9841 24.3734 16.3063 23.8908 15.4315C23.408 14.5518 23.1564 13.5267 23.136 12.3561C23.1153 11.1756 23.331 10.1398 23.7828 9.24877C24.2346 8.35285 24.8854 7.65175 25.7351 7.14575C26.5899 6.63468 27.609 6.36882 28.7922 6.34817C29.9756 6.32751 31.0008 6.55769 31.8678 7.03871C32.7398 7.51465 33.4172 8.19257 33.8998 9.07217C34.3825 9.94694 34.6342 10.9745 34.6548 12.1551C34.6752 13.3257 34.4595 14.3589 34.0078 15.2549C33.556 16.146 32.9027 16.847 32.0479 17.3581C31.1982 17.8641 30.1816 18.1275 28.9982 18.1481ZM28.9707 15.6926C29.5089 15.6832 29.9558 15.5266 30.3113 15.2227C30.6666 14.9138 30.9312 14.4974 31.1049 13.9733C31.2837 13.4493 31.3674 12.855 31.3558 12.1903C31.3441 11.5257 31.2398 10.9346 31.0429 10.417C30.8509 9.89948 30.572 9.49256 30.2061 9.19625C29.8402 8.89994 29.388 8.75649 28.8498 8.76588C28.3063 8.77537 27.8518 8.93465 27.4863 9.24372C27.126 9.55271 26.8564 9.96921 26.6776 10.4932C26.5038 11.0173 26.4227 11.6116 26.4343 12.2762C26.4459 12.9409 26.5477 13.532 26.7397 14.0495C26.9366 14.5671 27.2207 14.974 27.5915 15.2702C27.9675 15.5613 28.4272 15.7021 28.9707 15.6926Z" fill="white"/>
<path d="M38.2086 17.764L34.8247 6.39182L38.1083 6.3345L40.0553 13.981L40.162 13.9791L41.9174 6.26801L45.1398 6.21177L47.1929 13.8117L47.2919 13.81L48.9414 6.14541L52.2173 6.08823L49.2398 17.5715L45.804 17.6315L43.6674 10.4795L43.5226 10.482L41.6368 17.7042L38.2086 17.764Z" fill="white"/>
<path d="M54.7612 17.4752L51.2264 17.5369L56.3464 2.20576L60.5975 2.13156L66.2419 17.2748L62.7071 17.3365L58.5937 5.64952L58.4718 5.65165L54.7612 17.4752ZM54.4357 11.4898L62.7853 11.3441L62.8292 13.8587L54.4796 14.0045L54.4357 11.4898Z" fill="white"/>
<path d="M73.2722 5.72076L73.3138 8.10148L66.0917 8.22754L66.0502 5.84682L73.2722 5.72076ZM67.9027 17.2458L67.6888 4.99206C67.6744 4.16374 67.8275 3.47389 68.148 2.92251C68.4738 2.37103 68.9237 1.95394 69.4979 1.67095C70.0721 1.38811 70.7275 1.24025 71.4638 1.2274C71.9617 1.21871 72.4168 1.24789 72.8295 1.31523C73.2473 1.38233 73.5583 1.44389 73.7624 1.49979L73.2251 3.89076C73.0974 3.8533 72.9392 3.81879 72.7507 3.78738C72.5673 3.75587 72.3791 3.7418 72.186 3.74517C71.7086 3.7535 71.3779 3.86838 71.1937 4.08994C71.0096 4.30652 70.9209 4.6082 70.9276 4.99513L71.1405 17.1893L67.9027 17.2458Z" fill="white"/>
<path d="M80.8771 5.588L80.9186 7.96873L73.6966 8.09479L73.655 5.71407L80.8771 5.588ZM75.5076 17.113L75.2937 4.85931C75.2792 4.03099 75.4323 3.34114 75.753 2.78975C76.0786 2.23828 76.5285 1.82119 77.1028 1.5382C77.6771 1.25535 78.3324 1.1075 79.0688 1.09465C79.5665 1.08596 80.0217 1.11514 80.4343 1.18247C80.8521 1.24957 81.1632 1.31114 81.3673 1.36704L80.8299 3.75801C80.7023 3.72055 80.5442 3.68604 80.3556 3.65462C80.1721 3.62312 79.984 3.60905 79.791 3.61242C79.3135 3.62075 78.9828 3.73563 78.7987 3.95718C78.6145 4.17376 78.5257 4.47545 78.5325 4.86238L78.7453 17.0565L75.5076 17.113Z" fill="white"/>
<path d="M82.3887 16.9929L82.1893 5.56506L85.4347 5.50841L85.6342 16.9362L82.3887 16.9929ZM83.7939 4.0634C83.3114 4.07182 82.8947 3.92277 82.5439 3.61638C82.198 3.30493 82.0213 2.92837 82.0136 2.48698C82.006 2.05042 82.1696 1.67304 82.5044 1.35468C82.8443 1.03112 83.2554 0.865198 83.7379 0.856777C84.2204 0.848355 84.6346 0.99987 84.9804 1.31146C85.3312 1.61785 85.5104 1.98925 85.518 2.42581C85.5257 2.8672 85.3597 3.24974 85.0199 3.57316C84.685 3.89152 84.2764 4.05498 83.7939 4.0634Z" fill="white"/>
<path d="M90.5429 1.60885L90.8089 16.8459L87.5634 16.9026L87.2975 1.6655L90.5429 1.60885Z" fill="white"/>
<path d="M92.7381 16.8123L92.5386 5.38445L95.7841 5.3278L95.9836 16.7556L92.7381 16.8123ZM94.1433 3.8828C93.6608 3.89122 93.2441 3.74216 92.8934 3.43578C92.5475 3.12432 92.3707 2.74776 92.363 2.30637C92.3554 1.86982 92.5191 1.49243 92.8539 1.17408C93.1936 0.850517 93.6048 0.684595 94.0873 0.676174C94.5698 0.667752 94.9839 0.819267 95.3297 1.13086C95.6806 1.43725 95.8598 1.80865 95.8674 2.2452C95.8751 2.68659 95.7091 3.06914 95.3692 3.39256C95.0344 3.71092 94.6257 3.87437 94.1433 3.8828Z" fill="white"/>
<path d="M101.253 16.8794C100.507 16.8924 99.8393 16.7776 99.2507 16.5349C98.6622 16.2871 98.1934 15.9158 97.8444 15.4207C97.5004 14.9206 97.3217 14.2936 97.3086 13.5398C97.2975 12.9049 97.4075 12.3696 97.6387 11.934C97.87 11.4982 98.189 11.1453 98.5958 10.8753C99.0026 10.6052 99.4662 10.3987 99.987 10.2556C100.513 10.1124 101.065 10.0086 101.643 9.94391C102.322 9.86264 102.87 9.7885 103.285 9.72179C103.7 9.64996 104.001 9.55041 104.187 9.42313C104.372 9.29585 104.463 9.11077 104.459 8.86775L104.458 8.8231C104.45 8.35185 104.291 7.98991 103.982 7.73742C103.678 7.48469 103.249 7.36316 102.695 7.37283C102.111 7.38302 101.649 7.51755 101.308 7.77655C100.967 8.03058 100.744 8.34712 100.639 8.72605L97.6328 8.54026C97.7732 7.84323 98.0623 7.23791 98.5004 6.72416C98.9384 6.20544 99.5081 5.80361 100.209 5.51841C100.915 5.22828 101.736 5.07499 102.67 5.05867C103.32 5.04733 103.944 5.11084 104.541 5.24935C105.142 5.38763 105.677 5.60902 106.145 5.91351C106.618 6.21776 106.993 6.61305 107.271 7.09952C107.548 7.58086 107.693 8.16125 107.705 8.84082L107.839 16.5487L104.762 16.6024L104.734 15.0177L104.643 15.0193C104.461 15.3796 104.215 15.699 103.905 15.9774C103.595 16.2506 103.22 16.4681 102.781 16.6296C102.342 16.786 101.832 16.8693 101.253 16.8794ZM102.145 14.6759C102.622 14.6675 103.042 14.5684 103.404 14.3785C103.767 14.1837 104.049 13.9257 104.252 13.6047C104.455 13.2835 104.553 12.9221 104.546 12.5203L104.524 11.3077C104.424 11.3738 104.285 11.4359 104.109 11.4936C103.937 11.5461 103.742 11.5967 103.524 11.6452C103.307 11.6886 103.089 11.7296 102.871 11.7681C102.653 11.8018 102.456 11.8325 102.278 11.8604C101.898 11.9216 101.567 12.0142 101.285 12.1382C101.003 12.2621 100.785 12.4272 100.631 12.6333C100.477 12.8345 100.402 13.0838 100.407 13.3815C100.415 13.813 100.581 14.14 100.905 14.3627C101.234 14.5801 101.647 14.6845 102.145 14.6759Z" fill="white"/>
<path d="M115.711 4.97995L115.753 7.36067L108.706 7.48367L108.665 5.10295L115.711 4.97995ZM110.217 2.3371L113.462 2.28045L113.648 12.9345C113.653 13.2272 113.703 13.4545 113.797 13.6166C113.891 13.7737 114.02 13.8831 114.184 13.9448C114.353 14.0063 114.546 14.0352 114.765 14.0314C114.917 14.0287 115.069 14.0137 115.221 13.9861C115.373 13.9538 115.489 13.9294 115.57 13.9131L116.122 16.2627C115.96 16.3151 115.733 16.3762 115.439 16.4457C115.146 16.5204 114.788 16.5687 114.367 16.591C113.586 16.6344 112.898 16.5447 112.305 16.3219C111.717 16.0989 111.256 15.7448 110.922 15.2594C110.589 14.7741 110.418 14.1569 110.41 13.4078L110.217 2.3371Z" fill="white"/>
<path d="M122.566 16.5149C121.362 16.5359 120.322 16.3158 119.445 15.8549C118.573 15.3889 117.896 14.721 117.413 13.8512C116.931 12.9764 116.679 11.9364 116.658 10.7311C116.637 9.55558 116.853 8.51983 117.305 7.62392C117.756 6.72786 118.402 6.02443 119.241 5.51363C120.086 5.00274 121.082 4.73728 122.23 4.71725C123.002 4.70377 123.723 4.81281 124.392 5.04422C125.067 5.27056 125.657 5.61999 126.164 6.09237C126.675 6.5648 127.076 7.16304 127.368 7.88736C127.66 8.60657 127.815 9.45236 127.832 10.4244L127.847 11.295L117.966 11.4675L117.932 9.50325L124.758 9.3841C124.75 8.92778 124.641 8.52528 124.432 8.17673C124.223 7.82805 123.936 7.55781 123.572 7.3656C123.213 7.16845 122.797 7.07401 122.325 7.08225C121.832 7.09085 121.397 7.2101 121.02 7.44C120.648 7.6647 120.359 7.96505 120.152 8.34077C119.945 8.71151 119.843 9.12268 119.846 9.57411L119.878 11.4415C119.888 12.007 120.003 12.4936 120.224 12.9016C120.45 13.3094 120.762 13.6216 121.162 13.8378C121.562 14.0541 122.034 14.1576 122.578 14.1481C122.938 14.1418 123.267 14.0864 123.565 13.9819C123.863 13.8776 124.117 13.7242 124.327 13.5221C124.537 13.32 124.695 13.0741 124.802 12.7845L127.807 12.9255C127.667 13.6325 127.365 14.253 126.902 14.7871C126.444 15.316 125.847 15.7332 125.11 16.0388C124.379 16.3393 123.531 16.4981 122.566 16.5149Z" fill="white"/>
<path d="M131.28 16.3329C130.778 16.3417 130.343 16.1758 129.976 15.8348C129.614 15.4889 129.429 15.0704 129.421 14.5794C129.412 14.0932 129.583 13.6735 129.932 13.3201C130.287 12.9666 130.715 12.7854 131.218 12.7766C131.706 12.7681 132.136 12.9343 132.507 13.2752C132.879 13.6159 133.069 14.0294 133.077 14.5156C133.083 14.8429 133.002 15.1445 132.834 15.4202C132.671 15.691 132.454 15.9106 132.183 16.0791C131.911 16.2426 131.61 16.3272 131.28 16.3329Z" fill="white"/>
</svg>
