<svg width="124" height="67" viewBox="0 0 124 67" fill="none" xmlns="http://www.w3.org/2000/svg">
<g clip-path="url(#clip0_1_1831)">
<path fill-rule="evenodd" clip-rule="evenodd" d="M14.8365 48.816C22.5812 48.6808 28.7483 42.2046 28.6113 34.3511C28.4742 26.4977 22.0848 20.2407 14.3401 20.3759C6.59541 20.511 0.428253 26.9872 0.565335 34.8407C0.702418 42.6941 7.09183 48.9512 14.8365 48.816ZM18.8304 26.9238C19.03 26.153 18.288 25.7124 17.626 26.2084L8.38592 33.1321C7.66808 33.6699 7.8007 34.7144 8.58515 34.7007L11.0494 34.6577L11.0491 34.6384L15.8518 34.5545L11.9629 36.0229L10.3462 42.2681C10.1467 43.0388 10.8885 43.4795 11.5505 42.9834L20.7907 36.0597C21.5086 35.5219 21.3758 34.4774 20.5914 34.4911L16.8544 34.5564L18.8304 26.9238Z" fill="white"/>
<path d="M46.2291 32.5283L43.2412 32.5804C43.1959 32.27 43.1094 31.9907 42.9814 31.7423C42.8536 31.494 42.6865 31.2827 42.4802 31.1085C42.274 30.9343 42.0306 30.8033 41.7502 30.7152C41.4736 30.623 41.1679 30.5798 40.8333 30.5857C40.2397 30.596 39.7304 30.7524 39.3052 31.0549C38.8842 31.3572 38.5629 31.7891 38.3415 32.3507C38.1242 32.9121 38.0225 33.5887 38.0363 34.3806C38.0507 35.2047 38.1783 35.8935 38.419 36.447C38.6637 36.9963 38.9998 37.4087 39.4269 37.6841C39.8581 37.9554 40.3645 38.086 40.9461 38.0758C41.2727 38.0701 41.5688 38.0226 41.8342 37.933C42.1036 37.8434 42.3385 37.7161 42.5389 37.551C42.7432 37.3817 42.9091 37.1788 43.0364 36.9422C43.1677 36.7015 43.2566 36.4311 43.3031 36.1313L46.2914 36.0974C46.2491 36.6477 46.1012 37.1917 45.8476 37.7295C45.598 38.2673 45.2498 38.7604 44.8035 39.2086C44.3569 39.6529 43.8092 40.01 43.1603 40.2799C42.5156 40.5498 41.7728 40.692 40.9323 40.7067C39.8248 40.726 38.8285 40.4969 37.9434 40.0194C37.0623 39.5377 36.3605 38.8267 35.8379 37.8862C35.3154 36.9457 35.0423 35.7947 35.0185 34.4333C34.9947 33.0677 35.2314 31.9059 35.7288 30.9476C36.2261 29.9893 36.9087 29.256 37.7765 28.7479C38.6444 28.2397 39.6222 27.9761 40.7097 27.9572C41.4507 27.9442 42.1377 28.0374 42.7709 28.2364C43.4039 28.4315 43.9629 28.7248 44.4479 29.1163C44.9329 29.5039 45.3298 29.9839 45.6388 30.5564C45.9476 31.1288 46.1443 31.7861 46.2291 32.5283Z" fill="white"/>
<path d="M52.3474 40.5136C51.3833 40.5304 50.5512 40.345 49.8511 39.9571C49.1548 39.5651 48.6132 39.0128 48.2261 38.3003C47.843 37.5836 47.6431 36.7486 47.6265 35.7953C47.6097 34.8378 47.7804 33.9963 48.1383 33.2708C48.5002 32.5411 49.0222 31.9703 49.7045 31.5584C50.3905 31.1423 51.2156 30.9258 52.1797 30.909C53.1439 30.8921 53.974 31.0798 54.6703 31.4717C55.3704 31.8595 55.912 32.4118 56.2952 33.1284C56.6822 33.841 56.8841 34.676 56.9008 35.6334C56.9174 36.5867 56.7448 37.4283 56.383 38.1579C56.025 38.8835 55.5029 39.4543 54.8169 39.8704C54.1346 40.2824 53.3115 40.4968 52.3474 40.5136ZM52.3263 38.2772C52.6769 38.2711 52.9718 38.1568 53.211 37.9344C53.4502 37.7121 53.6301 37.4058 53.7509 37.0158C53.8755 36.6257 53.9335 36.1762 53.9246 35.6671C53.9156 35.1501 53.8419 34.6988 53.7037 34.3131C53.5694 33.9276 53.3789 33.6279 53.1321 33.4139C52.8853 33.2 52.5866 33.0961 52.2359 33.1022C51.8735 33.1086 51.5687 33.223 51.3215 33.4455C51.0783 33.6681 50.8943 33.9743 50.7695 34.3644C50.6489 34.7545 50.5931 35.2081 50.6021 35.7251C50.611 36.2342 50.6825 36.6815 50.8167 37.067C50.955 37.4525 51.1496 37.7522 51.4004 37.966C51.6552 38.1798 51.9638 38.2835 52.3263 38.2772Z" fill="white"/>
<path d="M58.4784 40.2308L58.316 30.9231L61.0946 30.8746L61.1244 32.5834L61.2261 32.5816C61.4073 32.0127 61.7223 31.5607 62.1706 31.2256C62.6191 30.8905 63.1581 30.7174 63.7876 30.7064C64.4249 30.6952 64.9736 30.8514 65.4335 31.1746C65.8935 31.498 66.1901 31.9374 66.3232 32.4926L66.4189 32.491C66.5805 31.9345 66.9075 31.4864 67.3997 31.1464C67.8917 30.8024 68.4765 30.6245 69.1537 30.6127C70.0222 30.5975 70.7322 30.8681 71.2838 31.4241C71.8356 31.9762 72.1199 32.7431 72.1371 33.7247L72.2464 39.9905L69.3242 40.0415L69.2267 34.4544C69.2186 33.9899 69.095 33.6384 68.8557 33.4002C68.6163 33.1579 68.3094 33.0399 67.9349 33.0464C67.5326 33.0535 67.2182 33.1924 66.9918 33.463C66.7693 33.7295 66.662 34.085 66.6697 34.5294L66.7667 40.0861L63.9581 40.1352L63.8601 34.5178C63.8525 34.0855 63.731 33.7463 63.4955 33.4997C63.2602 33.2533 62.9532 33.1334 62.5748 33.14C62.3198 33.1444 62.0958 33.2111 61.9027 33.3396C61.7097 33.4643 61.5593 33.6406 61.4518 33.8688C61.3481 34.0969 61.299 34.3645 61.3044 34.6715L61.4005 40.1798L58.4784 40.2308Z" fill="white"/>
<path d="M74.118 43.4493L73.8946 30.6511L76.7868 30.6006L76.8146 32.1944L76.9042 32.1928C77.0187 31.9079 77.1833 31.6324 77.3979 31.3659C77.6164 31.0993 77.8955 30.8804 78.2352 30.7088C78.5789 30.5331 78.9917 30.4409 79.4737 30.4325C80.1111 30.4214 80.7097 30.5806 81.2694 30.9104C81.833 31.24 82.2923 31.7553 82.6472 32.4563C83.0021 33.1572 83.1892 34.0551 83.2083 35.1499C83.2267 36.2043 83.0768 37.0899 82.7585 37.8067C82.4443 38.5234 82.0114 39.0644 81.4599 39.4296C80.9124 39.7948 80.3 39.9833 79.6227 39.9951C79.1606 40.0032 78.7589 39.9334 78.4175 39.7857C78.0763 39.6382 77.7879 39.4411 77.5525 39.1947C77.321 38.9481 77.141 38.6826 77.0125 38.3979L76.9528 38.3989L77.0401 43.3983L74.118 43.4493ZM76.8382 35.2551C76.8469 35.7559 76.9203 36.1912 77.0581 36.5604C77.2001 36.9298 77.3984 37.2152 77.653 37.4169C77.9115 37.6144 78.218 37.7102 78.5725 37.704C78.931 37.6977 79.2341 37.5913 79.4816 37.385C79.729 37.1745 79.913 36.8824 80.0341 36.5085C80.159 36.1346 80.2171 35.6971 80.2084 35.1962C80.1996 34.6953 80.1263 34.2621 79.9885 33.8968C79.8546 33.5315 79.6605 33.25 79.4059 33.0523C79.1554 32.8547 78.8488 32.759 78.4863 32.7653C78.1278 32.7716 77.8248 32.8759 77.5773 33.0782C77.3298 33.2805 77.1414 33.5666 77.0123 33.9367C76.8874 34.3066 76.8293 34.746 76.8382 35.2551Z" fill="white"/>
<path d="M87.4109 39.8834C86.8253 39.8936 86.3037 39.8037 85.846 39.6137C85.3925 39.4195 85.0305 39.1228 84.7606 38.7234C84.4945 38.3199 84.3562 37.8111 84.3454 37.1971C84.3364 36.6799 84.4184 36.2421 84.5915 35.8835C84.7645 35.5248 85.0064 35.2317 85.3174 35.0039C85.6282 34.7763 85.9877 34.6024 86.3961 34.482C86.8043 34.3577 87.2412 34.2714 87.7067 34.2227C88.2277 34.1653 88.647 34.1073 88.9649 34.0493C89.2826 33.9871 89.5123 33.9043 89.6539 33.8008C89.7995 33.6933 89.8706 33.5446 89.8673 33.3546L89.8667 33.3243C89.8613 33.0133 89.7516 32.7747 89.5375 32.6087C89.3233 32.4428 89.037 32.3628 88.6785 32.3691C88.292 32.3758 87.9828 32.4662 87.7507 32.6399C87.5186 32.8137 87.3734 33.0506 87.3148 33.3506L84.6181 33.3008C84.6879 32.7338 84.8842 32.2252 85.2071 31.7751C85.534 31.3209 85.9859 30.9614 86.5632 30.6967C87.1443 30.4279 87.8452 30.2864 88.6658 30.2721C89.2514 30.2619 89.7925 30.3231 90.2889 30.456C90.7853 30.5847 91.2192 30.7791 91.5903 31.0394C91.9613 31.2956 92.2499 31.6137 92.4557 31.9941C92.6656 32.3743 92.7748 32.8108 92.7834 33.3037L92.8938 39.63L90.1451 39.678L90.1224 38.3813L90.0508 38.3825C89.8929 38.7005 89.6884 38.9708 89.4372 39.1934C89.19 39.4159 88.8961 39.5846 88.5554 39.6997C88.2186 39.8146 87.8372 39.8759 87.4109 39.8834ZM88.2794 37.9286C88.5941 37.9231 88.8758 37.8534 89.1246 37.7198C89.3773 37.5861 89.5774 37.4048 89.7247 37.1759C89.8722 36.943 89.9432 36.6751 89.9379 36.3721L89.9224 35.4873C89.8396 35.5332 89.7388 35.5754 89.6198 35.6139C89.505 35.6522 89.378 35.6888 89.2392 35.7235C89.1003 35.7582 88.9574 35.789 88.8104 35.8159C88.6634 35.8427 88.5224 35.8673 88.3872 35.8899C88.1131 35.9392 87.8793 36.012 87.6858 36.1082C87.4962 36.2046 87.3508 36.3283 87.2499 36.4796C87.1529 36.6268 87.106 36.8013 87.1096 37.0033C87.1149 37.3103 87.2266 37.5428 87.4446 37.7006C87.6664 37.8583 87.9448 37.9344 88.2794 37.9286Z" fill="white"/>
<path d="M94.6806 39.5989L94.5181 30.2912L97.4403 30.2402L97.6028 39.5479L94.6806 39.5989ZM95.9633 29.181C95.5529 29.1882 95.198 29.057 94.8984 28.7874C94.5987 28.5138 94.4454 28.1811 94.4386 27.7892C94.4318 27.4014 94.5735 27.0675 94.8635 26.7876C95.1534 26.5038 95.5035 26.3583 95.9139 26.3511C96.3281 26.3439 96.6832 26.4771 96.9788 26.7507C97.2784 27.0203 97.4317 27.3491 97.4384 27.7368C97.4453 28.1287 97.3037 28.4666 97.0138 28.7505C96.7277 29.0303 96.3775 29.1738 95.9633 29.181Z" fill="white"/>
<path d="M101.109 39.6625C100.679 39.67 100.308 39.5229 99.9955 39.2212C99.6873 38.9195 99.5316 38.5504 99.5279 38.114C99.5165 37.6859 99.6594 37.3177 99.9568 37.0094C100.258 36.6971 100.624 36.5372 101.054 36.5297C101.461 36.5226 101.822 36.6698 102.138 36.9713C102.458 37.2689 102.624 37.6317 102.635 38.0598C102.636 38.3508 102.565 38.6168 102.422 38.8577C102.283 39.0985 102.097 39.2916 101.864 39.4371C101.636 39.5826 101.384 39.6577 101.109 39.6625Z" fill="white"/>
<path d="M108.883 39.5268C107.923 39.5435 107.091 39.366 106.387 38.9945C105.687 38.6187 105.144 38.0766 104.757 37.3681C104.374 36.6555 104.174 35.8044 104.157 34.8145C104.14 33.8531 104.312 33.0096 104.674 32.2839C105.036 31.5543 105.554 30.9835 106.229 30.5718C106.903 30.1559 107.702 29.9398 108.626 29.9237C109.28 29.9123 109.879 30.0049 110.424 30.2014C110.97 30.398 111.443 30.6948 111.844 31.0919C112.246 31.489 112.561 31.9827 112.791 32.5727C113.02 33.1585 113.142 33.8334 113.155 34.5968L113.168 35.3361L107.049 35.4429L107.019 33.722L110.419 33.6627C110.409 33.3476 110.331 33.0682 110.183 32.8243C110.035 32.5804 109.835 32.3918 109.581 32.2588C109.332 32.1218 109.046 32.0561 108.723 32.0617C108.397 32.0674 108.105 32.1472 107.849 32.3012C107.592 32.4512 107.391 32.6547 107.244 32.9119C107.097 33.1651 107.022 33.4511 107.02 33.7705L107.05 35.5217C107.057 35.9015 107.136 36.2334 107.289 36.5177C107.441 36.7979 107.654 37.0144 107.928 37.1672C108.201 37.3201 108.525 37.3932 108.9 37.3867C109.159 37.3822 109.393 37.3418 109.603 37.2653C109.813 37.189 109.992 37.0787 110.141 36.9347C110.29 36.7906 110.401 36.615 110.473 36.4076L113.157 36.4396C113.056 37.0516 112.821 37.5869 112.45 38.046C112.083 38.5011 111.598 38.859 110.992 39.1201C110.387 39.3772 109.684 39.5128 108.883 39.5268Z" fill="white"/>
<path d="M122.63 32.6433L119.948 32.763C119.917 32.5695 119.838 32.3992 119.712 32.2517C119.585 32.1005 119.422 31.9841 119.221 31.9027C119.025 31.8172 118.797 31.7768 118.538 31.7813C118.199 31.7873 117.912 31.861 117.675 32.0025C117.442 32.144 117.33 32.3317 117.338 32.566C117.337 32.7478 117.412 32.9041 117.562 33.0349C117.715 33.1655 117.986 33.2679 118.374 33.3419L120.149 33.6505C121.068 33.8122 121.754 34.0953 122.208 34.4994C122.665 34.9037 122.902 35.445 122.917 36.1237C122.925 36.7621 122.747 37.3208 122.385 37.8C122.027 38.279 121.531 38.6554 120.898 38.9291C120.265 39.1988 119.539 39.3408 118.718 39.3551C117.407 39.378 116.369 39.1233 115.602 38.5912C114.84 38.0548 114.397 37.3272 114.273 36.408L117.158 36.2848C117.228 36.6231 117.398 36.8788 117.668 37.0519C117.938 37.225 118.28 37.3079 118.694 37.3007C119.068 37.2941 119.372 37.2181 119.605 37.0725C119.837 36.9271 119.953 36.7372 119.953 36.5027C119.946 36.2928 119.851 36.1267 119.67 36.0046C119.488 35.8784 119.205 35.7824 118.822 35.7164L117.215 35.4352C116.292 35.2816 115.601 34.9805 115.143 34.5319C114.685 34.0793 114.451 33.4973 114.443 32.7862C114.428 32.1642 114.582 31.6301 114.905 31.184C115.228 30.7339 115.692 30.3862 116.298 30.1414C116.903 29.8964 117.62 29.7667 118.449 29.7522C119.692 29.7305 120.676 29.9781 121.403 30.4948C122.129 31.0074 122.538 31.7236 122.63 32.6433Z" fill="white"/>
</g>
<defs>
<clipPath id="clip0_1_1831">
<rect width="122.311" height="64" fill="white" transform="translate(-0.0055542 2.13455) rotate(-1)"/>
</clipPath>
</defs>
</svg>
