<svg width="60" height="65" viewBox="0 0 60 65" fill="none" xmlns="http://www.w3.org/2000/svg">
<g clip-path="url(#clip0_1_1889)">
<path d="M23.7359 40.6831C23.7409 41.6948 23.7017 40.8986 23.667 38.9138C23.6324 36.9288 23.6433 36.1066 23.673 37.0799C23.7153 38.053 23.7435 39.6712 23.7359 40.6831Z" fill="white" fill-opacity="0.38"/>
<path d="M22.9878 35.473C22.6471 35.5042 22.0155 35.5153 21.5982 35.4972C21.1808 35.4793 21.4586 35.4618 22.2292 35.4484C22.9998 35.4349 23.3411 35.4416 22.9878 35.473Z" fill="white" fill-opacity="0.71"/>
<path fill-rule="evenodd" clip-rule="evenodd" d="M19.0062 35.4158C19.3227 35.4483 19.7287 35.5424 19.9326 35.6399C20.1239 35.7377 20.393 35.9481 20.535 36.1227C20.677 36.2972 20.8184 36.4338 20.8563 36.4332C20.8942 36.4325 20.9159 36.2299 20.904 35.5472L23.5569 35.5009L23.5869 39.3955C23.61 42.8857 23.5926 43.3413 23.3752 43.9142C23.2549 44.2577 22.9228 44.782 22.65 45.0776C22.352 45.3864 21.8649 45.7111 21.4257 45.8832C20.8485 46.1208 20.4451 46.1785 19.3587 46.1975C18.6007 46.2107 17.7026 46.1504 17.3597 46.0553C17.0045 45.973 16.5342 45.8168 16.3048 45.707C16.0877 45.5843 15.8963 45.4737 15.8957 45.4359C15.895 45.3979 16.0894 44.9519 16.3335 44.4545C16.5773 43.9442 16.797 43.4977 16.8215 43.4595C16.8461 43.4211 17.189 43.5162 17.5709 43.674C18.0796 43.8675 18.5232 43.9356 19.1927 43.9239C19.799 43.9133 20.2022 43.8431 20.3769 43.7135C20.5392 43.6095 20.7497 43.3529 20.8469 43.1362C20.9445 42.9322 21.0254 42.5008 21.0199 42.1847C21.0144 41.8687 20.9846 41.6162 20.9595 41.6166C20.9215 41.6173 20.7475 41.7847 20.5489 41.9906C20.3627 42.1835 19.9501 42.4311 19.6358 42.525C19.2962 42.6194 18.8043 42.666 18.3738 42.6229C17.994 42.579 17.4484 42.4494 17.1683 42.3278C16.8881 42.2063 16.466 41.9101 16.2342 41.6612C16.0018 41.3871 15.728 40.8985 15.607 40.4833C15.4594 39.9927 15.3997 39.4625 15.4271 38.8677C15.4561 38.3486 15.5842 37.7267 15.7418 37.3445C15.8874 37.0005 16.1573 36.5405 16.3436 36.3477C16.5295 36.142 16.8409 35.8836 17.054 35.7787C17.2667 35.6611 17.6561 35.5279 17.9331 35.4726C18.21 35.4044 18.6897 35.3834 19.0062 35.4158ZM18.4667 39.2572C18.5242 39.6483 18.6551 39.9116 18.886 40.1099C19.0782 40.2583 19.3836 40.3794 19.611 40.3754C19.8762 40.3708 20.114 40.2402 20.3623 39.983C20.6228 39.7002 20.7197 39.4709 20.7142 39.1548C20.71 38.9146 20.6412 38.5869 20.5501 38.4368C20.4714 38.2737 20.3165 38.0868 20.2013 38.0002C20.086 37.9137 19.8069 37.8426 19.5795 37.8466C19.2636 37.8521 19.0632 37.9569 18.7655 38.2782C18.4183 38.6511 18.3945 38.74 18.4667 39.2572Z" fill="white"/>
<path d="M41.3195 27.2864C41.3336 28.8165 41.2987 27.5397 41.2447 24.4423C41.1906 21.3448 41.1813 20.0929 41.2213 21.6603C41.274 23.2276 41.3181 25.7562 41.3195 27.2864Z" fill="white" fill-opacity="0.16"/>
<path d="M7.08714 22.2183C6.39279 22.2557 5.28111 22.2751 4.62377 22.2613C3.96665 22.2601 4.53467 22.2249 5.88637 22.2013C7.23807 22.1777 7.78172 22.1935 7.08714 22.2183Z" fill="white" fill-opacity="0.16"/>
<path d="M3.59583 23.4553C3.57476 23.696 3.54707 23.5574 3.53979 23.1402C3.53251 22.723 3.55423 22.5202 3.58259 22.6968C3.61095 22.8732 3.61691 23.2147 3.59583 23.4553Z" fill="white" fill-opacity="0.16"/>
<path d="M19.8792 22.4376C19.3105 22.4349 18.615 22.4091 18.337 22.4013C18.0585 22.3808 18.5002 22.3478 19.3085 22.321C20.1294 22.2942 20.8246 22.3072 20.851 22.37C20.8772 22.4202 20.4354 22.4531 19.8792 22.4376Z" fill="white" fill-opacity="0.16"/>
<path d="M7.2924 25.2879C7.27265 25.6044 7.24341 25.3772 7.23303 24.783C7.22266 24.1888 7.24351 23.9354 7.27364 24.2131C7.30375 24.4908 7.31214 24.9713 7.2924 25.2879Z" fill="white" fill-opacity="0.16"/>
<path d="M58.1487 28.5736C58.1475 29.2312 58.1122 28.6627 58.0886 27.31C58.065 25.9572 58.0808 25.4131 58.1056 26.1083C58.1429 26.8032 58.1624 27.9158 58.1487 28.5736Z" fill="white" fill-opacity="0.16"/>
<path d="M46.4002 28.7787C46.3979 29.3732 46.3648 28.9184 46.3447 27.7679C46.3246 26.6173 46.3414 26.1365 46.3638 26.6926C46.3988 27.2485 46.4151 28.184 46.4002 28.7787Z" fill="white" fill-opacity="0.16"/>
<path d="M3.70396 29.6504C3.70171 30.2449 3.66849 29.7902 3.64841 28.6396C3.62833 27.4892 3.64521 27.0083 3.66755 27.5644C3.70253 28.1202 3.71886 29.0557 3.70396 29.6504Z" fill="white" fill-opacity="0.16"/>
<path d="M21.0086 29.2219C21.0063 29.8164 20.9735 29.387 20.954 28.2744C20.9346 27.1618 20.9515 26.6809 20.9733 27.199C21.0075 27.717 21.0234 28.6272 21.0086 29.2219Z" fill="white" fill-opacity="0.16"/>
<path d="M44.3922 29.5726C44.3712 29.8132 44.343 29.6493 44.3351 29.1941C44.3272 28.7391 44.3489 28.5363 44.3778 28.7507C44.4069 28.9653 44.4133 29.3319 44.3922 29.5726Z" fill="white" fill-opacity="0.16"/>
<path d="M11.4189 39.4435C11.3712 37.4335 11.3538 35.7139 11.3775 35.6249C11.4012 35.536 11.4883 35.4586 11.577 35.4696C11.7033 35.4674 11.7035 35.4801 11.5907 35.5327C11.4651 35.5728 11.4302 36.4713 11.4955 43.1098L11.4189 39.4435Z" fill="white" fill-opacity="0.21"/>
<path d="M34.413 37.0187C34.3925 37.2973 34.3748 37.0067 34.364 36.3872C34.3532 35.7676 34.3616 35.5272 34.3931 35.8808C34.4243 36.2217 34.4333 36.7401 34.413 37.0187Z" fill="white" fill-opacity="0.21"/>
<path d="M28.0333 40.7344C28.0383 41.7461 27.9995 40.9752 27.9655 39.0282C27.9315 37.0812 27.9425 36.259 27.9715 37.1943C28.013 38.1294 28.0408 39.7225 28.0333 40.7344Z" fill="white" fill-opacity="0.21"/>
<path d="M39.3369 38.2227C38.9964 38.2539 38.4532 38.2634 38.1369 38.2436C37.8206 38.224 38.1109 38.2062 38.7679 38.1948C39.4247 38.1833 39.6903 38.1913 39.3369 38.2227Z" fill="white" fill-opacity="0.21"/>
<path d="M43.9349 39.5718C43.9447 40.8615 43.9126 39.7492 43.8665 37.1068C43.8204 34.4644 43.8147 33.4148 43.851 34.7674C43.8999 36.1197 43.9377 38.2818 43.9349 39.5718Z" fill="white" fill-opacity="0.22"/>
<path d="M28.8512 36.9262C28.8314 37.2428 28.8027 37.0409 28.793 36.4846C28.7833 35.9283 28.8041 35.675 28.8336 35.9149C28.8631 36.1546 28.871 36.6098 28.8512 36.9262Z" fill="white" fill-opacity="0.22"/>
<path d="M0.768648 42.4752C0.747575 42.7158 0.719442 42.552 0.711497 42.0968C0.703552 41.6416 0.725288 41.439 0.754303 41.6534C0.783319 41.8678 0.789721 42.2345 0.768648 42.4752Z" fill="white" fill-opacity="0.22"/>
<path d="M8.06248 19.4569L4.32254 19.4844L0.595459 19.5241L8.17507 19.3918L8.23625 22.173L8.06248 19.4569Z" fill="white" fill-opacity="0.33"/>
<path d="M43.4836 18.7882C43.0924 18.8203 42.4103 18.8322 41.968 18.8273C41.5128 18.8099 41.8282 18.7791 42.6619 18.7645C43.4956 18.75 43.8623 18.7689 43.4836 18.7882Z" fill="white" fill-opacity="0.33"/>
<path d="M4.04486 43.3918C3.48925 43.4142 2.51654 43.4311 1.89731 43.4293C1.26523 43.415 1.71957 43.3817 2.90704 43.361C4.08189 43.3405 4.60027 43.3568 4.04486 43.3918Z" fill="white" fill-opacity="0.33"/>
<path d="M13.456 43.2148C13.065 43.2596 12.4713 43.27 12.1296 43.238C11.7754 43.2188 12.091 43.2007 12.8237 43.1879C13.5438 43.1753 13.8345 43.1829 13.456 43.2148Z" fill="white" fill-opacity="0.33"/>
<path d="M27.2256 42.9745C26.8346 43.0193 26.2409 43.0296 25.8991 42.9976C25.545 42.9785 25.8606 42.9603 26.5932 42.9475C27.3133 42.9349 27.6041 42.9425 27.2256 42.9745Z" fill="white" fill-opacity="0.33"/>
<path d="M42.0059 42.7165C41.6905 42.7473 41.1222 42.7699 40.7426 42.7386C40.3505 42.7201 40.6157 42.7028 41.3105 42.6907C42.0052 42.6785 42.3086 42.6859 42.0059 42.7165Z" fill="white" fill-opacity="0.33"/>
<path d="M45.922 42.6482C45.531 42.693 44.9373 42.7033 44.5955 42.6713C44.2414 42.6522 44.557 42.634 45.2897 42.6212C46.0098 42.6087 46.3005 42.6162 45.922 42.6482Z" fill="white" fill-opacity="0.33"/>
<path d="M29.9464 34.504C29.9266 34.8206 29.8973 34.5935 29.8869 33.9992C29.8765 33.405 29.8974 33.1517 29.9276 33.4294C29.9576 33.7071 29.966 34.1876 29.9464 34.504Z" fill="white" fill-opacity="0.38"/>
<path d="M32.7288 34.6452C32.7097 34.9996 32.6924 34.7343 32.6809 34.0769C32.6695 33.4195 32.677 33.1285 32.7079 33.4442C32.7386 33.7597 32.7478 34.2907 32.7288 34.6452Z" fill="white" fill-opacity="0.38"/>
<path d="M14.2384 43.1505C14.1887 43.2019 14.1463 41.4953 14.1469 39.3581L14.1423 35.4755L14.2338 39.2679C14.2955 41.3536 14.3007 43.0988 14.2384 43.1505Z" fill="white" fill-opacity="0.38"/>
<path d="M32.8105 39.3232C32.7911 39.6649 32.7741 39.4123 32.7626 38.7549C32.7511 38.0974 32.7587 37.8063 32.7895 38.122C32.8202 38.4377 32.8295 38.9687 32.8105 39.3232Z" fill="white" fill-opacity="0.38"/>
<path d="M30.0434 40.067C30.0247 40.4467 30.0077 40.1941 29.9955 39.4987C29.9834 38.8034 29.9905 38.4871 30.0214 38.8027C30.0521 39.1183 30.062 39.6872 30.0434 40.067Z" fill="white" fill-opacity="0.38"/>
<path d="M0.597113 25.4051C0.603238 26.4799 0.563187 25.6332 0.526111 23.5092C0.489038 21.3853 0.498855 20.4998 0.529803 21.5489C0.573165 22.5852 0.603618 24.3299 0.597113 25.4051Z" fill="white" fill-opacity="0.38"/>
<path d="M16.6448 30.4366L16.6278 28.0087L16.623 25.568L16.6891 27.9064C16.737 29.1956 16.744 30.3211 16.7075 30.4102C16.659 30.5248 16.2932 30.5565 14.0565 30.5576L16.6448 30.4366Z" fill="white" fill-opacity="0.38"/>
<path d="M0.656894 28.8312C0.62319 29.0722 0.606584 28.8448 0.597536 28.3265C0.588268 27.7955 0.59759 27.6056 0.640343 27.8831C0.670463 28.1608 0.677745 28.578 0.656894 28.8312Z" fill="white" fill-opacity="0.38"/>
<path d="M2.92751 30.7772C2.58687 30.8084 1.95523 30.8195 1.53791 30.8014C1.12059 30.7834 1.4107 30.7532 2.16867 30.7399C2.93925 30.7265 3.28077 30.7457 2.92751 30.7772Z" fill="white" fill-opacity="0.38"/>
<path d="M20.2343 30.4751C19.8936 30.5063 19.2621 30.5173 18.8447 30.4993C18.4274 30.4813 18.7176 30.451 19.4755 30.4378C20.2461 30.4244 20.5875 30.4436 20.2343 30.4751Z" fill="white" fill-opacity="0.38"/>
<path d="M31.4143 30.2799C31.0357 30.3119 30.4419 30.3222 30.0878 30.3031C29.7462 30.2837 30.0616 30.2531 30.7817 30.2405C31.5143 30.2277 31.8054 30.2478 31.4143 30.2799Z" fill="white" fill-opacity="0.38"/>
<path d="M43.6048 30.0672C43.2641 30.0984 42.6325 30.1095 42.2153 30.0914C41.7979 30.0734 42.088 30.0431 42.8459 30.0299C43.6165 30.0165 43.9581 30.0357 43.6048 30.0672Z" fill="white" fill-opacity="0.38"/>
<path d="M48.4683 29.9822C48.1656 30.0128 47.5971 30.0228 47.205 30.0043C46.8256 29.9856 47.0779 29.956 47.7727 29.9439C48.4675 29.9317 48.7837 29.9514 48.4683 29.9822Z" fill="white" fill-opacity="0.38"/>
<path d="M57.3112 29.8279C56.9327 29.8598 56.3389 29.8702 55.9848 29.8511C55.6432 29.8317 55.9586 29.801 56.6787 29.7885C57.4115 29.7757 57.7024 29.7958 57.3112 29.8279Z" fill="white" fill-opacity="0.38"/>
<path d="M46.7196 39.8394C46.7326 41.3063 46.6995 40.1306 46.6491 37.2481C46.5988 34.3654 46.5905 33.1642 46.628 34.5926C46.6782 36.0207 46.7193 38.3725 46.7196 39.8394Z" fill="white" fill-opacity="0.39"/>
<path d="M32.0414 32.9121C31.7007 32.9434 31.0692 32.9544 30.6518 32.9364C30.2345 32.9185 30.5122 32.901 31.2828 32.8875C32.0534 32.8741 32.3948 32.8808 32.0414 32.9121Z" fill="white" fill-opacity="0.39"/>
<path d="M44.1047 20.3452C44.085 20.6616 44.0557 20.4345 44.0453 19.8402C44.035 19.246 44.0559 18.9927 44.0859 19.2704C44.1161 19.5481 44.1245 20.0286 44.1047 20.3452Z" fill="white" fill-opacity="0.51"/>
<path d="M23.7048 24.432C23.6869 24.8497 23.6688 24.5338 23.6549 23.7373C23.641 22.9408 23.6477 22.5992 23.6794 22.978C23.7114 23.357 23.7229 24.0143 23.7048 24.432Z" fill="white" fill-opacity="0.51"/>
<path d="M49.3056 28.7277C49.3044 29.3853 49.2689 28.7916 49.2446 27.4009C49.2204 26.0102 49.236 25.466 49.2615 26.1991C49.2996 26.932 49.3195 28.0699 49.3056 28.7277Z" fill="white" fill-opacity="0.51"/>
<path d="M6.4042 26.5298C5.91196 26.5637 5.09084 26.578 4.57246 26.5618C4.0543 26.5582 4.44547 26.526 5.45609 26.5084C6.46671 26.4907 6.88402 26.5088 6.4042 26.5298Z" fill="white" fill-opacity="0.51"/>
<path d="M44.1379 22.242C44.1168 22.4826 44.0875 22.2555 44.0785 21.7372C44.0694 21.2187 44.0912 21.0161 44.1213 21.2938C44.1514 21.5715 44.1589 22.0014 44.1379 22.242Z" fill="white" fill-opacity="0.63"/>
<path d="M18.0898 28.5141C18.0959 29.5891 18.0547 28.6792 18.0165 26.492C17.9783 24.3048 17.9882 23.4193 18.0202 24.5317C18.065 25.6438 18.0963 27.4391 18.0898 28.5141Z" fill="white" fill-opacity="0.63"/>
<path d="M6.10523 23.8796C5.613 23.9136 4.85503 23.9268 4.39982 23.9094C3.9446 23.892 4.34863 23.8723 5.28344 23.856C6.21825 23.8397 6.58483 23.846 6.10523 23.8796Z" fill="white" fill-opacity="0.63"/>
<path d="M32.1241 28.9647C32.1236 29.6605 32.0896 29.1551 32.0664 27.8277C32.0435 26.5127 32.0587 25.9433 32.0822 26.5627C32.1185 27.1943 32.1373 28.2689 32.1241 28.9647Z" fill="white" fill-opacity="0.63"/>
<path d="M44.2339 27.7417C44.2159 28.1594 44.1984 27.8815 44.1849 27.1102C44.1717 26.3517 44.1784 26.01 44.2097 26.351C44.241 26.7045 44.2518 27.3241 44.2339 27.7417Z" fill="white" fill-opacity="0.63"/>
<path d="M0.864131 40.703C0.877541 42.1952 0.844162 41.0069 0.792522 38.0484C0.740881 35.0899 0.732108 33.8633 0.770342 35.3298C0.821205 36.7958 0.863356 39.2107 0.864131 40.703Z" fill="white" fill-opacity="0.71"/>
<path d="M3.92269 32.7707C3.4052 32.8049 2.49564 32.8208 1.90147 32.806C1.30751 32.8037 1.73658 32.7709 2.84826 32.7515C3.95994 32.7321 4.44042 32.749 3.92269 32.7707Z" fill="white" fill-opacity="0.71"/>
<path d="M45.9264 32.0375C45.5857 32.0686 44.9541 32.0797 44.5368 32.0618C44.1194 32.0437 44.3972 32.0262 45.1678 32.0128C45.9384 31.9993 46.2796 32.006 45.9264 32.0375Z" fill="white" fill-opacity="0.71"/>
<path d="M13.5133 35.6385C13.1727 35.6698 12.5411 35.6808 12.1238 35.6628C11.7064 35.6447 11.9968 35.627 12.7547 35.6138C13.5127 35.6005 13.8666 35.607 13.5133 35.6385Z" fill="white" fill-opacity="0.71"/>
<path d="M25.1907 39.3299C25.143 37.3198 25.1256 35.6002 25.1494 35.5112C25.185 35.3841 25.5509 35.3524 27.9139 35.3492L25.1992 35.4725L25.2674 42.9962L25.1907 39.3299Z" fill="white" fill-opacity="0.71"/>
<path d="M33.9151 35.2824C33.6755 35.3119 33.2966 35.3185 33.0939 35.2967C32.8914 35.2749 33.0804 35.2463 33.5353 35.2384C33.9901 35.2305 34.1547 35.2529 33.9151 35.2824Z" fill="white" fill-opacity="0.71"/>
<path d="M42.7048 41.4903C42.7036 42.148 42.6695 41.6426 42.647 40.3532C42.6245 39.0636 42.6405 38.5321 42.664 39.1513C42.7 39.7705 42.7185 40.8324 42.7048 41.4903Z" fill="white" fill-opacity="0.71"/>
<path d="M34.2866 37.0211C34.2661 37.2997 34.2484 37.0091 34.2376 36.3897C34.2268 35.7701 34.2352 35.5297 34.2667 35.8833C34.2979 36.2242 34.3069 36.7425 34.2866 37.0211Z" fill="white" fill-opacity="0.79"/>
<path d="M39.4654 38.3471C39.188 38.3773 38.6826 38.3861 38.3285 38.367C37.9869 38.3476 38.2141 38.3311 38.8331 38.3203C39.4648 38.3093 39.743 38.317 39.4654 38.3471Z" fill="white" fill-opacity="0.79"/>
<path d="M3.47696 23.8877C3.426 23.8632 3.39367 23.4591 3.38551 22.9914C3.38975 22.5107 3.41038 22.2448 3.43808 22.3834C3.46576 22.522 3.51073 22.9259 3.52976 23.2924C3.56121 23.6459 3.54057 23.9119 3.47696 23.8877Z" fill="white" fill-opacity="0.8"/>
<path d="M20.234 22.4949C19.8806 22.5264 19.2616 22.5372 18.8444 22.5192C18.427 22.5011 18.7048 22.4836 19.4754 22.4702C20.246 22.4567 20.5745 22.4636 20.234 22.4949Z" fill="white" fill-opacity="0.8"/>
<path d="M41.4623 28.2329C41.4675 29.2444 41.4267 28.36 41.3903 26.2739C41.3539 24.1877 41.3648 23.3654 41.3961 24.44C41.4402 25.5141 41.47 27.221 41.4623 28.2329Z" fill="white" fill-opacity="0.8"/>
<path d="M12.6096 25.853C13.4557 25.8255 13.7831 25.7567 13.7813 25.6554C13.7798 25.567 13.817 25.5283 13.8686 25.5907C13.9201 25.6403 13.9092 25.7418 13.8221 25.8191C13.7476 25.8964 13.2175 25.9308 11.4478 25.8986L12.6096 25.853Z" fill="white" fill-opacity="0.8"/>
<path d="M58.0223 28.5761C58.0211 29.2337 57.9858 28.6652 57.9622 27.3125C57.9386 25.9597 57.9544 25.4157 57.9792 26.1108C58.0167 26.8057 58.0361 27.9183 58.0223 28.5761Z" fill="white" fill-opacity="0.8"/>
<path d="M28.8184 25.6333C28.503 25.664 27.9345 25.674 27.5551 25.6554C27.1757 25.6367 27.4282 25.6196 28.123 25.6075C28.8177 25.5954 29.1338 25.6025 28.8184 25.6333Z" fill="white" fill-opacity="0.8"/>
<path d="M54.7154 25.1813C54.4 25.2119 53.8315 25.2219 53.4521 25.2033C53.0727 25.1846 53.3251 25.1675 54.0199 25.1554C54.7147 25.1433 55.0308 25.1504 54.7154 25.1813Z" fill="white" fill-opacity="0.8"/>
<path d="M3.57756 29.6529C3.5753 30.2474 3.54209 29.7926 3.522 28.6421C3.50192 27.4917 3.51881 27.0107 3.54114 27.5668C3.57612 28.1226 3.59245 29.0582 3.57756 29.6529Z" fill="white" fill-opacity="0.8"/>
<path d="M44.2659 29.5751C44.2448 29.8157 44.2166 29.6518 44.2087 29.1966C44.2007 28.7415 44.2227 28.5514 44.2516 28.7532C44.2805 28.9677 44.2869 29.3343 44.2659 29.5751Z" fill="white" fill-opacity="0.8"/>
<path fill-rule="evenodd" clip-rule="evenodd" d="M12.6645 31.8971C12.854 31.8938 13.1714 31.9767 13.3879 32.074C13.6044 32.1715 13.8615 32.42 13.9663 32.6331C14.0711 32.8463 14.1648 33.1481 14.1679 33.3251C14.171 33.5022 14.0879 33.8072 13.9906 34.0238C13.8933 34.2406 13.6197 34.4982 13.407 34.6158C13.1315 34.7597 12.8416 34.8027 12.5502 34.7572C12.3095 34.7234 11.9524 34.54 11.7468 34.3412C11.554 34.1549 11.359 33.8421 11.3173 33.6278C11.2628 33.4012 11.3076 33.0715 11.4293 32.8038C11.5388 32.5616 11.7735 32.254 11.9611 32.1369C12.161 32.007 12.4624 31.9006 12.6645 31.8971ZM26.5866 31.7045C26.9285 31.7492 27.2216 31.8832 27.4788 32.1443C27.7874 32.4425 27.8665 32.6307 27.8742 33.0732C27.8822 33.5284 27.8097 33.7194 27.5119 34.0407C27.2885 34.2723 26.9634 34.4676 26.6988 34.5102C26.4467 34.5526 26.1051 34.5206 25.8884 34.4232C25.6848 34.3383 25.4032 34.1281 25.2737 33.9533C25.1317 33.7788 25.0246 33.4392 25.0324 33.1608C25.028 32.908 25.0729 32.5783 25.1463 32.4379C25.2196 32.2975 25.4557 32.0658 25.6804 31.9101C25.9803 31.7151 26.2068 31.6607 26.5866 31.7045ZM48.8303 31.8981C49.0072 31.895 49.299 31.9658 49.5028 32.0634C49.6939 32.1486 50.1046 32.5082 50.4264 32.844C50.7482 33.1799 51.1497 33.742 51.3198 34.0804C51.5948 34.6321 51.6099 34.7709 51.507 35.3925C51.4505 35.7729 51.3079 36.2938 51.211 36.5359C51.1016 36.7781 50.8186 37.213 50.1753 38.0083L49.8117 37.4455C49.604 37.1331 49.3689 36.6945 49.2639 36.4686C49.1717 36.2553 49.0909 35.9658 49.0887 35.8394C49.074 35.7259 49.1716 35.5217 49.2959 35.4058C49.42 35.2772 49.8719 35.1048 50.3126 35.0087C50.7531 34.9124 51.0669 34.7931 51.0027 34.7311C50.9512 34.6813 50.7232 34.6473 50.5211 34.6508C50.319 34.6544 49.9265 34.6107 49.6476 34.565C49.2549 34.5085 49.114 34.3972 48.9309 34.0463C48.8004 33.8082 48.6269 33.2801 48.5441 32.8769C48.4615 32.4863 48.4166 32.095 48.4535 32.0311C48.5029 31.9671 48.666 31.9009 48.8303 31.8981ZM54.3634 31.8015C54.6666 31.7962 54.7053 31.8462 54.7117 32.2127C54.7155 32.4278 54.6481 32.9094 54.553 33.2526C54.4581 33.6083 54.2756 34.0162 54.1522 34.1828C53.9795 34.426 53.7661 34.5057 53.0724 34.581C52.6059 34.6398 52.228 34.7097 52.2287 34.7475C52.2294 34.7855 52.4832 34.8443 52.8001 34.9019C53.1168 34.9471 53.5485 35.066 53.7523 35.1636C53.9563 35.2611 54.1747 35.4724 54.2156 35.6361C54.2691 35.8121 54.1618 36.1808 53.9178 36.6783C53.7229 37.099 53.4657 37.5588 53.367 37.6997C53.1818 37.9558 53.1691 37.9434 52.8469 37.5823C52.6789 37.3703 52.3805 36.9328 52.1976 36.5818C52.0147 36.2436 51.8272 35.6398 51.7701 35.2615C51.7099 34.706 51.7436 34.4651 51.9386 34.057C52.0728 33.7764 52.3923 33.265 52.6641 32.9061C52.9234 32.5602 53.3461 32.1608 53.5842 32.0427C53.822 31.9121 54.1612 31.805 54.3634 31.8015ZM0.765132 32.8635L3.01375 32.8242C4.60547 32.7965 5.46537 32.8321 5.98574 32.9621C6.37912 33.0564 6.97682 33.2736 7.32078 33.432C7.6521 33.5906 8.17643 33.9482 8.49688 34.2083C8.81757 34.4809 9.25678 35.0297 9.49146 35.443C9.72612 35.8562 9.97873 36.5727 10.0884 37.0639C10.2271 37.7698 10.233 38.1112 10.1182 38.7708C10.0377 39.2275 9.83443 39.8887 9.67616 40.2328C9.51811 40.5897 9.12357 41.1531 8.78845 41.5003C8.45332 41.8477 7.817 42.3141 7.31588 42.5631C6.78995 42.8379 6.08627 43.0652 5.55702 43.1503C5.07808 43.2219 3.84118 43.3067 0.9483 43.3572L0.765132 32.8635ZM3.68226 40.7169C5.00604 40.542 5.6348 40.3666 5.94774 40.1967C6.24828 40.0397 6.65899 39.6785 6.84362 39.3971C7.04089 39.1154 7.22244 38.6569 7.25548 38.3781C7.28852 38.0993 7.24224 37.6194 7.16091 37.3048C7.05324 36.9272 6.82381 36.5729 6.47263 36.2417C6.11287 35.9024 5.73421 35.6855 5.33663 35.5913C4.994 35.5088 4.47496 35.4546 4.15913 35.4601L3.59067 35.47L3.68226 40.7169ZM43.8425 32.1116L46.4954 32.0653L46.6786 42.559L44.0257 42.6053L43.8425 32.1116ZM29.9577 32.9864L32.6358 32.9396L32.7146 35.2779L34.1684 35.3156L34.2059 37.465L32.6899 37.4915L32.712 38.7558C32.7241 39.4511 32.7993 40.1327 32.8649 40.2707C32.9695 40.4713 33.0964 40.5071 33.9411 40.391L34.3346 41.2188C34.5573 41.6703 34.7417 42.0971 34.7681 42.1599C34.7816 42.2102 34.5069 42.4047 34.1437 42.5881C33.6676 42.824 33.2775 42.9193 32.7217 42.929C32.2669 42.937 31.7599 42.8447 31.4545 42.7236C31.1743 42.602 30.8158 42.33 30.6607 42.1303C30.4929 41.931 30.2959 41.5044 30.227 41.1768C30.1579 40.8366 30.0782 39.8893 30.0372 37.5378L28.9001 37.5576L28.8626 35.4083L29.9996 35.3884L29.9577 32.9864ZM39.092 35.0527C39.4716 35.084 40.0421 35.1879 40.3595 35.2709C40.6771 35.3665 41.1618 35.6236 41.431 35.8466C41.7129 36.0693 42.0612 36.4805 42.2051 36.7563C42.4533 37.2199 42.4834 37.4976 42.6361 42.6295L41.4361 42.6505C40.2486 42.6712 40.2359 42.6714 40.2304 42.3553C40.2273 42.1784 40.1744 42.0402 40.0986 42.0415C40.0354 42.0426 39.9479 42.0947 39.9112 42.1713C39.8747 42.2477 39.6125 42.4294 39.3244 42.5735C38.886 42.7961 38.6216 42.8514 37.9006 42.8133C37.3569 42.7976 36.8244 42.693 36.5186 42.5467C36.2383 42.4125 35.9054 42.1652 35.776 41.9905C35.6339 41.8159 35.4881 41.4264 35.4448 41.111C35.4013 40.7955 35.3931 40.3278 35.4393 40.074C35.4725 39.8078 35.6677 39.4124 35.8535 39.1942C36.0391 38.9633 36.3254 38.718 36.5012 38.6516C36.6767 38.5728 37.5215 38.4695 39.9703 38.3129L39.9384 37.9341C39.922 37.7194 39.7784 37.4564 39.612 37.3327C39.4455 37.2091 39.1154 37.1137 38.8754 37.1179C38.6354 37.1221 38.2836 37.2421 37.7474 37.6561L36.6172 37.3344C35.6137 37.0357 35.4989 36.9745 35.5967 36.7831C35.6576 36.6556 35.905 36.3478 36.1408 36.1034C36.3767 35.8589 36.7631 35.5612 36.9886 35.4435C37.214 35.3258 37.6157 35.1797 37.8926 35.1115C38.1696 35.0562 38.7126 35.0341 39.092 35.0527ZM38.1509 40.4946C38.1666 40.6715 38.2704 40.8341 38.3722 40.8701C38.474 40.9063 38.7396 40.927 38.9543 40.9233C39.1944 40.9191 39.4451 40.8009 39.6438 40.595C39.8048 40.4151 39.9399 40.1852 39.9381 40.0841C39.9357 39.945 39.7832 39.897 39.2778 39.9059C38.9115 39.9122 38.5083 39.9826 38.3707 40.0608C38.2205 40.1394 38.1349 40.3052 38.1509 40.4946ZM11.4296 35.7125L14.0824 35.6662L14.2126 43.1257L11.5598 43.172L11.4296 35.7125ZM25.1992 35.4722L27.852 35.4259L27.9191 42.8864L25.3294 42.9316L25.1992 35.4722Z" fill="white"/>
<path fill-rule="evenodd" clip-rule="evenodd" d="M0.533386 19.5885L8.113 19.4562L8.15935 22.1112L3.35893 22.195L3.45188 23.9006L7.17962 23.8989L7.22376 26.4275L3.49822 26.5557L3.50678 30.6658L0.727587 30.7143L0.533386 19.5885ZM41.1727 18.8792L43.9899 18.83L44.0252 20.8528C44.0446 21.9654 44.0983 22.8751 44.1615 22.874C44.2121 22.8731 44.3864 22.7309 44.5602 22.5508C44.734 22.3707 45.0961 22.1241 45.3722 22.0181C45.6859 21.8862 46.1272 21.8279 46.5698 21.8455C46.9492 21.8642 47.4948 21.9938 47.7751 22.128C48.1577 22.3236 48.3766 22.56 49.0689 23.8506L49.237 29.8676L46.4579 29.9161L46.417 27.5772C46.3853 25.7566 46.3368 25.1503 46.1802 24.8622C46.0624 24.6366 45.8446 24.4633 45.6415 24.4162C45.4386 24.3693 45.1106 24.4003 44.9094 24.4543C44.6707 24.5345 44.4595 24.7404 44.3254 25.021C44.1422 25.391 44.1119 25.8216 44.1841 29.9558L41.5312 30.0021L41.482 27.1827C41.4551 25.6402 41.3734 23.1376 41.2964 21.6213L41.1727 18.8792ZM12.7904 22.4604C13.5109 22.473 13.9927 22.5659 14.4891 22.7721C14.8586 22.9428 15.3955 23.3001 15.6662 23.5989C15.9751 23.9224 16.2359 24.3857 16.3693 24.7881C16.5168 25.2788 16.5815 26.087 16.6577 30.4489L14.1311 30.493L14.1256 30.1769C14.122 29.9747 14.0443 29.8622 13.9306 29.8642C13.8169 29.8662 13.7419 29.918 13.7433 29.9939C13.7444 30.0571 13.4695 30.239 13.1438 30.3964C12.6548 30.6199 12.3778 30.6754 11.6063 30.6382C10.9616 30.6241 10.4922 30.5185 10.148 30.3476C9.86768 30.2134 9.53483 29.9661 9.40541 29.7914C9.27621 29.6293 9.11778 29.24 9.04932 28.9376C8.98042 28.61 8.97181 28.117 9.02946 27.7998C9.08711 27.4825 9.23163 27.0753 9.36773 26.9085C9.49096 26.7293 9.78951 26.4585 10.0273 26.3279C10.3773 26.1069 10.7301 26.0501 12.0938 25.9883C12.9903 25.9474 13.7726 25.8832 13.8349 25.8314C13.8845 25.7801 13.8424 25.5404 13.7241 25.2769C13.6184 25.0132 13.4117 24.7512 13.2716 24.6905C13.1313 24.617 12.8523 24.5587 12.6628 24.562C12.4733 24.5653 12.1094 24.7108 11.3855 25.2292L9.09841 24.5103L9.33225 24.1522C9.45527 23.9603 9.75249 23.6137 9.97591 23.3821C10.212 23.1504 10.6993 22.8383 11.0885 22.6924C11.6158 22.4934 12.0065 22.4361 12.7904 22.4604ZM11.9564 28.2545C11.9987 28.5067 12.0883 28.5684 12.4553 28.6C12.6955 28.6084 13.0238 28.59 13.1747 28.5494C13.3256 28.5088 13.5368 28.3029 13.6468 28.0859C13.7443 27.8819 13.8292 27.678 13.8286 27.64C13.8281 27.6149 13.499 27.5826 13.0948 27.5897C12.6905 27.5967 12.2623 27.68 12.1375 27.7708C12.0003 27.8744 11.9276 28.0527 11.9562 28.2418L11.9564 28.2545ZM28.2025 22.2039C28.9609 22.216 29.3794 22.2973 29.9141 22.5282C30.2962 22.6986 30.7691 23.0065 30.9747 23.2053C31.1802 23.3914 31.4649 23.7785 31.6216 24.0667C31.8822 24.5173 31.9119 24.7698 32.0697 30.1925L29.5431 30.2366L29.5376 29.9205C29.5345 29.7435 29.469 29.6055 29.4058 29.6066C29.33 29.6079 29.2425 29.6601 29.2185 29.7365C29.1817 29.8003 28.9068 29.9695 28.6185 30.1137C28.2553 30.2971 27.8145 30.3806 27.2082 30.3912C26.5259 30.4031 26.1712 30.3461 25.6488 30.1022C25.1266 29.8711 24.9212 29.6849 24.6992 29.2714C24.4895 28.8451 24.4342 28.5678 24.4603 27.8971C24.4752 27.3024 24.5702 26.9467 24.7427 26.7034C24.8785 26.5113 25.2146 26.2272 25.4902 26.0833C25.903 25.8485 26.2433 25.7919 29.4001 25.661L29.2919 25.2581C29.2377 25.0441 29.0428 24.7313 28.8759 24.5824C28.6706 24.4091 28.391 24.3127 28.113 24.3175C27.8224 24.3226 27.5337 24.4289 26.924 24.9707L24.5105 24.2539L24.7317 23.896C24.8547 23.7041 25.1896 23.3442 25.4633 23.0991C25.7369 22.8414 26.2371 22.5418 26.576 22.4094C27.0154 22.2499 27.4691 22.1789 28.2025 22.2039ZM27.3683 27.9855C27.4112 28.2756 27.4877 28.3122 28.0188 28.3283C28.5118 28.345 28.6752 28.2915 28.9361 28.0341C29.0973 27.8541 29.2449 27.624 29.2431 27.5227C29.2405 27.371 29.0756 27.336 28.5071 27.346C28.1028 27.353 27.6744 27.4237 27.5496 27.5145C27.4124 27.618 27.3397 27.7964 27.3685 27.9981L27.3683 27.9855ZM36.7925 22.0415C37.6013 22.0399 37.9436 22.1098 38.5296 22.3778C39.039 22.6092 39.3464 22.8441 39.5288 23.1571C39.6719 23.395 39.7641 23.6083 39.7522 23.6465C39.7399 23.672 39.3012 23.8693 38.787 24.0934C37.8586 24.4763 37.8333 24.4767 37.5893 24.2534C37.4481 24.1294 37.155 23.9827 36.9521 23.9483C36.6733 23.9025 36.4845 23.9438 36.2853 24.1117C36.0734 24.2798 36.025 24.4071 36.1039 24.5827C36.1567 24.7084 36.4376 24.8804 36.7174 24.9768C36.9968 25.0604 37.5302 25.2156 37.9238 25.3225C38.3046 25.417 38.8139 25.6358 39.0697 25.8083C39.3129 25.9938 39.6476 26.342 39.8036 26.5923C40.0117 26.9301 40.1061 27.27 40.1148 27.763C40.1236 28.2688 40.0529 28.5734 39.844 28.9059C39.6721 29.1872 39.298 29.4846 38.8223 29.7331C38.1711 30.0734 37.8943 30.1415 36.8717 30.1972C35.8491 30.253 35.5579 30.2201 34.9092 29.9785C34.4897 29.8341 33.9535 29.5272 33.722 29.291C33.4906 29.0675 33.2968 28.8179 33.2952 28.7294C33.2937 28.6409 33.7567 28.3799 34.334 28.1548C35.3506 27.7577 35.3757 27.7446 35.5946 27.981C35.7231 28.1052 35.9782 28.2399 36.1685 28.2872C36.3587 28.3218 36.6493 28.3168 36.8002 28.2762C36.9509 28.2229 37.1131 28.1063 37.1493 28.0045C37.1725 27.8903 37.1699 27.7386 37.1432 27.6504C37.1037 27.5626 36.9496 27.4262 36.7841 27.3533C36.6309 27.2673 36.0846 27.0998 35.5768 26.957C34.9547 26.7908 34.4962 26.5837 34.1753 26.2984C33.9057 26.0629 33.6208 25.6632 33.5275 25.3866C33.4471 25.1224 33.364 24.7065 33.3598 24.4663C33.3554 24.2133 33.4737 23.7561 33.62 23.45C33.8149 23.0293 34.0631 22.772 34.4636 22.5499C34.7639 22.3803 35.1902 22.1832 35.404 22.1288C35.6052 22.0747 36.2362 22.0258 36.7925 22.0415ZM54.1622 21.7256C54.9839 21.7491 55.3898 21.8306 55.9374 22.074C56.3194 22.2444 56.8186 22.6024 57.0506 22.8639C57.2826 23.1254 57.5563 23.6013 57.6755 23.9154C57.8219 24.3427 57.8855 25.0878 57.9665 29.7278L55.4399 29.7719L55.4344 29.4558C55.4313 29.2789 55.3657 29.141 55.3026 29.1421C55.2268 29.1434 55.1392 29.1954 55.1152 29.2718C55.0785 29.3356 54.8035 29.5048 54.5153 29.649C54.1772 29.8193 53.7113 29.9159 53.2312 29.9243C52.8143 29.9316 52.2576 29.8908 51.991 29.8195C51.7246 29.761 51.3292 29.5528 51.1112 29.3669C50.8931 29.1811 50.6218 28.8443 50.5294 28.6183C50.4371 28.3922 50.3534 27.9384 50.3477 27.6097C50.3284 27.2306 50.4345 26.7988 50.6052 26.4416C50.8007 26.0589 51.0361 25.7892 51.3868 25.606C51.7998 25.3838 52.1527 25.327 55.2342 25.2227L55.2287 24.9066C55.2254 24.7169 55.056 24.429 54.8376 24.2179C54.5547 23.9446 54.3256 23.8473 54.0097 23.8528C53.7192 23.8579 53.4431 23.964 52.8834 24.4796L51.7404 24.1455C51.1054 23.9668 50.5711 23.7612 50.5573 23.6982C50.5309 23.6353 50.7528 23.3154 51.0502 22.9813C51.4094 22.5577 51.8211 22.2596 52.3354 22.0357C52.9747 21.7463 53.2394 21.7037 54.1622 21.7256ZM53.2791 27.5965C53.3078 27.7983 53.4351 27.8467 53.9156 27.8636C54.4086 27.8803 54.572 27.8268 54.8329 27.5694C54.9941 27.3895 55.1417 27.1593 55.1399 27.058C55.1373 26.9065 54.9597 26.8716 54.3912 26.8815C53.848 26.891 53.5963 26.9459 53.4474 27.1129C53.3234 27.2415 53.2513 27.4579 53.2791 27.5965ZM18.0356 22.5205L20.8792 22.5468L20.7891 23.168C20.7444 23.5103 20.7499 23.8264 20.801 23.8508C20.8522 23.8878 21.0889 23.694 21.3372 23.4367C21.5728 23.1796 21.9969 22.8687 22.2728 22.7501C22.5486 22.6188 22.9507 22.4853 23.5928 22.3603L23.6403 25.0785L23.0975 25.1133C22.8072 25.131 22.3411 25.2151 22.0646 25.2958C21.7879 25.3765 21.3994 25.5603 20.8513 26.0125L20.9527 30.3739L18.1735 30.4224L18.0356 22.5205Z" fill="white"/>
<path d="M3.62119 39.3901C3.62134 40.1235 3.58615 39.5552 3.56121 38.1265C3.53627 36.6978 3.55117 36.1031 3.57595 36.7982C3.61334 37.4932 3.63364 38.6564 3.62119 39.3901Z" fill="white" fill-opacity="0.38"/>
</g>
<defs>
<clipPath id="clip0_1_1889">
<rect width="58.3111" height="64" fill="white" transform="translate(-0.0055542 1.0176) rotate(-1)"/>
</clipPath>
</defs>
</svg>
