<svg width="122" height="21" viewBox="0 0 122 21" fill="none" xmlns="http://www.w3.org/2000/svg">
<path d="M12.4196 3.86049C12.3705 3.64144 12.3004 3.42759 12.2104 3.22191C12.1609 3.11964 12.1019 3.0221 12.0342 2.93082C11.8173 2.64045 11.4918 2.42707 11.1614 2.27623C10.3149 1.89472 9.35808 1.83574 8.47116 2.11068C7.66237 2.37088 6.96695 2.90292 6.29218 3.41411C5.63769 3.9177 4.98187 4.41477 4.33025 4.91105C4.01292 5.16282 3.68945 5.40786 3.36539 5.65305C3.05499 5.89076 2.64836 6.11634 2.39415 6.4084C2.77099 6.47024 3.1872 6.41489 3.57112 6.47007C3.97909 6.52511 4.38338 6.60468 4.78181 6.70825C5.59224 6.9197 6.37639 7.20686 7.15465 7.50109C8.91652 8.16064 10.6783 8.81821 12.4401 9.47378C12.4849 7.59965 12.8483 5.69222 12.4196 3.86049ZM7.4233 4.73402C7.47807 4.73364 7.53135 4.75205 7.57426 4.78601L8.07309 4.37404C8.05931 4.34413 8.05179 4.31183 8.05103 4.27898C8.04982 4.21001 8.07604 4.14341 8.12391 4.09393C8.17179 4.0443 8.23741 4.0157 8.30632 4.0145C8.37523 4.0133 8.4418 4.03959 8.49137 4.08751C8.54095 4.1353 8.56948 4.20094 8.57069 4.26991C8.57203 4.29008 8.56996 4.31046 8.56454 4.33004L9.00654 4.58335C9.05486 4.53684 9.11826 4.50914 9.18526 4.50526C9.23386 4.50427 9.28169 4.51766 9.32279 4.54369L9.82654 4.03604C9.7995 4.00096 9.78446 3.95812 9.7836 3.91375C9.78314 3.87905 9.78959 3.84466 9.80256 3.81257C9.81552 3.78048 9.83476 3.75127 9.85914 3.72666C9.88351 3.70206 9.91253 3.68249 9.94453 3.66927C9.97653 3.65591 10.0109 3.6492 10.0455 3.6493C10.0798 3.64799 10.114 3.65365 10.146 3.6659C10.1781 3.67828 10.2073 3.69683 10.232 3.72073C10.2567 3.74448 10.2763 3.77315 10.2897 3.80464C10.303 3.83627 10.3099 3.87029 10.3099 3.90457C10.3111 3.97353 10.2848 4.03999 10.237 4.08962C10.1891 4.13924 10.1235 4.1677 10.0546 4.1689C10.008 4.17071 9.96211 4.157 9.92422 4.12979L9.42047 4.638C9.44192 4.67546 9.45438 4.71735 9.45682 4.7604C9.4579 4.83108 9.43088 4.8994 9.38169 4.95019C9.3325 5.00097 9.26516 5.03031 9.19445 5.03155C9.15985 5.03187 9.12554 5.02535 9.09348 5.0124C9.06141 4.99931 9.03227 4.98004 9.00772 4.95572C8.98316 4.9314 8.96371 4.90244 8.95046 4.87038C8.93722 4.83846 8.93044 4.80416 8.93057 4.76959C8.93021 4.74925 8.93632 4.72141 8.93597 4.70108L8.50069 4.45534C8.47721 4.48035 8.44885 4.5002 8.41739 4.51369C8.38594 4.52732 8.35205 4.53417 8.31779 4.5342C8.26083 4.53463 8.2053 4.5164 8.15961 4.48234L7.66727 4.88709C7.68129 4.92169 7.68885 4.95854 7.68958 4.99594C7.69187 5.03103 7.68703 5.06625 7.67533 5.09946C7.66362 5.13266 7.6453 5.16299 7.62147 5.18887C7.59766 5.21475 7.56883 5.23559 7.53674 5.24995C7.50466 5.26445 7.46997 5.27217 7.43479 5.27278C7.39963 5.2734 7.36469 5.2669 7.33213 5.25352C7.29955 5.2403 7.27001 5.22047 7.2453 5.19544C7.22059 5.17041 7.20123 5.14073 7.18837 5.10796C7.1755 5.07518 7.16943 5.04015 7.17051 5.005C7.16896 4.93575 7.19453 4.86874 7.24175 4.81813C7.28899 4.76752 7.35414 4.73736 7.4233 4.73402ZM7.82164 6.92232L7.14716 6.93409L7.12516 5.67391L7.80145 5.66211L7.82164 6.92232ZM8.69656 6.90705L8.01486 6.91895L7.9805 4.95004L8.66398 4.93811L8.69656 6.90705ZM9.57146 6.89178L8.88978 6.90367L8.86449 5.45451L9.54797 5.44258L9.57146 6.89178ZM10.4398 6.87662L9.75809 6.88852L9.71752 4.56439L10.401 4.55246L10.4398 6.87662Z" fill="white"/>
<path d="M6.75601 17.4358C6.75587 17.4689 6.74593 17.5013 6.72744 17.5286C6.70895 17.5561 6.68276 17.5775 6.65215 17.59C6.62153 17.6026 6.58789 17.6057 6.55544 17.5992C6.52301 17.5926 6.49324 17.5767 6.46989 17.5532C6.44655 17.5298 6.43068 17.4999 6.42427 17.4675C6.41787 17.435 6.42124 17.4014 6.43395 17.3709C6.44664 17.3402 6.46811 17.3142 6.49564 17.2958C6.52317 17.2774 6.55551 17.2676 6.5886 17.2676C6.63308 17.2678 6.67567 17.2856 6.70706 17.3172C6.73843 17.3486 6.75603 17.3913 6.75601 17.4358Z" fill="white"/>
<path d="M15.9394 10.8347L15.4269 10.8437L15.4305 11.0489L15.943 11.0399L15.9394 10.8347Z" fill="white"/>
<path d="M15.0369 11.2251L16.3492 11.2022C16.3606 11.201 16.372 11.2022 16.3829 11.2057C16.3937 11.2093 16.4036 11.2149 16.4122 11.2224C16.4207 11.23 16.4275 11.2392 16.4324 11.2495C16.4371 11.26 16.4396 11.2712 16.4398 11.2826C16.44 11.2939 16.4379 11.3052 16.4336 11.3158C16.4291 11.3263 16.4225 11.3358 16.4143 11.3436C16.406 11.3514 16.3963 11.3574 16.3856 11.3613C16.3748 11.3652 16.3635 11.3668 16.3521 11.366L15.0397 11.3889C15.0284 11.3901 15.017 11.3889 15.0061 11.3854C14.9952 11.3819 14.9853 11.3762 14.9768 11.3687C14.9683 11.3612 14.9614 11.3519 14.9565 11.3416C14.9518 11.3311 14.9493 11.32 14.9491 11.3086C14.9489 11.2972 14.951 11.2859 14.9554 11.2753C14.9599 11.2649 14.9664 11.2554 14.9747 11.2475C14.9829 11.2397 14.9926 11.2337 15.0034 11.2298C15.0141 11.2259 15.0255 11.2243 15.0369 11.2251Z" fill="white"/>
<path d="M15.7264 9.21842C15.7756 9.37744 15.8602 9.52319 15.974 9.64453C15.974 9.64453 15.9812 9.6444 15.9743 9.66486C15.9208 9.77774 15.8859 9.89854 15.8713 10.0227L15.468 10.0297C15.4585 9.90416 15.4189 9.7828 15.3526 9.67571L15.3523 9.65538C15.4646 9.53109 15.5462 9.3823 15.5908 9.22078L15.5965 9.54841C15.5872 9.55526 15.5798 9.56449 15.5752 9.5751C15.5705 9.58571 15.5687 9.5974 15.5699 9.6089C15.5724 9.63304 15.5836 9.65532 15.6016 9.67137C15.6197 9.68741 15.6432 9.6961 15.6672 9.69568C15.6914 9.69526 15.7145 9.68575 15.732 9.66909C15.7494 9.65243 15.7599 9.62977 15.7615 9.60556C15.7614 9.59233 15.7582 9.57916 15.752 9.56732C15.7458 9.55562 15.737 9.54539 15.726 9.53776L15.7204 9.21681L15.7264 9.21842Z" fill="white"/>
<path d="M14.9462 8.78739C14.9464 8.79934 14.9432 8.81105 14.9367 8.82098C14.9303 8.83091 14.9211 8.83875 14.9102 8.84349C14.8994 8.84823 14.8873 8.84972 14.8756 8.84751C14.8639 8.84544 14.8531 8.83994 14.8446 8.83169C14.836 8.82345 14.8302 8.81288 14.8276 8.80127C14.8251 8.78965 14.8261 8.77754 14.8304 8.76651C14.8347 8.75548 14.8424 8.74596 14.8521 8.73925C14.8618 8.73239 14.8734 8.72863 14.8852 8.72843C14.9011 8.72815 14.9166 8.73428 14.928 8.74532C14.9394 8.75636 14.946 8.77161 14.9462 8.78739Z" fill="white"/>
<path d="M14.9938 9.14261C14.9986 9.14835 15.0012 9.15557 15.0009 9.16297L15.0025 9.25838C15.0019 9.26351 14.9997 9.26853 14.9961 9.27229L14.8936 9.27408C14.8899 9.27401 14.8864 9.2725 14.8838 9.26999C14.8812 9.26747 14.8797 9.26408 14.8795 9.26053L14.8779 9.16511C14.8776 9.15132 14.884 9.14452 14.8913 9.1444L14.9938 9.14261Z" fill="white"/>
<path d="M15.697 8.71298C15.7007 8.71306 15.7041 8.71442 15.7067 8.71694C15.7093 8.71945 15.7108 8.72284 15.711 8.72653L15.7127 8.82195C15.7129 8.83574 15.7065 8.8424 15.6992 8.84252L15.5967 8.84431C15.5919 8.83871 15.5894 8.8315 15.5897 8.8241L15.588 8.72868C15.5885 8.72341 15.5908 8.71853 15.5944 8.71477L15.697 8.71298Z" fill="white"/>
<path d="M16.3086 9.24936C16.3049 9.24929 16.3015 9.24778 16.2989 9.24527C16.2963 9.24275 16.2948 9.23936 16.2946 9.23581L16.2929 9.1404C16.2927 9.1266 16.2991 9.1198 16.3063 9.11968L16.4018 9.11801C16.4155 9.11777 16.4157 9.12445 16.4159 9.13825L16.4176 9.23366C16.4177 9.24077 16.4178 9.24746 16.404 9.2477L16.3086 9.24936Z" fill="white"/>
<path d="M16.4981 8.76029C16.4969 8.77581 16.4904 8.7903 16.4796 8.80144C16.4688 8.81258 16.4545 8.81966 16.4391 8.82135C16.4232 8.82162 16.4079 8.81563 16.3963 8.8046C16.3849 8.79356 16.3783 8.77831 16.3781 8.76238C16.3778 8.7466 16.3838 8.73113 16.3948 8.7197C16.406 8.70827 16.4211 8.70161 16.437 8.70133C16.4525 8.70248 16.467 8.70891 16.4783 8.71981C16.4895 8.73057 16.4964 8.74496 16.4981 8.76029Z" fill="white"/>
<path d="M14.4779 8.52898L14.5044 10.0465L15.3378 10.032C15.3175 9.92765 15.2813 9.82715 15.2306 9.73373C15.2162 9.70781 15.2103 9.67804 15.2135 9.64854C15.2165 9.61918 15.2287 9.59138 15.2481 9.56899C15.3472 9.45773 15.4195 9.32561 15.4598 9.18223C15.4664 9.15666 15.481 9.13378 15.5018 9.11735C15.5227 9.10091 15.5483 9.09178 15.5748 9.09146L15.732 9.08872C15.7602 9.08737 15.788 9.095 15.8116 9.11066C15.8352 9.12618 15.8533 9.14876 15.8631 9.17519C15.901 9.31606 15.9714 9.44598 16.0685 9.55467C16.0904 9.57506 16.1057 9.60153 16.1123 9.63086C16.1189 9.66005 16.1165 9.69053 16.1055 9.71846C16.059 9.814 16.0264 9.91557 16.0082 10.0203L16.8351 10.0059L16.8086 8.48829L14.4779 8.52898ZM16.4133 8.95322C16.3821 8.95291 16.3515 8.94448 16.3247 8.92859C16.2978 8.9127 16.2756 8.89005 16.2605 8.86286L16.1716 8.86441C16.2353 8.89487 16.2902 8.941 16.3313 8.99846L16.3997 8.99727C16.432 8.99756 16.4631 9.01024 16.4864 9.03274C16.5095 9.05523 16.5234 9.08572 16.5248 9.11812L16.5269 9.23388C16.5264 9.2656 16.5136 9.29598 16.4908 9.31814C16.4681 9.34045 16.4376 9.35278 16.4059 9.35248L16.2967 9.35439C16.265 9.3558 16.2339 9.34453 16.2105 9.32304C16.1871 9.30168 16.173 9.27177 16.1716 9.24008L16.1696 9.12432C16.1704 9.10511 16.1748 9.0864 16.1825 9.06891C16.0789 8.97968 15.9535 8.91971 15.8193 8.89517C15.8089 8.91526 15.7936 8.93232 15.7746 8.94474C15.7556 8.95702 15.7338 8.96423 15.7112 8.96547L15.6015 8.96739C15.5778 8.96723 15.5547 8.96109 15.5342 8.9495C15.5136 8.93791 15.4965 8.92114 15.4844 8.90101C15.3516 8.92822 15.2292 8.9928 15.1317 9.08725C15.1372 9.10508 15.1399 9.12366 15.1398 9.1423L15.1418 9.25805C15.1415 9.28864 15.1295 9.31801 15.1083 9.34C15.0869 9.36199 15.0581 9.37516 15.0275 9.37654L14.9116 9.37857C14.8803 9.3784 14.8503 9.36669 14.8271 9.34562C14.804 9.3244 14.7896 9.29549 14.7866 9.26425L14.7846 9.1485C14.785 9.11606 14.7977 9.08511 14.8202 9.06182C14.8427 9.03853 14.8732 9.02477 14.9054 9.02335L14.9655 9.0223C15.0127 8.96586 15.0699 8.91849 15.1341 8.88252L15.0453 8.88407C15.0305 8.91277 15.0083 8.9372 14.9811 8.95446C14.9536 8.97173 14.9221 8.98124 14.8898 8.98223C14.8655 8.98351 14.8412 8.97966 14.8186 8.9711C14.796 8.96253 14.7753 8.94924 14.7581 8.93218C14.7408 8.91513 14.7274 8.8946 14.7185 8.87214C14.7095 8.84953 14.7055 8.82528 14.7065 8.80108C14.7056 8.77734 14.7094 8.75352 14.7178 8.73133C14.7263 8.70899 14.7392 8.68871 14.7558 8.67163C14.7723 8.65442 14.7921 8.64084 14.8141 8.63164C14.836 8.62244 14.8595 8.61776 14.8834 8.61791C14.9167 8.61747 14.9493 8.62658 14.9775 8.64415C15.0057 8.66172 15.0283 8.68707 15.0423 8.71713L15.4726 8.70962C15.4765 8.68039 15.491 8.65368 15.5134 8.63451C15.5357 8.6152 15.5644 8.60503 15.5939 8.60551L15.7036 8.60359C15.732 8.60381 15.7592 8.61386 15.7807 8.63212C15.8022 8.65052 15.8166 8.67573 15.8213 8.70353L16.2522 8.69601C16.2666 8.6666 16.2886 8.64132 16.3159 8.62292C16.3432 8.60466 16.3749 8.59373 16.4075 8.59131C16.4549 8.59204 16.5002 8.6106 16.5342 8.64358C16.5682 8.67641 16.5885 8.72101 16.5907 8.76819C16.5914 8.79208 16.5873 8.8159 16.5787 8.8381C16.57 8.86044 16.5571 8.88072 16.5405 8.89794C16.5239 8.91516 16.504 8.92902 16.4822 8.9385C16.4603 8.94785 16.4372 8.95294 16.4133 8.95322Z" fill="white"/>
<path d="M17.1742 7.94639L14.0989 8.00007C14.041 8.00136 13.9859 8.02551 13.9457 8.06703C13.9054 8.1087 13.8831 8.16442 13.8836 8.22231L13.9227 10.4576C13.9228 10.4864 13.9288 10.5149 13.9401 10.5415C13.9515 10.568 13.9681 10.5919 13.9888 10.6119C14.0096 10.6319 14.0342 10.6475 14.0611 10.6578C14.088 10.6683 14.1167 10.6731 14.1455 10.6722L17.2209 10.6185C17.2787 10.6172 17.3338 10.5932 17.374 10.5515C17.4144 10.51 17.4366 10.4543 17.436 10.3962L17.3971 8.1634C17.3952 8.1054 17.3709 8.05049 17.3294 8.0101C17.2878 7.96958 17.2323 7.9468 17.1742 7.94639ZM17.0333 10.1915L14.3156 10.2389L14.2825 8.3408L17.0026 8.29332L17.0333 10.1915Z" fill="white"/>
<path d="M18.5806 7.81457C18.3133 7.38894 17.9445 7.0328 17.5412 6.71866C17.2702 6.49779 16.9864 6.29734 16.696 6.09715C15.3531 5.16386 14.0036 4.22997 12.6607 3.29597C13.1946 4.89358 13.0268 6.62648 12.9283 8.31009C12.8519 9.43273 12.8098 10.5613 12.7681 11.6839C12.7576 12.2514 12.7398 12.8123 12.7292 13.3732C12.7235 13.4279 12.7044 13.5032 12.752 13.5096C12.7995 13.5159 12.8881 13.4657 12.936 13.4583C13.0445 13.4156 13.1604 13.386 13.2756 13.3497C13.5074 13.2856 13.7385 13.2186 13.9698 13.1575C14.8951 12.9014 15.8283 12.681 16.7164 12.3232C17.262 12.1056 17.7808 11.8259 18.2624 11.4896C18.5531 11.2864 18.829 11.0355 18.9872 10.711C19.1256 10.4216 19.1564 10.0861 19.1417 9.75807C19.1291 9.07694 18.9533 8.38913 18.5806 7.81457ZM17.6276 10.3956C17.6292 10.5042 17.5876 10.6092 17.512 10.6873C17.4365 10.7655 17.333 10.8105 17.2242 10.8126L16.0559 10.833L16.0596 11.0448L16.3464 11.0398C16.3788 11.0391 16.4109 11.045 16.441 11.0567C16.4711 11.0685 16.4985 11.0862 16.5218 11.1086C16.5451 11.1311 16.5637 11.1579 16.5766 11.1876C16.5895 11.2172 16.5963 11.2493 16.5967 11.2815C16.5986 11.3477 16.5742 11.4118 16.529 11.46C16.4837 11.5083 16.4212 11.5367 16.3551 11.5391L15.0427 11.562C15.0096 11.5626 14.9765 11.5566 14.9456 11.5444C14.9148 11.5322 14.8866 11.5139 14.8627 11.4909C14.8388 11.4678 14.8197 11.4402 14.8065 11.4097C14.7933 11.3792 14.7862 11.3464 14.7858 11.3132C14.7852 11.2803 14.7913 11.2476 14.8036 11.2173C14.8158 11.1867 14.8341 11.159 14.8572 11.1357C14.8804 11.1124 14.908 11.0938 14.9383 11.0813C14.9687 11.0689 15.0012 11.0625 15.034 11.0627L15.3143 11.0578L15.3106 10.846L14.1488 10.8662C14.0949 10.8678 14.0412 10.8583 13.9908 10.8388C13.9405 10.8192 13.8946 10.7899 13.8557 10.7524C13.8168 10.715 13.7858 10.67 13.7644 10.6205C13.7431 10.5709 13.7318 10.5176 13.7312 10.4636L13.6922 8.22834C13.6909 8.17431 13.7003 8.12066 13.7199 8.07025C13.7395 8.01998 13.769 7.97409 13.8065 7.93531C13.8441 7.89653 13.8889 7.86559 13.9386 7.84424C13.9882 7.82289 14.0415 7.81172 14.0955 7.81135L17.1709 7.75767C17.2797 7.75591 17.3846 7.79732 17.4629 7.87277C17.5412 7.94821 17.5864 8.05155 17.5886 8.16032L17.6276 10.3956Z" fill="white"/>
<path d="M5.54778 7.35799C4.58872 6.97687 3.56156 6.79709 2.53007 6.8296C0.466524 6.90644 -0.242792 9.59955 0.330941 11.2781L2.39805 17.286C2.41703 17.204 2.43612 17.1281 2.46227 17.0447C2.76631 15.993 3.28469 15.0154 3.98483 14.1736C4.59375 13.4324 5.34956 12.4744 6.07255 11.5614L6.07244 11.5548L8.07862 8.98319C8.31352 8.68493 8.44604 8.50495 8.45299 8.49103L8.48661 8.45616C7.45414 8.0769 6.39446 7.68531 5.54778 7.35799ZM2.45263 11.7813C2.24708 11.7849 2.04841 11.7072 1.89982 11.5651C1.75121 11.423 1.6647 11.2281 1.65905 11.0226L1.63661 9.7373C1.63499 9.63519 1.65357 9.53388 1.69128 9.43905C1.729 9.34423 1.7851 9.25776 1.85635 9.18469C1.92761 9.11175 2.01262 9.05351 2.10647 9.01347C2.20033 8.97328 2.30119 8.95232 2.40323 8.95139L3.68019 8.9291C3.8641 8.92532 4.04333 8.98734 4.18564 9.10391C4.32795 9.22049 4.42403 9.38396 4.45662 9.56503C4.36719 9.64298 4.29042 9.7345 4.22905 9.836L4.22654 9.69209C4.22376 9.55089 4.16515 9.4165 4.06355 9.31827C3.96194 9.22019 3.82561 9.16638 3.68437 9.16842L2.40621 9.19073C2.26489 9.19349 2.13036 9.25202 2.03211 9.35359C1.93386 9.45516 1.8799 9.59166 1.88205 9.73301L1.90449 11.0184C1.90711 11.1597 1.96575 11.2942 2.06753 11.3925C2.1693 11.4905 2.30586 11.5443 2.44725 11.5419L3.34737 11.5262L3.56338 11.7625L2.45263 11.7813ZM4.52381 10.9726C4.52638 11.12 4.488 11.265 4.41296 11.3918C4.33791 11.5187 4.22914 11.6222 4.09876 11.6907L4.15626 11.5463C4.25746 11.2648 4.38306 10.9926 4.53163 10.733L4.52381 10.9726ZM5.06328 9.7597C4.46108 10.1304 4.04121 11.1449 3.93004 11.4476L3.85896 11.6746L2.88096 10.6663L3.00509 10.3154L3.70961 11.1302C4.19217 10.1645 4.67409 9.57503 5.18321 9.37469L5.06328 9.7597Z" fill="white"/>
<path d="M12.179 17.8268C12.1791 17.8315 12.1801 17.8361 12.182 17.8405C12.1838 17.8447 12.1866 17.8487 12.19 17.852C12.1934 17.8552 12.1974 17.8579 12.2018 17.8596C12.2062 17.8613 12.2109 17.8622 12.2156 17.8621L15.5251 17.8043C15.5346 17.8042 15.5438 17.8002 15.5505 17.7934C15.5572 17.7866 15.561 17.7773 15.561 17.7677L15.525 15.7034L12.1429 15.7624L12.179 17.8268ZM14.3861 16.1075C14.398 16.095 14.4121 16.0851 14.4278 16.0783C14.4435 16.0715 14.4604 16.0678 14.4776 16.0675C14.4947 16.0672 14.5118 16.0703 14.5277 16.0766C14.5436 16.0828 14.5581 16.0922 14.5704 16.1043L15.104 16.6201C15.1203 16.6355 15.1335 16.6539 15.1426 16.6743C15.1517 16.6948 15.1566 16.7169 15.157 16.7392C15.1574 16.7617 15.1532 16.784 15.1449 16.8047C15.1365 16.8255 15.124 16.8444 15.1082 16.8601L14.5946 17.3926C14.5829 17.405 14.5687 17.4149 14.553 17.4217C14.5372 17.4286 14.5203 17.4323 14.5032 17.4326C14.4861 17.4329 14.469 17.4298 14.4531 17.4235C14.4372 17.4172 14.4227 17.4078 14.4104 17.3958C14.3981 17.3841 14.3882 17.3699 14.3813 17.3542C14.3744 17.3387 14.3707 17.3218 14.3704 17.3046C14.3701 17.2875 14.3732 17.2705 14.3795 17.2548C14.3859 17.2389 14.3953 17.2244 14.4072 17.2122L14.8571 16.7458L14.3894 16.2935C14.377 16.2817 14.3671 16.2676 14.3603 16.2519C14.3534 16.2364 14.3497 16.2195 14.3494 16.2024C14.3491 16.1852 14.3522 16.1682 14.3585 16.1525C14.3648 16.1366 14.3742 16.1221 14.3862 16.1099L14.3861 16.1075ZM13.5064 17.288L13.9665 16.1364C13.9755 16.1122 13.9917 16.0913 14.0129 16.0764C14.034 16.0616 14.0592 16.0536 14.0851 16.0533C14.1028 16.053 14.1205 16.0564 14.1368 16.0632C14.1527 16.0694 14.1671 16.0789 14.1793 16.0909C14.1915 16.1028 14.2011 16.1171 14.2077 16.1328C14.2148 16.1483 14.2186 16.165 14.2189 16.1821C14.2192 16.1992 14.216 16.2161 14.2094 16.2318L13.7493 17.384C13.7398 17.4078 13.7235 17.4283 13.7024 17.4429C13.6813 17.4573 13.6563 17.4654 13.6307 17.4659C13.6134 17.4665 13.5961 17.4632 13.5801 17.4565C13.5643 17.4502 13.5498 17.441 13.5375 17.4291C13.5253 17.4174 13.5155 17.4032 13.5087 17.3875C13.5015 17.3721 13.4976 17.3554 13.4969 17.3383C13.4963 17.3214 13.5003 17.3038 13.5064 17.288ZM12.6509 16.6636L13.1662 16.1293C13.178 16.117 13.1922 16.1071 13.2079 16.1002C13.2236 16.0933 13.2405 16.0896 13.2576 16.0893C13.2748 16.089 13.2918 16.0922 13.3077 16.0984C13.3236 16.1048 13.3381 16.1143 13.3504 16.1261C13.3751 16.1502 13.3893 16.1829 13.3899 16.2173C13.3905 16.2517 13.3775 16.285 13.3536 16.3097L12.902 16.778L13.3679 17.2285C13.3801 17.2404 13.3899 17.2546 13.3967 17.2701C13.4035 17.2858 13.4072 17.3026 13.4075 17.3197C13.4078 17.3368 13.4047 17.3536 13.3985 17.3695C13.3922 17.3854 13.3829 17.3999 13.3711 17.4121C13.3592 17.4244 13.3451 17.4343 13.3294 17.441C13.3138 17.4478 13.297 17.4515 13.2799 17.4518C13.2629 17.4521 13.2459 17.449 13.2301 17.4427C13.2142 17.4366 13.1997 17.4272 13.1874 17.4153L12.655 16.9013C12.6388 16.8859 12.6258 16.8673 12.6168 16.8469C12.6078 16.8266 12.6029 16.8045 12.6025 16.7821C12.6021 16.7598 12.6062 16.7375 12.6145 16.7168C12.6228 16.696 12.6352 16.6771 12.6509 16.6612L12.6509 16.6636Z" fill="white"/>
<path d="M15.4811 15.2507L12.1718 15.3085C12.167 15.3086 12.1623 15.3095 12.1579 15.3114C12.1535 15.3134 12.1496 15.3161 12.1463 15.3196C12.143 15.3231 12.1404 15.3273 12.1387 15.3317C12.137 15.3361 12.1362 15.341 12.1364 15.3457L12.1405 15.5809L15.5225 15.5218L15.5184 15.2866C15.5183 15.2818 15.5173 15.2771 15.5153 15.2728C15.5134 15.2682 15.5106 15.2643 15.5073 15.2609C15.5038 15.2576 15.4997 15.255 15.4952 15.2532C15.4908 15.2514 15.4859 15.2506 15.4811 15.2507ZM14.693 15.4925C14.6745 15.4928 14.6564 15.4877 14.6407 15.4776C14.6252 15.4677 14.613 15.4532 14.6056 15.4363C14.5981 15.4193 14.596 15.4005 14.5994 15.3823C14.6026 15.3641 14.6113 15.3473 14.6241 15.334C14.637 15.3205 14.6534 15.3114 14.6716 15.3074C14.6896 15.3035 14.7085 15.305 14.7257 15.3119C14.7429 15.3187 14.7578 15.3304 14.7684 15.3455C14.7789 15.3609 14.7846 15.3788 14.785 15.3973C14.7853 15.4097 14.7831 15.4219 14.7788 15.4334C14.7743 15.445 14.7675 15.4555 14.759 15.4643C14.7504 15.4733 14.7402 15.4804 14.7289 15.4853C14.7176 15.4902 14.7054 15.4923 14.693 15.4925ZM14.9589 15.4879C14.9403 15.4882 14.9222 15.4831 14.9066 15.473C14.8911 15.463 14.8787 15.4486 14.8713 15.4316C14.8641 15.4147 14.8619 15.3958 14.8651 15.3777C14.8684 15.3594 14.877 15.3426 14.8899 15.3293C14.9027 15.3159 14.9192 15.3068 14.9374 15.3028C14.9555 15.2989 14.9743 15.3004 14.9916 15.3072C15.0088 15.314 15.0237 15.3257 15.0342 15.3409C15.0447 15.3562 15.0505 15.3742 15.0509 15.3927C15.0511 15.4049 15.049 15.4172 15.0445 15.4286C15.0402 15.4401 15.0335 15.4506 15.025 15.4595C15.0165 15.4684 15.0064 15.4755 14.9951 15.4805C14.9839 15.4854 14.9712 15.4875 14.9589 15.4879ZM15.2253 15.4832C15.2068 15.4835 15.1886 15.4784 15.1731 15.4683C15.1574 15.4584 15.1452 15.4439 15.1378 15.427C15.1304 15.4101 15.1282 15.3912 15.1316 15.373C15.1348 15.3548 15.1435 15.338 15.1564 15.3247C15.1692 15.3112 15.1857 15.3021 15.2038 15.2981C15.222 15.2942 15.2408 15.2958 15.258 15.3026C15.2752 15.3094 15.29 15.3211 15.3007 15.3362C15.3112 15.3516 15.317 15.3695 15.3174 15.388C15.3176 15.4004 15.3155 15.4127 15.311 15.4241C15.3065 15.4357 15.2997 15.4462 15.2912 15.455C15.2827 15.464 15.2724 15.4712 15.2611 15.476C15.2498 15.4809 15.2376 15.483 15.2253 15.4832Z" fill="white"/>
<path d="M15.8414 13.0658C14.9362 13.3068 13.7935 13.628 12.6982 13.9478L12.6985 13.9616L11.0518 14.4346C9.95667 14.7617 9.11353 15.0153 8.93684 15.0718C9.55326 15.998 10.1937 16.9575 10.6855 17.7287C10.8064 17.9245 10.9376 18.114 11.0784 18.2962C11.2462 18.519 11.421 18.7344 11.6022 18.9365C11.7953 19.1587 12.0046 19.3663 12.2283 19.5577C12.4346 19.7432 12.6597 19.9064 12.9001 20.0447C13.1111 20.1715 13.3448 20.2556 13.5881 20.2927C13.9378 20.3466 14.3122 20.232 14.6377 20.1033C14.9262 19.9934 15.1999 19.8481 15.4524 19.6707C15.7048 19.4943 15.9352 19.2889 16.1393 19.0585C16.3405 18.8241 16.5128 18.5663 16.6523 18.2908C16.7508 18.1043 16.8299 17.9082 16.8882 17.7056L18.7514 11.6153C17.8898 12.2911 16.8997 12.7847 15.8414 13.0658ZM15.822 17.7632C15.8223 17.8417 15.7921 17.9172 15.7376 17.9735C15.6829 18.0299 15.6086 18.0626 15.5301 18.0649L12.2207 18.1226C12.1423 18.123 12.0669 18.0929 12.0106 18.0384C11.9542 17.9839 11.9214 17.9096 11.9191 17.8313L11.8757 15.35C11.8752 15.2715 11.9053 15.196 11.9598 15.1395C12.0142 15.0831 12.0886 15.0502 12.167 15.0478L15.4764 14.99C15.5549 14.9894 15.6307 15.0196 15.6871 15.0743C15.7437 15.1288 15.7764 15.2034 15.7786 15.2819L15.822 17.7632Z" fill="white"/>
<path d="M6.58733 17.2929C6.55825 17.2935 6.52997 17.3026 6.50608 17.3193C6.48219 17.3358 6.46373 17.3591 6.45308 17.3862C6.44242 17.4133 6.44003 17.4427 6.4462 17.4712C6.45237 17.4996 6.46683 17.5256 6.48775 17.5457C6.50867 17.566 6.5351 17.5795 6.56373 17.5847C6.59234 17.5899 6.62185 17.5865 6.64852 17.5748C6.67519 17.5632 6.69782 17.5441 6.71356 17.5196C6.72929 17.4952 6.73742 17.4666 6.73691 17.4374C6.73623 17.3985 6.72008 17.3613 6.69203 17.3342C6.66399 17.3071 6.62632 17.2923 6.58733 17.2929Z" fill="white"/>
<path d="M7.22864 17.3112C7.15537 17.2814 7.09366 17.2288 7.05268 17.1612C7.0117 17.0935 6.99365 17.0144 7.00119 16.9358C7.00366 16.9108 6.99874 16.8858 6.98703 16.8636C6.97532 16.8415 6.95737 16.8233 6.9354 16.8115C6.91537 16.8 6.89269 16.7943 6.86967 16.7946C6.84264 16.7953 6.81655 16.8046 6.7951 16.821C6.7325 16.8694 6.65604 16.896 6.57705 16.8974C6.49804 16.8988 6.4207 16.8748 6.35645 16.8287C6.33424 16.813 6.30763 16.8047 6.2804 16.8048C6.25814 16.8052 6.23643 16.8119 6.21771 16.824C6.19584 16.8363 6.1782 16.8551 6.16714 16.8777C6.15607 16.9002 6.15207 16.9256 6.1557 16.9505C6.16588 17.0287 6.15068 17.1082 6.11233 17.1772C6.07399 17.2461 6.01452 17.3009 5.94269 17.3336C5.92 17.344 5.90084 17.3608 5.88756 17.382C5.87427 17.4031 5.86743 17.4275 5.86787 17.4526C5.8683 17.4775 5.87599 17.5018 5.89001 17.5224C5.90403 17.5431 5.92375 17.5591 5.94679 17.5688C6.01955 17.5991 6.08071 17.6518 6.12132 17.7194C6.16192 17.787 6.17984 17.8657 6.17243 17.9443C6.16964 17.9692 6.17443 17.9944 6.18617 18.0166C6.1979 18.0387 6.21604 18.0569 6.23823 18.0686C6.25802 18.0799 6.28053 18.0857 6.30335 18.0853C6.33048 18.0846 6.35663 18.0752 6.37791 18.0583C6.44046 18.0103 6.5168 17.9835 6.59568 17.9821C6.67455 17.9807 6.75178 18.0048 6.81596 18.0507C6.83775 18.0663 6.86396 18.0747 6.89082 18.0745C6.91409 18.074 6.9368 18.0672 6.9565 18.0547C6.9781 18.0423 6.99549 18.0236 7.00643 18.0012C7.01738 17.9787 7.02138 17.9536 7.01793 17.9289C7.0076 17.8507 7.02267 17.7712 7.06091 17.7023C7.09916 17.6333 7.15855 17.5784 7.23034 17.5459C7.25302 17.5354 7.27217 17.5185 7.28546 17.4975C7.29874 17.4764 7.30558 17.4518 7.30515 17.4269C7.30471 17.4019 7.29702 17.3776 7.283 17.357C7.26899 17.3364 7.24926 17.3202 7.22623 17.3105L7.22864 17.3112ZM6.59441 17.7725C6.52867 17.7736 6.46406 17.7551 6.40874 17.7196C6.35343 17.6841 6.30992 17.6329 6.2837 17.5725C6.25748 17.5122 6.24972 17.4455 6.26143 17.3808C6.27313 17.3161 6.30376 17.2563 6.34944 17.209C6.39512 17.1617 6.45381 17.129 6.51806 17.1151C6.58233 17.1011 6.64929 17.1065 6.71048 17.1306C6.77166 17.1547 6.82432 17.1963 6.86181 17.2504C6.89929 17.3044 6.91991 17.3683 6.92106 17.4342C6.92244 17.5221 6.889 17.607 6.82803 17.6704C6.76706 17.7337 6.68231 17.7703 6.59441 17.7725Z" fill="white"/>
<path d="M12.6038 20.2879C11.1797 19.3756 10.2571 17.8677 9.34391 16.443C8.35982 14.9151 7.32883 13.417 6.30392 11.9221C5.6831 12.7733 4.97218 13.5517 4.33014 14.3906C3.6881 15.2295 3.12356 16.1411 2.83327 17.1515C2.7425 17.4275 2.70578 17.7183 2.72517 18.0082C2.8145 18.8272 3.61395 19.5785 4.29079 19.9774C5.06473 20.4357 6.01584 20.4875 6.89807 20.4786L7.32892 20.4711L12.7142 20.3568C12.673 20.3305 12.6383 20.3076 12.6038 20.2879ZM4.85302 17.4891C4.84712 17.2596 4.88666 17.0312 4.96937 16.8171C5.05207 16.603 5.17631 16.4074 5.33493 16.2414C5.49354 16.0755 5.6834 15.9426 5.8936 15.8505C6.10377 15.7582 6.33012 15.7084 6.55962 15.7042C6.68782 15.7018 6.81589 15.7138 6.94141 15.74C6.97422 15.747 7.00296 15.7665 7.02134 15.7945C7.03972 15.8227 7.04624 15.8568 7.03946 15.8897C7.03367 15.9178 7.01844 15.9432 6.99629 15.9617C6.97412 15.98 6.94636 15.9903 6.91757 15.9908C6.80118 15.9676 6.6827 15.9566 6.56405 15.958C6.1711 15.9653 5.79711 16.1281 5.5241 16.4108C5.25109 16.6935 5.10134 17.073 5.10773 17.466C5.10871 17.5006 5.09636 17.5342 5.07324 17.5601C5.05012 17.5858 5.018 17.6017 4.9835 17.6044C4.96726 17.6059 4.95091 17.6039 4.93543 17.5989C4.91995 17.5937 4.90567 17.5856 4.89346 17.5747C4.88127 17.564 4.87138 17.5508 4.86443 17.5361C4.85748 17.5213 4.85359 17.5053 4.85302 17.4891ZM7.49453 18.9202C7.2724 19.0561 7.02256 19.1402 6.7635 19.1664C6.50444 19.1927 6.2428 19.1602 5.99796 19.0716C5.7531 18.983 5.53132 18.8405 5.349 18.6547C5.1667 18.4687 5.02853 18.2442 4.94474 17.9977C4.93406 17.9659 4.93625 17.9312 4.95085 17.9009C4.96631 17.8716 4.99265 17.8497 5.02421 17.8396C5.03631 17.8352 5.04906 17.833 5.06192 17.8329C5.0886 17.8326 5.11473 17.8407 5.13655 17.856C5.15838 17.8714 5.17479 17.8933 5.18347 17.9184C5.25513 18.129 5.37319 18.3207 5.52891 18.4793C5.68462 18.638 5.87402 18.7597 6.0831 18.8353C6.29217 18.911 6.51558 18.9387 6.73681 18.9163C6.95802 18.894 7.17138 18.8223 7.36115 18.7064C7.3804 18.6946 7.40247 18.6882 7.42505 18.6878C7.45286 18.6873 7.48007 18.696 7.50246 18.7125C7.52487 18.729 7.54122 18.7524 7.54898 18.7791C7.55676 18.8059 7.55552 18.8343 7.54548 18.8603C7.53542 18.8862 7.51711 18.9081 7.49337 18.9226L7.49453 18.9202ZM7.33391 17.7651C7.30905 17.7764 7.28852 17.7954 7.27531 17.8193C7.26211 17.8432 7.25695 17.8707 7.26059 17.8978C7.26977 17.9689 7.25793 18.0413 7.22653 18.1058C7.19513 18.1704 7.14553 18.2243 7.08385 18.2611C7.02738 18.2946 6.96317 18.3128 6.8975 18.3141C6.81931 18.3156 6.74272 18.2919 6.67903 18.2465C6.65697 18.2304 6.63025 18.2221 6.60298 18.2227C6.57537 18.2233 6.54866 18.2326 6.5266 18.2492C6.46928 18.2924 6.40064 18.3181 6.32901 18.323C6.25738 18.3281 6.18582 18.3122 6.12305 18.2773C6.06028 18.2424 6.00898 18.1901 5.9754 18.1267C5.9418 18.0631 5.92735 17.9912 5.9338 17.9197C5.93651 17.8926 5.93033 17.8653 5.91617 17.8419C5.90202 17.8186 5.88066 17.8004 5.85531 17.7902C5.78899 17.7624 5.73219 17.7158 5.69187 17.6564C5.65152 17.5968 5.62938 17.5267 5.62812 17.4548C5.62687 17.3828 5.64655 17.3121 5.68479 17.2512C5.72302 17.1903 5.77816 17.1418 5.84346 17.1116C5.86837 17.1002 5.88898 17.0813 5.90229 17.0574C5.91558 17.0336 5.92088 17.006 5.91738 16.9789C5.90825 16.9077 5.92017 16.8352 5.95169 16.7706C5.98321 16.7061 6.03292 16.6523 6.09471 16.6157C6.15037 16.5823 6.21378 16.5639 6.27867 16.5625C6.35757 16.5614 6.43477 16.5854 6.49898 16.6314C6.52142 16.6475 6.54855 16.656 6.57622 16.6552C6.60393 16.6547 6.63072 16.6451 6.65257 16.6281C6.70973 16.5843 6.77849 16.5582 6.85032 16.5531C6.92213 16.548 6.99388 16.5641 7.05665 16.5994C7.11957 16.6339 7.17102 16.6861 7.20466 16.7495C7.2383 16.8129 7.25265 16.8848 7.24596 16.9563C7.24319 16.9834 7.2493 17.0106 7.26334 17.0339C7.27739 17.0573 7.29861 17.0754 7.32386 17.0858C7.39017 17.1137 7.44696 17.1602 7.4873 17.2198C7.52764 17.2792 7.54979 17.3493 7.55104 17.4212C7.5523 17.4932 7.53261 17.5639 7.49437 17.6249C7.45613 17.6858 7.40101 17.7342 7.3357 17.7644L7.33391 17.7651ZM7.88851 18.5886C7.87685 18.6017 7.86255 18.6123 7.84655 18.6196C7.83056 18.6268 7.8132 18.6308 7.79561 18.631C7.77108 18.6314 7.74695 18.6247 7.72617 18.6116C7.70539 18.5986 7.68883 18.5798 7.67853 18.5575C7.66823 18.5354 7.66461 18.5105 7.66811 18.4863C7.67162 18.4619 7.68211 18.4393 7.6983 18.4208C7.84547 18.2539 7.95321 18.0562 8.01355 17.842C8.07388 17.6279 8.08526 17.4029 8.04686 17.1837C8.00844 16.9646 7.92122 16.7569 7.79165 16.5761C7.66207 16.3953 7.49346 16.2459 7.29833 16.139C7.27384 16.1255 7.25451 16.1042 7.24333 16.0787C7.23218 16.053 7.2298 16.0245 7.23658 15.9973C7.24338 15.9702 7.25894 15.9461 7.28087 15.9288C7.3028 15.9114 7.32985 15.9018 7.35781 15.9015C7.37892 15.9015 7.39965 15.907 7.41811 15.9172C7.64636 16.0425 7.84352 16.2176 7.995 16.4293C8.14649 16.6412 8.2484 16.8843 8.29323 17.1407C8.33804 17.3972 8.32462 17.6606 8.25395 17.9112C8.18327 18.1618 8.05714 18.3933 7.88491 18.5886L7.88851 18.5886Z" fill="white"/>
<path d="M98.1709 4.31573L98.1197 1.38569L90.246 1.52312C89.824 1.52025 89.4063 1.60663 89.0203 1.77652C88.634 1.94642 88.2882 2.19597 88.0053 2.50901C87.7083 2.80693 87.4748 3.16207 87.3189 3.55283C87.163 3.94373 87.0879 4.3621 87.0982 4.78268L87.1563 8.10875C87.1565 8.53036 87.2443 8.94731 87.4139 9.33324C87.5837 9.71932 87.8317 10.0658 88.1422 10.3509C88.4361 10.6535 88.7906 10.8904 89.1823 11.0464C89.5741 11.2025 89.9944 11.2741 90.4159 11.2565L94.3225 11.1883C94.4634 11.1833 94.6039 11.2066 94.7357 11.2567C94.8674 11.3069 94.9878 11.3829 95.0898 11.4804C95.193 11.5773 95.2747 11.695 95.3296 11.8256C95.3845 11.9562 95.4115 12.0968 95.4085 12.2386L95.4468 14.4322L96.8317 15.1097L87.3133 15.2758L87.3628 18.1136L95.2032 17.9767C95.6253 17.9797 96.0434 17.8935 96.4297 17.7236C96.8162 17.5537 97.1624 17.304 97.4454 16.9908C97.747 16.6958 97.9841 16.3413 98.1417 15.9499C98.2991 15.5586 98.3736 15.1387 98.3604 14.717L98.3018 11.3591C98.3005 10.9369 98.2115 10.5196 98.0404 10.1336C97.8694 9.7476 97.6198 9.40146 97.3079 9.11702C97.0139 8.81433 96.6591 8.57729 96.2671 8.42126C95.8749 8.26524 95.4543 8.19378 95.0327 8.21152L91.1276 8.27968C90.8513 8.29091 90.5817 8.19192 90.3783 8.00458C90.1747 7.81724 90.054 7.55662 90.0425 7.2803C90.0406 7.26341 90.0403 7.24634 90.0416 7.22939L89.9932 4.45847L98.1709 4.31573Z" fill="white"/>
<path d="M111.067 7.05012C111.062 6.95789 111.078 6.86573 111.114 6.78047C111.15 6.69521 111.204 6.6193 111.273 6.55806C111.412 6.42392 111.595 6.34505 111.788 6.33585L114.504 6.28845L114.47 4.39406L111.267 4.44998C110.534 4.47174 109.838 4.77932 109.328 5.30699C108.818 5.83451 108.535 6.54043 108.538 7.27407L108.719 17.6485L111.283 17.6037L111.182 11.7803L114.11 11.7292L114.075 9.71377L110.17 9.78194L111.168 9.27761L111.129 7.05061L111.067 7.05012Z" fill="white"/>
<path d="M118.936 15.3983C118.719 15.399 118.509 15.3155 118.352 15.1652C118.272 15.0919 118.208 15.0028 118.164 14.9036C118.121 14.8043 118.098 14.6972 118.098 14.5888L118.023 10.286L120.433 10.2439L120.394 8.04718L117.989 8.08916L117.925 4.39721L115.143 4.44577L115.317 14.4241C115.313 14.8225 115.393 15.2172 115.552 15.5826C115.711 15.9479 115.945 16.2758 116.239 16.545C116.512 16.829 116.842 17.0515 117.208 17.1976C117.574 17.3438 117.967 17.4102 118.36 17.3925L121.015 17.3462L120.979 15.3022L118.935 15.3379L118.936 15.3983Z" fill="white"/>
<path d="M105.018 8.43806L101.814 8.49398C101.182 8.50503 100.579 8.76703 100.139 9.2222C99.6998 9.67752 99.4589 10.2888 99.47 10.9216L99.5499 15.4996C99.5609 16.1324 99.8229 16.7349 100.278 17.1745C100.733 17.6142 101.345 17.855 101.978 17.844L105.181 17.788C105.814 17.777 106.416 17.515 106.856 17.0597C107.296 16.6045 107.537 15.9932 107.525 15.3604L107.445 10.776C107.433 10.1444 107.17 9.54357 106.715 9.10529C106.26 8.66702 105.65 8.42704 105.018 8.43806ZM105.353 15.3919C105.35 15.4474 105.327 15.5 105.289 15.54C105.25 15.5799 105.199 15.6044 105.143 15.6088L100.81 15.6844L101.686 15.2108L101.611 10.8778C101.609 10.8238 101.628 10.7711 101.664 10.7307C101.7 10.6904 101.751 10.6655 101.804 10.6612L105.049 10.6046C105.077 10.6034 105.104 10.6075 105.13 10.6168C105.156 10.6262 105.179 10.6406 105.2 10.6592C105.22 10.6779 105.236 10.7002 105.247 10.7252C105.259 10.7502 105.265 10.7771 105.266 10.8045L105.346 15.392L105.353 15.3919Z" fill="white"/>
<path d="M83.1779 7.99525L76.1297 8.11827L76.129 6.34735C76.1207 6.08761 76.1905 5.83149 76.3294 5.61186C76.4121 5.5117 76.5025 5.41809 76.5997 5.3319C76.7181 5.25971 76.8559 5.22558 76.9943 5.23426L83.0388 5.12876L82.9483 1.68078L76.2676 1.79739C75.7055 1.79938 75.1448 1.85028 74.5915 1.94912C74.1024 2.03618 73.65 2.26555 73.2904 2.60837C72.9073 2.98319 72.6495 3.46733 72.5524 3.99433C72.4581 4.53878 72.4144 5.09088 72.422 5.64351L72.5754 14.4319C72.5813 14.7675 72.5872 15.1031 72.6228 15.408C72.6616 15.6954 72.7198 15.9799 72.7967 16.2595C72.8903 16.5326 73.0287 16.7883 73.2062 17.016C73.3964 17.2616 73.6271 17.4728 73.8885 17.6407C74.1633 17.839 74.4644 17.9982 74.783 18.1135C75.0716 18.2028 75.3693 18.2589 75.6706 18.2809C75.9758 18.3022 76.2817 18.3074 76.5873 18.2968C76.9217 18.2634 77.2577 18.247 77.5937 18.2474L83.2995 18.1478L83.2373 14.5864L77.6779 14.6834C77.4842 14.6814 77.2907 14.6954 77.0995 14.7252C76.92 14.7276 76.7457 14.6658 76.608 14.5509C76.4939 14.4738 76.3999 14.3704 76.334 14.2494C76.2683 14.1285 76.2326 13.9934 76.2299 13.8558L76.1639 11.9029L83.2074 11.78L83.1413 7.99588L83.1779 7.99525Z" fill="white"/>
<path d="M35.0478 4.74596C34.9314 4.19182 34.6325 3.69278 34.1987 3.32867C33.7655 2.94008 33.3637 2.70685 32.966 2.61834C32.5023 2.53227 32.0304 2.4994 31.5592 2.52028L27.4409 2.59217C27.1053 2.59803 26.8047 2.60328 26.4872 2.63912C26.1988 2.6524 25.913 2.6985 25.6351 2.77646C25.357 2.84205 25.0906 2.94969 24.8451 3.09579C24.5937 3.2501 24.3729 3.44926 24.1933 3.68311C24.0033 3.90862 23.8433 4.15806 23.7178 4.42497C23.6276 4.67447 23.5508 4.92872 23.4877 5.18643C23.4413 5.45878 23.4259 5.73557 23.4417 6.01139L23.6718 19.1932L27.327 19.1294L27.1136 6.89877C27.1063 6.82593 27.1158 6.75222 27.1417 6.68349C27.1761 6.60935 27.2152 6.5374 27.2588 6.46822C27.3237 6.3863 27.407 6.32069 27.5018 6.27679C27.5967 6.23289 27.7006 6.21187 27.805 6.21531L30.6475 6.1657C30.7901 6.15652 30.9335 6.16412 31.0743 6.1884C31.2085 6.21508 31.3287 6.28851 31.4136 6.3957C31.5386 6.53818 31.6069 6.72162 31.6057 6.91111L31.6552 9.74887L28.7267 9.79998L28.7901 13.4315L31.7186 13.3804L31.8177 19.0559L35.4492 18.9925L35.2335 6.63456C35.2544 5.99965 35.192 5.36462 35.0478 4.74596Z" fill="white"/>
<path d="M49.3527 4.12858C49.1407 3.6835 48.8434 3.28429 48.4777 2.9537C48.1389 2.66886 47.7381 2.46719 47.3074 2.36475C46.8646 2.28002 46.4134 2.24679 45.9628 2.26561L37.6325 2.41101L37.9207 18.9191L46.0966 18.7764C46.6826 18.7631 47.2649 18.6809 47.8316 18.5312C48.2575 18.3623 48.6417 18.1028 48.9574 17.7706C49.2731 17.4383 49.5127 17.0415 49.6597 16.6074C49.7617 16.2809 49.8093 15.9398 49.8011 15.5977L49.6264 5.58934C49.6256 5.08965 49.5328 4.59456 49.3527 4.12858ZM46.0205 14.4131C46.0247 14.5159 46.0024 14.6179 45.956 14.7095C45.9093 14.8012 45.8399 14.8794 45.7544 14.9365C45.6541 15.0163 45.542 15.08 45.422 15.1252C45.292 15.1527 45.1592 15.1651 45.0265 15.1624L41.4888 15.2242L41.328 6.00943L39.7986 4.35736L41.1211 5.00581L43.1524 5.88527L44.891 5.85492C45.1561 5.84204 45.4171 5.9244 45.6269 6.08716C45.7175 6.16538 45.7899 6.26241 45.8393 6.3715C45.8887 6.48045 45.914 6.59893 45.9133 6.71856L46.0476 14.4079L46.0205 14.4131Z" fill="white"/>
<path d="M63.3887 3.88358C63.2223 3.46004 62.9168 3.09625 62.5137 2.7087C62.171 2.42977 61.7717 2.22878 61.3436 2.11975C60.9006 2.03503 60.4494 2.0018 59.9988 2.02061L51.6685 2.16602L51.9567 18.6741L60.1344 18.5313C60.7202 18.5181 61.3025 18.4358 61.8692 18.2861C62.4206 18.0977 62.8965 17.7362 63.226 17.2554C63.4349 16.9881 63.5947 16.6858 63.6973 16.3624C63.7992 16.0359 63.8471 15.6948 63.8387 15.3527L63.664 5.34432C63.6773 4.84324 63.5834 4.34532 63.3887 3.88358ZM60.0884 14.1675C60.0924 14.2703 60.0702 14.3723 60.0235 14.464C59.9769 14.5555 59.9076 14.6337 59.8222 14.6909C59.7301 14.7822 59.6154 14.8473 59.4898 14.8797C59.3498 14.9081 59.2069 14.9207 59.0641 14.9174L55.5233 14.9792L55.3624 5.76446L53.8696 4.11176L55.1921 4.76021L57.2218 5.63969L58.962 5.60931C59.2172 5.60202 59.4669 5.68443 59.6678 5.84208C59.7581 5.92045 59.8304 6.01748 59.8799 6.12657C59.9293 6.23552 59.9545 6.35385 59.9541 6.47349L60.0884 14.1675Z" fill="white"/>
<path d="M69.8227 1.84916L66.2835 1.91093L66.5717 18.419L70.1109 18.3572L69.8227 1.84916Z" fill="white"/>
</svg>
