<svg width="66" height="29" viewBox="0 0 66 29" fill="none" xmlns="http://www.w3.org/2000/svg">
<path fill-rule="evenodd" clip-rule="evenodd" d="M-54.2884 8.11913C-54.2867 8.24086 -53.9991 9.05203 -53.6498 9.92202C-53.3004 10.792 -52.5847 12.6113 -52.0594 13.965C-50.1787 18.8123 -48.9741 21.7789 -48.8865 21.7802C-48.8375 21.781 -48.2299 20.3188 -47.5365 18.5307C-46.843 16.7429 -46.0026 14.5792 -45.6687 13.723C-45.3349 12.8666 -45.0033 12.2237 -44.9315 12.2942C-44.86 12.3647 -44.3701 13.4503 -43.8434 14.7065C-41.9777 19.154 -40.8205 21.6589 -40.6968 21.5178C-40.6281 21.4391 -40.1848 20.253 -39.712 18.8821C-39.2392 17.511 -38.1603 14.4851 -37.3142 12.158C-36.4682 9.83092 -35.7774 7.84765 -35.7791 7.75095C-35.7808 7.65411 -36.209 7.58236 -36.7308 7.59147L-37.6795 7.60803L-38.3648 9.78793C-38.7416 10.9871 -39.4158 13.149 -39.863 14.5928C-40.3101 16.0364 -40.7295 17.2183 -40.795 17.2195C-40.9008 17.2213 -42.2119 14.2696 -44.2079 9.53602C-44.5849 8.64205 -44.9449 7.91237 -45.008 7.91432C-45.0711 7.91613 -45.4791 8.85894 -45.9148 10.0098C-46.3504 11.1603 -47.1539 13.2841 -47.7003 14.7296C-48.2468 16.1749 -48.7436 17.3582 -48.8045 17.3593C-48.9081 17.3611 -51.6295 10.2499 -52.1518 8.61283L-52.3903 7.8648L-53.3409 7.8814C-53.9825 7.8926 -54.2906 7.96981 -54.2884 8.11913ZM-11.6633 7.32233C-13.3538 7.63448 -14.2493 8.60556 -14.3386 10.2233C-14.4424 12.1022 -13.8397 13.0597 -11.7444 14.3446C-9.52452 15.7058 -8.74172 16.6042 -8.72059 17.8148C-8.71222 18.294 -8.84423 18.5955 -9.24163 19.0044C-9.73251 19.5098 -9.84949 19.5474 -10.7469 19.4892C-11.4722 19.4422 -11.9224 19.2869 -12.5147 18.8793C-13.3963 18.2731 -13.8893 18.2036 -14.3018 18.628C-15.5178 19.8799 -11.8015 21.6119 -9.37857 20.9222C-7.73316 20.4538 -6.75069 19.1491 -6.77234 17.4607C-6.79403 15.7698 -7.45265 14.888 -9.86735 13.317C-11.768 12.0802 -12.3762 11.4711 -12.5238 10.6559C-12.6236 10.1057 -12.5638 9.9414 -12.0849 9.44856C-11.5819 8.93054 -11.4514 8.88403 -10.6704 8.94493C-10.1901 8.98235 -9.56865 9.17676 -9.26361 9.38466C-8.58369 9.84831 -8.29209 9.84806 -7.88386 9.38333C-6.90126 8.26536 -9.39765 6.90399 -11.6633 7.32233ZM11.1729 6.84663C11.115 6.90639 11.4219 7.80043 11.8551 8.83353C12.2882 9.86648 13.2051 12.0957 13.8926 13.7872C16.1638 19.3761 16.6972 20.6383 16.7871 20.6369C16.8361 20.636 17.3923 19.253 18.0233 17.5635C21.4024 8.51554 22.0634 6.72922 22.062 6.65101C22.0612 6.6038 21.5924 6.57343 21.0202 6.58342L19.98 6.60158L19.3449 8.60365C17.575 14.1848 16.8234 16.2315 16.6517 15.9385C16.557 15.777 15.8933 14.0524 15.1767 12.1058C14.4601 10.1591 13.7267 8.17086 13.5469 7.68724L13.2197 6.80805L12.249 6.77294C11.7151 6.75381 11.2309 6.78687 11.1729 6.84663ZM23.7842 13.526L23.9062 20.5148L24.9741 20.4961L26.0419 20.4775L25.9199 13.4888L25.798 6.50002L24.7302 6.51866L23.6622 6.5373L23.7842 13.526ZM29.1236 13.4328L29.2456 20.4216L32.1821 20.3703L35.1187 20.3191L35.1033 19.4344L35.0879 18.5498L33.1302 18.584L31.1724 18.6181L31.0658 12.514L30.9593 6.40993L29.9805 6.42702L29.0016 6.4441L29.1236 13.4328ZM37.3105 13.2899L37.4325 20.2787L40.3691 20.2274L43.3058 20.1761L43.2904 19.2915L43.2749 18.4069L41.3171 18.4411L39.3594 18.4752L39.2529 12.3711L39.1463 6.26703L38.1674 6.28411L37.1885 6.3012L37.3105 13.2899ZM-31.734 9.31829C-32.4215 11.0429 -33.0021 12.4637 -35.3387 18.142L-36.7509 21.5735L-35.8092 21.5571L-34.8677 21.5407L-34.3682 20.2488L-33.8689 18.957L-30.8239 18.8555L-27.7791 18.7538L-27.2579 20.0764L-26.7368 21.3987L-25.7091 21.3808C-25.1439 21.3709 -24.6825 21.3085 -24.6837 21.242C-24.6848 21.1757 -25.0553 20.3259 -25.5072 19.3539C-25.9589 18.3817 -26.7773 16.5987 -27.3257 15.3915C-29.9674 9.57677 -30.8684 7.66609 -30.9681 7.66783C-31.0278 7.66887 -31.3726 8.41143 -31.734 9.31829ZM-26.1662 7.70193C-26.1651 7.76663 -25.8022 8.37764 -25.3601 9.05938C-24.9179 9.74126 -23.9285 11.3409 -23.1616 12.6144L-21.7674 14.9294L-21.7117 18.1198L-21.656 21.3101L-20.588 21.2914L-19.5201 21.2728L-19.5786 17.9228L-19.6371 14.573L-19.1407 13.7117C-17.9995 11.7321 -15.926 8.17296 -15.6962 7.7994C-15.4486 7.39694 -15.4489 7.39694 -16.6106 7.41722L-17.7723 7.4375L-18.5075 8.82199C-18.9118 9.58337 -19.5364 10.8288 -19.8954 11.5894C-20.2542 12.35 -20.6095 12.9718 -20.6851 12.971C-20.7605 12.9702 -21.5244 11.749 -22.3827 10.2573L-23.943 7.54521L-25.0557 7.56463C-25.6676 7.57531 -26.1674 7.63709 -26.1662 7.70193ZM-0.359296 7.26484C-0.897033 7.3105 -1.40791 7.42027 -1.49455 7.50869C-1.58777 7.60378 -1.11164 8.67382 -0.329097 10.1278L0.993863 12.5858L0.324436 12.8777C-1.12933 13.5114 -1.99594 14.8853 -1.97406 16.5214C-1.95524 17.9254 -1.60087 18.8242 -0.738919 19.6529C0.877928 21.2073 3.54745 21.2417 5.15471 19.7287L5.5488 19.3576L5.55658 19.8035C5.56502 20.2873 6.06332 20.8262 6.49547 20.8187C6.64393 20.8161 6.89535 20.666 7.05421 20.4852C7.30234 20.2029 7.33452 19.6671 7.28248 16.6861C7.22431 13.3535 7.20681 13.2056 6.84094 12.9602C6.63138 12.8196 6.32991 12.7519 6.17061 12.8096C5.57313 13.0264 5.44568 13.4503 5.4749 15.124C5.50901 17.0784 5.28458 17.7644 4.3777 18.4772C3.49986 19.1673 1.99299 19.3172 1.1312 18.7998C-0.0499862 18.091 -0.498771 16.6973 0.0292385 15.3772C0.329769 14.6256 1.05459 14.0923 2.07111 13.8749C3.20454 13.6323 3.1814 13.2931 1.86886 10.9102C1.26364 9.81141 0.813986 8.86523 0.86988 8.80779C0.925631 8.7502 2.0765 8.68388 3.42698 8.66031C5.74955 8.61977 5.89352 8.59677 6.079 8.23778C6.22112 7.96205 6.22002 7.74359 6.07506 7.44143C5.87681 7.02783 5.85486 7.02523 3.24676 7.10333C1.80117 7.14662 0.178444 7.21933 -0.359296 7.26484ZM49.4482 8.25614C48.9946 9.35863 48.3905 10.8222 48.1057 11.5087C47.8208 12.195 47.143 13.8395 46.5993 15.1632C46.0555 16.4867 45.3718 18.1188 45.0798 18.79C44.7879 19.4612 44.5497 20.0469 44.5505 20.0913C44.5513 20.1356 45.0087 20.1403 45.5669 20.1013L46.582 20.0305L47.0329 18.7837L47.4839 17.537L50.5078 17.4358L53.5318 17.3347L54.0662 18.6569L54.6005 19.979L55.6391 19.9609C56.8477 19.9398 56.8407 20.0449 55.7786 17.8346C55.4306 17.1107 54.438 14.9377 53.5724 13.0061C51.4202 8.20181 50.4943 6.24576 50.3743 6.24885C50.3184 6.25039 49.9018 7.15366 49.4482 8.25614ZM59.7103 6.33581C58.5688 6.86668 57.868 8.03521 57.8968 9.35814C57.9324 10.9068 58.7518 11.8914 61.5306 13.728C63.7036 15.1646 64.2325 16.6179 63.0009 17.7727C62.5055 18.2372 62.354 18.2827 61.4868 18.2263C60.8574 18.1855 60.3569 18.0338 60.0368 17.7869C58.9785 16.9705 57.9825 16.8754 57.8269 17.5757C57.6989 18.1464 57.8757 18.4169 58.7346 18.9712C62.1586 21.1825 66.3303 18.9677 65.4643 15.3967C65.1577 14.1277 64.618 13.5225 62.6367 12.2254C60.4078 10.767 59.8658 10.1927 59.8498 9.27427C59.8331 8.31626 60.2769 7.83058 61.2902 7.69909C61.9743 7.61034 62.2627 7.67301 62.9566 8.06089C63.6547 8.45183 63.8646 8.49667 64.2158 8.33023C64.7322 8.08509 64.7774 7.25346 64.2964 6.83555C63.3995 6.05649 60.8969 5.78396 59.7103 6.33581ZM-30.7213 11.9239C-30.7197 12.0166 -30.2716 13.0992 -29.7254 14.3296C-29.1793 15.5599 -28.6726 16.7446 -28.5994 16.9624L-28.466 17.3583L-30.6923 17.3972C-32.057 17.421 -32.9644 17.3647 -33.0375 17.2521C-33.1027 17.1508 -32.6886 15.9112 -32.1169 14.4972C-31.5451 13.0833 -31.0788 11.8402 -31.0806 11.7346C-31.0825 11.6289 -31.0031 11.5904 -30.9042 11.6488C-30.8052 11.7073 -30.7229 11.831 -30.7213 11.9239ZM51.6984 13.0719C52.3274 14.5393 52.8428 15.7846 52.8438 15.8394C52.8464 15.9912 48.2189 16.039 48.2119 15.8872C48.1971 15.572 50.3515 10.1722 50.448 10.2822C50.5069 10.349 51.0696 11.6044 51.6984 13.0719Z" fill="white"/>
</svg>
