<svg width="81" height="22" viewBox="0 0 81 22" fill="none" xmlns="http://www.w3.org/2000/svg">
<path d="M8.61485 17.4226C8.63085 17.5068 8.64597 17.5912 8.66287 17.6745C8.77917 18.2442 8.98748 18.7741 9.35091 19.234C9.61675 19.5703 9.94222 19.8346 10.3273 20.0261C10.9215 20.3219 11.5529 20.4055 12.2066 20.3622C12.9384 20.3141 13.6311 20.1111 14.2882 19.7932C15.2751 19.3161 16.1615 18.6925 16.934 17.9109C16.9474 17.897 16.9608 17.8815 16.984 17.8556C16.9448 17.8526 16.9166 17.8485 16.8876 17.8482C16.1803 17.8487 15.4745 17.8219 14.7729 17.7205C14.1195 17.6265 13.4901 17.4503 12.8821 17.1936C12.8024 17.1596 12.7236 17.1219 12.6456 17.0833C12.4787 16.9988 12.4019 16.8666 12.4227 16.7027C12.4504 16.4713 12.6671 16.333 12.8892 16.4009C13.1578 16.4834 13.4239 16.5742 13.696 16.6422C14.241 16.779 14.7942 16.8657 15.3549 16.9032C16.1621 16.9581 16.9658 16.9197 17.7665 16.8075C17.7818 16.8054 17.7973 16.8006 17.8272 16.7947C18.6704 15.4764 18.9214 14.0268 18.7351 12.4638C18.6742 12.5113 18.6274 12.5467 18.5827 12.5839C18.0116 13.0446 17.4108 13.4605 16.7698 13.818C15.5087 14.52 14.1647 14.9579 12.7194 15.0612C12.5932 15.0699 12.467 15.0785 12.3407 15.0807C12.1853 15.0834 12.0544 15.0283 11.9639 14.8963C11.8529 14.7347 11.8959 14.5394 12.0716 14.4545C12.1519 14.4158 12.2441 14.3896 12.3322 14.3854C13.046 14.3493 13.7332 14.1919 14.4025 13.9502C14.9879 13.7392 15.5486 13.4721 16.095 13.1745C16.9234 12.7246 17.7117 12.21 18.4952 11.6883C18.5249 11.6685 18.5518 11.6463 18.5868 11.6194C18.3766 10.6713 18.0328 9.7729 17.6137 8.89219C17.4731 9.05822 17.3395 9.21959 17.2023 9.3766C16.5535 10.1178 15.8314 10.7766 15.0139 11.329C14.4381 11.7173 13.8275 12.0424 13.1792 12.2937C12.9887 12.367 12.7944 12.3776 12.6012 12.2974C12.5069 12.2581 12.4313 12.1958 12.3753 12.1123C12.2801 11.9703 12.2879 11.7948 12.3919 11.6584C12.5083 11.5054 12.6734 11.4326 12.8497 11.3786C13.0838 11.3073 13.3227 11.2467 13.5531 11.1654C14.3336 10.8882 15.0279 10.4598 15.6548 9.92166C16.2431 9.41696 16.7484 8.83816 17.2001 8.21038C17.2116 8.19467 17.2204 8.17731 17.2363 8.15072C16.8502 7.42846 16.4126 6.73341 15.9407 6.04636C15.9176 6.07848 15.8998 6.09785 15.8884 6.12081C15.5122 6.85453 15.0355 7.51461 14.4355 8.08226C14.1628 8.34064 13.8771 8.58658 13.5496 8.77494C13.3552 8.88743 13.1442 8.93109 12.9228 8.85316C12.6247 8.74742 12.5305 8.45362 12.7104 8.1933C12.8221 8.03232 12.9794 7.92773 13.1497 7.84027C13.6244 7.59557 14.0536 7.28908 14.4314 6.91066C14.7655 6.57582 15.0462 6.20009 15.268 5.78172C15.3366 5.65321 15.3997 5.52224 15.4684 5.38833C14.582 4.18392 13.6824 3.0025 12.669 1.91396C11.326 2.92912 9.7896 3.43587 8.14176 3.70275C8.14159 3.95367 8.13229 4.20191 8.1448 4.44991C8.1825 5.20371 8.37674 5.91652 8.73556 6.58108C8.85766 6.8071 9.00318 7.02006 9.137 7.23949C9.2287 7.38966 9.29331 7.55026 9.30369 7.72831C9.32272 8.03708 9.07565 8.2549 8.77027 8.20475C8.64538 8.18432 8.53719 8.13073 8.4404 8.05333C8.32516 7.96075 8.23678 7.84508 8.16725 7.71444C7.90972 7.2299 7.72355 6.7178 7.59336 6.18566C7.47587 5.70408 7.40918 5.21536 7.39052 4.71939C7.38232 4.51044 7.38051 4.30237 7.37562 4.0743C6.59358 4.47243 5.83839 4.89741 5.11409 5.37448C5.11557 5.40717 5.11416 5.4308 5.11729 5.45436C5.1933 6.0075 5.29738 6.55389 5.45491 7.09096C5.59313 7.56307 5.76114 8.02286 5.97789 8.46359C6.36052 9.24124 6.86246 9.92976 7.50709 10.5129C7.63731 10.6306 7.74868 10.7614 7.817 10.9266C7.97829 11.3137 7.69387 11.5795 7.37648 11.5705C7.1464 11.5636 6.96372 11.4604 6.82083 11.2939C6.64825 11.0932 6.48463 10.8844 6.3282 10.6708C6.00974 10.2364 5.73624 9.77304 5.49424 9.29193C5.01117 8.33139 4.68083 7.31997 4.46162 6.26934C4.43581 6.14533 4.41095 6.02216 4.38311 5.88623C3.55385 6.49429 2.78922 7.16025 2.11005 7.93197C2.14305 7.99967 2.17046 8.06007 2.2033 8.11853C2.3807 8.43989 2.55631 8.76228 2.73821 9.08086C3.26039 9.99164 3.8311 10.8697 4.50959 11.6732C5.01081 12.268 5.56557 12.8055 6.20511 13.2525C6.34406 13.3501 6.49009 13.4366 6.63259 13.5287C6.73924 13.5977 6.83965 13.6742 6.89537 13.7941C6.98132 13.9798 6.89262 14.1577 6.69252 14.202C6.5558 14.2326 6.4315 14.1939 6.31762 14.1268C5.50661 13.6457 4.7515 13.087 4.07644 12.4271C3.46243 11.8279 2.92549 11.1656 2.47372 10.4362C2.34465 10.2285 2.20657 10.0245 2.09822 9.80567C1.9117 9.4307 1.74501 9.04642 1.57021 8.66584C1.56833 8.66232 1.56465 8.65968 1.55167 8.64526C0.605324 9.99261 0.0946853 11.4622 0.214739 13.1326C0.438246 13.2832 0.654643 13.443 0.884275 13.58C1.21953 13.7795 1.55836 13.9754 1.90683 14.1511C2.34884 14.3733 2.80923 14.5562 3.28174 14.7034C3.82096 14.8712 4.36962 15.007 4.92916 15.0891C4.97563 15.0956 5.02224 15.1103 5.06702 15.124C5.25438 15.1824 5.32181 15.4003 5.19816 15.5544C5.11721 15.6558 5.00732 15.7131 4.87722 15.7062C4.56606 15.6899 4.25319 15.679 3.94437 15.6407C3.60826 15.6002 3.27358 15.5379 2.94067 15.4729C2.74002 15.4336 2.54174 15.3743 2.34528 15.3152C2.1223 15.2472 1.89842 15.1793 1.68149 15.093C1.29248 14.9381 0.906966 14.7757 0.542458 14.5667C0.525926 14.5569 0.506763 14.5527 0.467436 14.5389C0.523344 14.7215 0.569928 14.8907 0.62735 15.056C0.899125 15.8367 1.26915 16.57 1.71486 17.2649C2.12041 17.8987 2.62167 18.4435 3.27291 18.832C4.17582 19.3707 5.13448 19.5095 6.14316 19.1811C6.69631 19.0014 7.18469 18.7047 7.61511 18.3154C7.78782 18.1596 7.94571 17.9879 8.111 17.8231C8.12708 17.8075 8.14406 17.7908 8.17761 17.7857L8.61485 17.4226Z" fill="white"/>
<path d="M36.3369 6.70401L36.3395 6.8519C36.3633 8.21603 35.7374 9.32721 34.4616 10.1853C33.9264 10.5393 33.2812 10.8325 32.5234 11.0675L36.493 16.6584L35.1098 16.6624C34.754 16.7426 34.3574 16.4851 33.9158 15.8901L31.1138 11.6434C30.9874 11.4364 30.8433 11.2972 30.6829 11.2273C30.6085 11.1924 30.5404 11.1748 30.479 11.1758L28.8743 11.2039L28.9589 16.0506C28.9668 16.5054 28.7744 16.7543 28.3818 16.7987L26.7595 16.827L26.5173 2.9482C26.5476 2.60444 26.6912 2.36125 26.947 2.22151C27.0563 2.17067 27.1848 2.13714 27.3324 2.12204C29.0286 2.09244 30.0109 2.08781 30.2819 2.10683C31.5616 2.19488 32.2316 2.24577 32.2945 2.25591C33.5512 2.46711 34.4554 2.86355 35.0068 3.44409C35.8712 4.36383 36.315 5.45008 36.3369 6.70401ZM33.4668 9.18761C34.0425 8.35426 34.3225 7.52621 34.3081 6.70315C34.2927 5.81866 34.0012 4.99048 33.4352 4.21973C32.8691 3.44883 32.1649 2.94862 31.3264 2.71775C30.8077 2.57887 30.1738 2.51596 29.4247 2.52904C28.958 2.5736 28.7286 2.78684 28.7353 3.16766L28.8669 10.7053C29.6056 10.7412 30.4395 10.7029 31.3723 10.5876C32.1447 10.5503 32.8434 10.0833 33.4668 9.18761Z" fill="white"/>
<path d="M45.516 15.042C45.7956 14.8404 45.9781 14.7395 46.0633 14.738C46.1485 14.7365 46.193 14.7783 46.1945 14.8647C46.1979 15.0614 45.926 15.3481 45.38 15.7273C44.4686 16.3459 43.4979 16.6637 42.4657 16.6817C42.0599 16.6888 41.5916 16.6418 41.0623 16.5408C39.9774 16.3378 39.1199 15.8128 38.491 14.9628C37.7612 14.0044 37.3851 12.8494 37.3616 11.4977C37.3292 9.64252 37.8778 7.97381 39.0073 6.49169C39.8721 5.35884 40.8883 4.78094 42.0559 4.76056C42.5344 4.75221 42.985 4.86098 43.4074 5.08789C43.8792 5.33782 44.3282 5.71959 44.7544 6.23476C45.1808 6.74992 45.5233 7.35545 45.7811 8.05136C46.1295 8.9801 46.3086 9.77525 46.3202 10.4392C46.2917 10.9559 46.0323 11.2436 45.5408 11.3011L39.4602 11.4073L39.4888 13.047C39.5373 13.6727 39.6634 14.2119 39.868 14.6631C40.3781 15.7482 41.2482 16.2793 42.4771 16.2579C42.6125 16.2555 42.7538 16.2468 42.9002 16.2317C43.4038 16.2229 43.9967 16.0159 44.6775 15.6105C44.8115 15.533 45.0902 15.3439 45.516 15.042ZM39.4597 8.21561C39.4493 8.33854 39.4464 9.24839 39.4521 10.9437L43.7827 10.8681C43.9786 10.8159 44.1246 10.7081 44.2195 10.5473C44.2548 10.4852 44.2785 10.4108 44.2895 10.3241C44.3116 10.1522 44.3113 9.85136 44.2925 9.42069C44.2094 8.18035 43.9831 7.20182 43.6147 6.48267C43.2204 5.71518 42.6361 5.33818 41.862 5.3517C41.4072 5.35963 40.9802 5.52114 40.5797 5.83523C39.9494 6.33868 39.576 7.13209 39.4597 8.21561Z" fill="white"/>
<path d="M49.2627 0.541126L49.5271 15.6915C49.5351 16.1462 49.2375 16.3969 48.6369 16.445L47.3653 16.4672L47.0999 1.26179C47.0924 0.832203 47.2914 0.600571 47.6968 0.56974L49.2627 0.541126Z" fill="white"/>
<path d="M59.4128 10.6689L59.5103 16.2536L58.9578 16.2632L58.1649 16.277C57.7352 16.2845 57.4972 16.0731 57.4533 15.6441L57.4157 13.4882C56.8536 14.3826 56.2628 15.0633 55.6444 15.529C55.3291 15.7677 54.9765 15.9592 54.5855 16.1001C54.1461 16.2682 53.699 16.355 53.2442 16.3629C52.6179 16.3739 52.099 16.2238 51.6875 15.9102C51.351 15.6579 51.0868 15.3129 50.8949 14.8727C50.6131 14.226 50.4656 13.5343 50.4527 12.7964C50.4229 11.089 51.0442 9.85513 52.3154 9.09484C52.7805 8.81603 53.3155 8.67141 53.9206 8.66085C54.3527 8.65331 54.7736 8.71993 55.1846 8.86055C55.7933 9.05916 56.2994 9.3324 56.7002 9.68243C56.938 9.88767 57.1128 9.9886 57.2243 9.98665C57.2857 9.98558 57.3163 9.94863 57.3151 9.87468C57.3148 9.86217 57.3186 9.71801 57.3263 9.44093C57.3339 9.16399 57.3358 8.90948 57.3317 8.67528C57.2984 6.77107 56.8473 5.69135 55.977 5.43585C55.6293 5.33168 55.2876 5.28245 54.9544 5.28827C54.67 5.29323 54.3989 5.34064 54.1411 5.43162C53.8099 5.54764 53.3993 5.78909 52.9119 6.15349C52.5335 6.4433 52.1488 6.73194 51.7591 7.02195C51.3324 7.33636 51.0689 7.46386 50.9688 7.40416C50.9434 7.37957 50.9303 7.34964 50.9297 7.3121C50.9286 7.25067 51.0114 7.11395 51.1807 6.90175C51.4936 6.52788 51.8982 6.15241 52.3965 5.77402C52.6514 5.58536 52.9252 5.40264 53.2165 5.22458C54.0433 4.70647 54.9298 4.45671 55.8762 4.47775C56.2085 4.48446 56.5035 4.51559 56.7626 4.57252C57.4654 4.70818 58.0368 5.06036 58.4778 5.63032C58.8801 6.1395 59.1304 6.76541 59.2299 7.50676C59.3281 8.25324 59.389 9.30592 59.4128 10.6689ZM57.388 11.9035C57.3859 11.7807 57.3651 11.6645 57.3269 11.5537C57.2109 11.2362 56.9756 10.8907 56.6196 10.5147C56.2634 10.14 55.9315 9.86882 55.6229 9.70252C55.1026 9.40464 54.617 9.29022 54.1659 9.35954C53.8971 9.40065 53.6241 9.55704 53.3469 9.82503C53.0696 10.0942 52.8852 10.3644 52.7922 10.6367C52.5576 11.2672 52.4786 11.9817 52.5539 12.7798C52.6888 14.1909 53.2646 14.9491 54.2828 15.0541C55.2883 15.1593 56.1833 14.5297 56.9678 13.1639C57.2548 12.6677 57.394 12.2468 57.388 11.9035Z" fill="white"/>
<path d="M60.2463 4.49693L61.7758 4.47023C62.193 4.46295 62.5089 4.61775 62.7237 4.93362C62.8245 5.10355 63.6782 6.49586 65.2853 9.11056L66.9091 4.93453C67.0008 4.58955 67.183 4.40089 67.4519 4.37244L69.2032 4.34187C69.1191 4.47861 68.9871 4.67138 68.8072 4.92017L66.1601 8.54267C65.8004 9.04012 65.6218 9.36286 65.6244 9.51061C65.6261 9.60958 65.6528 9.70058 65.703 9.78618C65.8035 9.94488 67.0458 12.0483 69.4272 16.0994L67.9528 16.1251C67.7317 16.1654 67.5155 16.0588 67.3018 15.8045C67.2007 15.6834 66.2797 14.2547 64.5353 11.5207L62.7093 15.664C62.555 16.0114 62.2888 16.2002 61.9084 16.2306L60.4528 16.256L64.0533 11.3262C64.1255 11.2272 64.1597 11.1088 64.1574 10.9736C64.155 10.8382 64.1127 10.7011 64.03 10.561C63.9473 10.4221 62.6853 8.40035 60.2463 4.49693Z" fill="white"/>
<path d="M70.0869 4.28862L71.7304 4.25993C72.0135 4.25499 72.2514 4.45268 72.4426 4.85403C72.5324 5.04918 73.8678 8.04329 76.4514 13.8365C76.6377 13.2429 76.8242 12.6544 77.0095 12.0723C77.2305 11.3792 77.3853 10.7726 77.4753 10.2548C77.7398 8.53842 78.0218 6.74777 78.3214 4.88427C78.4014 4.58715 78.4425 4.43351 78.4423 4.421C78.5243 4.23536 78.6705 4.14007 78.8797 4.13642L80.3341 4.11103L77.6365 12.2431C77.3675 13.0597 76.9512 14.1873 76.386 15.6245C75.9033 16.827 75.3003 17.8213 74.5761 18.6096C74.0215 19.2095 73.3521 19.6334 72.5708 19.8814C72.1919 19.9983 71.8421 20.0608 71.5227 20.0664C71.1167 20.0735 70.8082 19.9862 70.5958 19.8057C70.4839 19.7086 70.4251 19.5015 70.4195 19.1821L70.3954 17.8004C70.6118 18.2139 70.9523 18.5501 71.4179 18.8063C71.8835 19.0626 72.3363 19.15 72.7771 19.0683C73.5132 18.9565 74.24 18.3836 74.9601 17.351C75.2472 16.9275 75.3455 16.5324 75.2526 16.1643C75.2008 15.9885 73.4788 12.0312 70.0869 4.28862Z" fill="white"/>
</svg>
