<svg width="95" height="37" viewBox="0 0 95 37" fill="none" xmlns="http://www.w3.org/2000/svg">
<path fill-rule="evenodd" clip-rule="evenodd" d="M84.4071 6.15848L86.0668 6.12951L86.2025 13.9075C86.291 18.9758 86.3881 21.6845 86.5042 21.6825C86.5871 21.6811 87.5857 20.8773 90.7576 18.0946L91.1792 18.4721C91.4149 18.6687 91.6019 18.9165 91.6034 19.0001C91.6048 19.0837 90.6741 19.9701 89.546 20.9602C88.4178 21.9504 87.4534 22.8037 87.4217 22.8879C87.3896 22.9555 88.9094 23.4812 90.8284 24.0499C92.731 24.6359 94.3331 25.1266 94.4166 25.1585C94.4836 25.1909 94.4391 25.4928 94.3451 25.8124C94.2348 26.1489 94.0566 26.403 93.9737 26.4045C93.8906 26.4059 92.1383 25.8676 86.3792 24.0272L86.4142 26.0345L84.8362 25.9784L84.4071 6.15848ZM63.862 17.8948L65.5215 17.8658L65.5449 19.204C65.5659 20.4083 65.6011 20.5248 65.8652 20.4365C66.0137 20.3837 66.7091 20.288 67.3884 20.2092C68.3165 20.1261 68.8319 20.1673 69.383 20.3584C69.8003 20.4851 70.388 20.8764 70.6923 21.189C70.9969 21.5182 71.288 22.0319 71.3428 22.3153C71.4144 22.6153 71.406 23.0839 71.3612 23.3691C71.2998 23.6547 71.0092 24.1282 70.7323 24.4343C70.3899 24.7916 69.8642 25.1019 69.2205 25.314C68.6758 25.4908 67.7832 25.7071 67.2365 25.7668C66.4911 25.8635 66.2087 25.8517 66.1229 25.686C66.0544 25.57 65.9827 25.2701 65.9784 25.0191C65.9705 24.5675 66.0033 24.5502 67.3443 24.3428C68.1558 24.2282 68.9651 23.9966 69.3596 23.7722C69.787 23.5305 70.0309 23.2417 70.0601 23.0069C70.0732 22.806 69.9843 22.4728 69.848 22.2745C69.7115 22.0594 69.3583 21.7979 69.0572 21.6693C68.6392 21.4925 68.1908 21.4835 67.3294 21.5822C66.6999 21.6602 66.037 21.722 65.8877 21.7246C65.6053 21.7127 65.5965 22.1647 65.7465 35.5142L64.2529 35.5403L63.862 17.8948ZM32.9831 8.22733L34.6426 8.19836L34.7433 13.9691C34.8379 19.3885 34.8607 19.7396 35.1411 19.6343C35.2892 19.5647 35.7679 19.4059 36.164 19.2818C36.5766 19.1407 37.3549 19.0267 37.9025 19.0171C38.4501 19.0076 39.1987 19.0949 39.5655 19.189C39.9327 19.2996 40.5537 19.6903 40.9252 20.052C41.4318 20.5451 41.6708 20.9259 41.8143 21.5424C41.9404 22.109 41.9664 22.644 41.8601 23.2148C41.7851 23.6679 41.5484 24.3747 41.3227 24.7636C41.0975 25.169 40.5924 25.7133 40.1824 26.0049C39.7891 26.2961 39.015 26.6443 38.503 26.7871C37.9742 26.9302 37.246 27.06 36.881 27.0663C36.516 27.0727 35.9336 26.9992 34.9667 26.7652L34.9929 28.2705L33.3335 28.2995L33.3145 27.2122C33.299 26.3258 33.2454 26.1092 33.0119 26.0463C32.8451 25.999 32.4928 25.7876 31.7021 25.1824L32.1562 24.5721C32.4805 24.1314 32.6936 23.9771 32.9271 24.04C33.2438 24.1181 33.259 24.0342 33.243 23.1142C33.2324 22.5121 33.123 21.945 32.9693 21.6968C32.7471 21.3325 32.746 21.2657 32.9605 21.195C33.1751 21.1244 33.1927 20.2372 33.0955 14.6672L32.9831 8.22733ZM35.5871 21.4168L34.8805 21.8307L34.9375 25.0925C36.6025 25.3814 37.1003 25.3727 37.7619 25.2273C38.2745 25.1179 38.8683 24.89 39.0811 24.7189C39.3101 24.531 39.6685 24.1398 39.8621 23.8185C40.1043 23.4295 40.2294 22.9922 40.2206 22.4904C40.2098 21.8715 40.1065 21.6558 39.6844 21.2449C39.2287 20.8178 39.0284 20.7543 38.1316 20.7366C37.5672 20.7298 36.9205 20.7745 36.6896 20.8622C36.4751 20.9328 35.9648 21.1759 35.5871 21.4168ZM54.8686 16.2112L56.528 16.1823L56.6361 22.3713L60.7351 19.4553L61.0759 19.9513C61.2633 20.2324 61.4172 20.4808 61.4181 20.531C61.4189 20.5811 60.5836 21.2316 59.5344 21.986C58.5018 22.7403 57.6665 23.3907 57.7002 23.4235C57.7177 23.4734 59.0879 23.9849 60.7416 24.5751C62.3949 25.1486 63.7815 25.6431 63.8149 25.6593C63.8315 25.659 63.787 25.9609 63.6935 26.314C63.5535 26.8518 63.4718 26.9201 63.1546 26.8252C62.938 26.7789 61.4182 26.2533 56.758 24.5944L56.7061 26.3857L55.0467 26.4147L54.8686 16.2112ZM56.9113 23.8723C57.0502 23.591 57.0683 23.3565 56.9653 23.1686C56.8795 23.0029 56.7777 22.8708 56.7279 22.8717C56.6946 22.8722 56.6504 23.1909 56.674 23.5921C56.686 24.2778 56.686 24.2778 56.9113 23.8723ZM77.3302 19.1656L77.3711 21.5074C77.4056 23.4811 77.4618 23.8483 77.6608 23.8448C77.8103 23.8422 77.9957 24.0062 78.1156 24.2216C78.2703 24.5202 78.2554 24.6207 77.9932 24.8094C77.8293 24.9294 77.6315 25.0165 77.5651 25.0177C77.4988 25.0188 77.4365 25.2542 77.4412 25.5218C77.4494 25.9901 77.4167 26.0242 76.7861 26.0352C76.2717 26.0442 76.1212 25.9799 76.1174 25.7624C76.113 25.5116 75.9462 25.4643 75.0826 25.4458C74.4849 25.4396 73.7687 25.3014 73.4006 25.1406C73.0493 24.9794 72.6116 24.6356 72.4242 24.3545C72.2536 24.0898 72.0948 23.557 72.0719 23.1894C72.0488 22.8217 72.1053 22.2518 72.1993 21.9322C72.2933 21.6128 72.6819 21.0538 73.0413 20.7128C73.4002 20.3552 73.9419 20.0111 74.2398 19.9558C74.5376 19.9004 75.0518 19.8746 75.4006 19.8853C75.9494 19.9426 76.0149 19.8913 76.0094 19.5734C76.0035 19.239 76.1022 19.187 77.3302 19.1656ZM73.3287 21.9627C73.1836 22.2163 73.0754 22.6699 73.0807 22.971C73.0857 23.2554 73.2259 23.6879 73.4126 23.9189C73.7011 24.282 73.8845 24.329 74.9143 24.3613L76.0932 24.3741C76.0406 21.3633 75.9847 21.0128 75.7843 20.9494C75.6508 20.9016 75.3016 20.8742 75.0029 20.8794C74.7043 20.8847 74.2585 21.0263 74.0124 21.1979C73.7662 21.3528 73.4567 21.6928 73.3287 21.9627ZM47.7998 20.183L47.8392 22.4412C47.8731 24.3815 47.9116 24.682 48.1262 24.6112C48.2912 24.5581 48.4765 24.7055 48.6313 25.0208C48.7856 25.3025 48.8901 25.5851 48.8918 25.6855C48.8936 25.7859 48.6802 25.9234 48.3998 26.0287C48.0371 26.1689 47.9067 26.3051 47.9122 26.6229C47.9184 26.9741 47.8533 27.0422 47.4217 27.0498C47.0898 27.0556 46.9224 26.9747 46.9194 26.8075C46.9159 26.6068 46.6827 26.5607 45.8032 26.5761C45.0896 26.5885 44.4404 26.4826 44.0058 26.3062C43.6377 26.1453 43.1666 25.7854 42.9628 25.5213C42.7424 25.2574 42.5349 24.7758 42.4794 24.4589C42.4076 24.1422 42.4472 23.5559 42.54 23.1695C42.6322 22.7496 42.9539 22.1583 43.3121 21.7505C43.7353 21.2746 44.1618 20.9827 44.7398 20.8053C45.2681 20.6454 45.7987 20.6027 46.1983 20.6794C46.7311 20.7705 46.8301 20.7354 46.826 20.5012C46.8056 20.284 46.9369 20.1981 47.7998 20.183ZM44.1444 22.8402C44.0148 23.0266 43.8717 23.3804 43.8266 23.6489C43.7645 23.901 43.8042 24.2685 43.8909 24.4844C43.994 24.6834 44.2641 24.9463 44.482 25.0598C44.716 25.1561 45.3484 25.2453 45.896 25.2358L46.8917 25.2184C46.845 22.5422 46.8087 22.3588 46.5073 22.2134C46.3231 22.1162 45.9401 22.056 45.6415 22.0612C45.343 22.0832 44.9297 22.1741 44.7325 22.2946C44.5354 22.4151 44.2577 22.671 44.1444 22.8402ZM52.2878 20.5229C52.7032 20.5492 53.0696 20.6097 53.1202 20.659C53.1539 20.6918 53.0605 21.045 52.8847 21.4328C52.6133 22.0566 52.4989 22.159 51.9854 22.2182C51.6703 22.2405 51.2252 22.4155 50.9962 22.6036C50.7507 22.8086 50.5736 23.1296 50.5627 23.4477C50.5364 23.8497 50.6227 24.0322 50.9074 24.1779C51.1086 24.2915 52.0237 24.4093 54.5981 24.4983L54.6273 26.171L53.2166 26.1789C52.4529 26.1755 51.472 26.0922 51.0552 25.9824C50.6548 25.8722 50.1031 25.6477 49.8512 25.4847C49.5994 25.3218 49.2605 24.9261 49.1061 24.6443C48.9515 24.3459 48.8091 23.7962 48.8027 23.4282C48.7962 23.0603 48.9358 22.4889 49.1293 22.1676C49.3063 21.8466 49.7299 21.3874 50.0911 21.1636C50.4356 20.9234 50.9128 20.6808 51.1271 20.5934C51.3581 20.5225 51.889 20.4964 52.2878 20.5229ZM82.1594 20.0351C82.4918 20.0627 82.7589 20.1417 82.7927 20.1745C82.8099 20.2078 82.7001 20.5777 82.558 20.9985C82.3205 21.6552 82.2064 21.7743 81.8244 21.7642C81.5754 21.7685 81.146 21.8932 80.8662 22.032C80.6031 22.1704 80.3423 22.4427 80.2957 22.6276C80.2656 22.8121 80.2709 23.1132 80.3074 23.2966C80.3607 23.4965 80.6297 23.6925 80.9467 23.7874C81.2472 23.8826 82.1457 24.0008 84.3891 24.1457L84.4168 25.7346L83.388 25.7526C82.8071 25.7627 81.9431 25.711 81.4269 25.6195C80.9273 25.5278 80.2597 25.322 79.9249 25.1606C79.6067 24.9988 79.1685 24.6216 78.9638 24.3072C78.7085 23.9436 78.5678 23.4943 78.5599 23.0426C78.5529 22.6412 78.6275 22.1547 78.74 21.952C78.8359 21.7327 79.062 21.3774 79.2577 21.1733C79.453 20.9523 79.8294 20.6446 80.0924 20.4893C80.3722 20.3506 80.8169 20.1588 81.0814 20.0873C81.3623 20.0154 81.8432 19.9904 82.1594 20.0351Z" fill="white"/>
<path d="M11.6809 28.9113L11.424 15.1454C11.2463 5.91246 11.2172 1.3953 11.3177 1.44376C11.4175 1.4588 16.0577 8.62272 21.6213 17.3267C28.9254 28.7441 31.6755 33.1803 31.4764 33.1838C31.3105 33.1867 26.7951 32.2281 11.6809 28.9113Z" fill="white"/>
<path d="M4.94136 21.2991C7.39197 17.1402 9.56865 13.4547 9.77855 13.1164C9.98815 12.7613 10.1823 12.4736 10.2321 12.4727C10.2819 12.4718 10.3706 15.6493 10.5618 26.6054L5.73621 27.8441C3.0755 28.5264 0.794742 29.1017 0.67916 29.1372C0.580173 29.1723 0.479727 29.1239 0.477975 29.0235C0.476225 28.9232 2.49075 25.458 4.94136 21.2991Z" fill="#A3A3A3"/>
</svg>
