<svg width="69" height="31" viewBox="0 0 69 31" fill="none" xmlns="http://www.w3.org/2000/svg">
<path d="M5.72373 7.98174L9.86452 7.90946L9.98291 14.6919C8.60511 14.9963 7.54874 15.1567 6.388 15.1769C1.84694 15.2562 0.200511 12.6824 0.125757 8.39978C0.0454104 3.79675 2.21958 1.15645 6.64421 1.07922C7.20457 1.06944 8.26412 1.09091 9.58846 1.26807L9.66423 5.60889L8.70361 5.62566L8.13249 3.97592C7.5846 2.40587 6.95236 1.63428 5.96992 1.65143C4.27067 1.68109 3.40842 3.99651 3.48355 8.30106C3.55901 12.6238 3.95486 14.6588 6.17446 14.6201C6.47646 14.6148 6.83236 14.5686 7.17268 14.4644L7.08459 9.41755L5.72949 8.52031L5.72009 7.9818L5.72373 7.98174ZM10.1023 26.1188C10.1498 28.8405 8.31769 30.4339 5.03561 30.4912C4.13686 30.5069 2.81361 30.3917 1.56926 30.2096L1.4764 24.8899L2.43702 24.8731L2.85925 26.125C3.80862 29.0094 4.46579 29.9589 5.60834 29.9389C6.8091 29.918 7.64933 28.844 7.62488 27.4432C7.605 26.3043 7.05251 25.5131 5.88091 24.9113L3.86078 23.8655C2.3037 23.0738 1.4408 21.8075 1.41356 20.2466C1.37234 17.885 3.28698 16.4322 6.47081 16.3766C7.19127 16.364 8.03289 16.4112 9.37503 16.5661L9.4508 20.9071L8.49019 20.9239L7.9227 19.2739C7.34981 17.5224 6.76007 16.892 5.70122 16.9105C4.51865 16.9311 3.83331 17.7038 3.85249 18.8027C3.86957 19.7815 4.42398 20.4742 5.49332 21.0561L7.53266 22.1599C9.2487 23.0908 10.0716 24.3576 10.1023 26.1188ZM19.0027 29.1082L19.4135 29.7015L19.4188 30.0036L16.3586 30.057L16.1964 28.8987C15.8917 29.7849 15.0603 30.3199 13.9795 30.3388C12.3785 30.3667 11.3604 29.3835 11.3318 27.7425C11.3038 26.1415 12.1841 25.067 14.927 23.938L16.0979 23.459L16.0718 21.9598C16.0487 20.639 15.7991 20.1047 15.0605 20.1176C14.46 20.1281 14.1273 20.4542 13.5706 21.9234L12.9405 23.5687L12.0417 23.5844L11.9848 20.3205C13.1574 19.9397 14.3358 19.6789 15.3546 19.6611C17.6143 19.6217 18.8556 20.6811 18.8899 22.6423L19.0027 29.1082ZM19.82 9.61743C19.8793 13.0196 18.0936 14.9726 15.7502 15.0135C13.4106 15.0543 11.5578 13.1648 11.4984 9.76268C11.439 6.36054 13.2248 4.40751 15.5681 4.3666C17.9077 4.32577 19.7606 6.21528 19.82 9.61743ZM16.1716 27.476L16.1112 24.0157L15.7356 24.1824C14.5614 24.6832 14.1401 25.7716 14.1676 27.3508C14.1883 28.5335 14.4802 29.2053 15.1389 29.1938C15.7974 29.1823 16.1901 28.5348 16.1716 27.476ZM16.88 9.66875C16.8129 5.82635 16.4749 4.81307 15.5762 4.82876C14.6775 4.84444 14.375 5.8689 14.4421 9.7113C14.5091 13.5537 14.8472 14.567 15.7459 14.5513C16.6446 14.5356 16.947 13.5111 16.88 9.66875ZM27.2385 27.3811L27.602 27.5568C26.9937 29.4091 26.1872 30.122 24.6044 30.1496C22.0246 30.1946 20.5498 28.2805 20.4908 24.8965C20.4318 21.5161 22.0789 19.5437 24.8189 19.4959C25.5575 19.483 26.542 19.5859 27.3885 19.9097L27.4479 23.3118L26.509 23.3282L26.1083 22.054C25.5765 20.3635 25.2923 19.928 24.7901 19.9368C23.9896 19.9508 23.3674 21.0026 23.4366 24.9651C23.4921 28.1453 23.9925 29.2977 25.2115 29.2764C26.0303 29.2657 26.7199 28.7332 27.2385 27.3811ZM24.7919 14.6154L21.1896 14.6783L21.1844 14.38L21.5741 13.7726L21.3792 2.60547L20.9685 2.01208L20.9633 1.71005L24.161 1.41398L24.3758 13.72L24.7866 14.3134L24.7919 14.6154ZM29.7192 14.7697C27.5178 14.8081 26.1619 12.8298 26.1022 9.40948C26.0428 6.00733 27.3901 4.16395 29.5115 4.12692C30.5922 4.10806 31.1999 4.51607 31.4729 5.35197L31.4219 2.43017L31.0112 1.83679L31.0059 1.53476L34.2038 1.23869L34.4186 13.5447L34.8294 14.1381L34.8346 14.4364L31.9927 14.486L31.7479 12.9689C31.4541 14.2771 30.8618 14.7497 29.7192 14.7697ZM36.9887 28.7942L37.3995 29.3876L37.4047 29.6896L33.8025 29.7525L33.7972 29.4505L34.1869 28.8431L34.0612 21.6385C34.0462 20.7798 33.7788 20.264 33.1566 20.2748C32.4143 20.2878 31.8866 20.9195 31.9079 22.1384L32.0256 28.8808L32.4364 29.4742L32.4416 29.7763L28.8393 29.8391L28.834 29.5371L29.2238 28.9297L29.0289 17.7627L28.6181 17.1692L28.6129 16.8709L31.8108 16.5748L31.8831 20.7157C32.2283 19.8506 33.0387 19.356 34.1993 19.3357C35.8405 19.3071 36.8374 20.3308 36.8726 22.3502L36.9851 28.7943L36.9887 28.7942ZM29.0466 9.3945C29.1094 12.9967 29.4489 14.0901 30.3295 14.0747C31.4283 14.0555 31.6009 12.4729 31.5457 9.31091C31.4923 6.25075 31.2474 4.73359 30.1848 4.75213C29.2861 4.76782 28.9848 5.85414 29.0466 9.3945ZM49.2097 13.2865L49.6205 13.8799L49.6257 14.1783L46.0235 14.2411L46.0183 13.9428L46.4079 13.3354L46.2784 5.91258C46.2658 5.19205 46.0181 4.75599 45.4577 4.76577C44.759 4.77796 44.2095 5.41001 44.2304 6.60706L44.3484 13.3714L44.7592 13.9648L44.7644 14.2631L41.1622 14.326L41.157 14.0277L41.5467 13.4203L41.4171 5.99743C41.4045 5.2769 41.1568 4.84084 40.5964 4.85062C39.8978 4.86282 39.3482 5.49487 39.3691 6.69191L39.4872 13.4563L39.898 14.0496L39.9032 14.348L36.3009 14.4108L36.2957 14.1125L36.6854 13.5052L36.5433 5.36176L36.1347 4.88853L36.1295 4.59005L39.0054 4.19776L39.2456 4.19356L39.345 5.31285C39.6681 4.42644 40.5003 3.93141 41.6428 3.91147C42.8618 3.89019 43.6727 4.47659 44.0519 5.55102C44.3321 4.50519 45.2633 3.84827 46.464 3.82731C48.0433 3.79975 49.062 4.82305 49.0972 6.84244L49.2097 13.2865ZM45.7005 26.6002C45.7309 28.3395 44.6352 29.8 41.9354 29.8471C41.2368 29.8593 40.293 29.7957 38.8293 29.5592L38.7644 25.8405L39.583 25.8262L39.8554 26.6222C40.5314 28.6523 41.1632 29.402 42.1457 29.3848C43.0663 29.3688 43.6551 28.6961 43.6373 27.6772C43.6226 26.8366 43.1905 26.2655 42.184 25.7407L40.4468 24.8502C39.3375 24.269 38.7208 23.3406 38.7005 22.18C38.6687 20.3607 40.0722 19.2332 42.43 19.1921C43.1105 19.1802 43.9927 19.2631 44.9569 19.4465L45.0079 22.3683L44.1891 22.3826L43.7485 21.3275C43.2458 20.0551 42.78 19.6447 42.0195 19.658C41.2009 19.6723 40.7289 20.1609 40.7429 20.9615C40.7548 21.6419 41.1631 22.0933 42.1516 22.6365L43.8677 23.5676C45.0363 24.2096 45.675 25.1376 45.7005 26.6002ZM58.4156 13.1259L58.8264 13.7192L58.8316 14.0176L55.7715 14.071L55.6128 12.9128C55.3081 13.7989 54.4767 14.3338 53.3959 14.3527C51.7949 14.3806 50.7768 13.3974 50.7481 11.7565C50.7202 10.1554 51.6005 9.08091 54.3434 7.95198L55.5143 7.47294L55.4882 5.97386C55.4651 4.65296 55.2155 4.11864 54.4769 4.13153C53.8764 4.14202 53.5437 4.46816 52.987 5.93744L52.357 7.58993L51.4546 7.60568L51.3977 4.34545C52.5739 3.96461 53.7487 3.70386 54.7676 3.68607C57.0272 3.64663 58.2687 4.70602 58.3029 6.66725L58.4156 13.1259ZM55.5845 11.4937L55.5241 8.03335L55.1485 8.20008C53.9779 8.70087 53.5565 9.78928 53.5841 11.3684C53.6047 12.551 53.8967 13.2266 54.5554 13.2151C55.2139 13.2036 55.6031 12.5562 55.5845 11.4937ZM68.7089 13.5467L68.7141 13.8451L65.1119 13.908L65.1067 13.6096L65.4965 13.0023L65.3708 5.79766C65.3557 4.93536 65.0883 4.42311 64.466 4.43398C63.7237 4.44693 63.1961 5.0786 63.2174 6.29754L63.3351 13.04L63.7458 13.6334L63.751 13.9317L60.1487 13.9946L60.1435 13.6962L60.5333 13.0889L60.3911 4.94549L59.9825 4.47227L59.9773 4.17379L62.8531 3.78149L63.0933 3.7773L63.1929 4.89659C63.516 4.01017 64.33 3.51546 65.5088 3.49489C67.1499 3.46624 68.1469 4.48992 68.1821 6.50931L68.2946 12.9534L68.7089 13.5467Z" fill="white"/>
</svg>
