<svg width="44" height="65" viewBox="0 0 44 65" fill="none" xmlns="http://www.w3.org/2000/svg">
<g clip-path="url(#clip0_1_1864)">
<path d="M24.268 11.7004C33.0301 11.5475 37.4116 11.4707 40.1811 14.1453C42.9507 16.8198 43.0269 21.2013 43.1799 29.9634L43.2756 35.4487C43.4286 44.2108 43.5053 48.5923 40.8307 51.3618C38.1562 54.1315 33.7747 54.2077 25.0126 54.3606L19.5274 54.4563C10.7652 54.6093 6.38377 54.686 3.61418 52.0114C0.844595 49.3369 0.768385 44.9554 0.615442 36.1933L0.519697 30.7081C0.366754 21.946 0.290005 17.5645 2.96456 14.7949C5.63913 12.0253 10.0205 11.9491 18.7827 11.7962L24.268 11.7004ZM27.7909 20.7834L27.9416 29.4223C27.9894 32.1566 28.1796 32.1986 26.2347 33.4152C25.8146 33.6781 25.4319 33.9928 25.0872 34.3604C24.7425 34.7281 24.4486 35.131 24.2054 35.5705C23.9647 36.0099 23.7794 36.4846 23.651 36.9928C23.5224 37.4983 23.4633 38.0245 23.4728 38.5657C23.4822 39.1068 23.5597 39.6279 23.7057 40.1284C23.8517 40.6266 24.0535 41.0942 24.3094 41.5278C24.5679 41.9613 24.8755 42.3562 25.233 42.712C25.5903 43.0674 25.9835 43.371 26.4128 43.6192C26.8424 43.8703 27.303 44.0609 27.7911 44.1939C28.2822 44.3267 28.7914 44.3889 29.3168 44.3797C29.8416 44.3706 30.3496 44.2905 30.8352 44.1407C31.3236 43.9907 31.7749 43.7841 32.1953 43.5183C32.6133 43.2552 32.994 42.9384 33.3387 42.5705C33.6835 42.2026 33.9744 41.7972 34.2148 41.3549C34.4554 40.9126 34.6379 40.4383 34.7665 39.9354C34.895 39.43 34.9541 38.9067 34.9447 38.3654C34.9352 37.8242 34.8578 37.3006 34.7118 36.7997C34.5656 36.2963 34.3667 35.8284 34.1108 35.3976C33.8552 34.9668 33.5502 34.5744 33.193 34.2189C32.8355 33.8634 32.4444 33.5614 32.0172 33.3143C30.0395 32.1699 30.2066 32.0897 30.1594 29.3836L30.0086 20.7447L29.5226 20.7531L29.6097 25.7441C29.6099 25.7552 29.6091 25.7667 29.6076 25.7774L29.6105 25.9427L29.2285 25.9493L29.1379 20.7599L28.6615 20.7682L28.7521 25.9576L28.3675 25.9644L28.2769 20.7749L27.7909 20.7834ZM15.4414 32.7813C14.9161 32.7904 14.4105 32.8704 13.9246 33.0203C13.4413 33.1702 12.9877 33.3767 12.5672 33.6427C12.1467 33.9056 11.7643 34.2228 11.4197 34.5907C11.0748 34.9584 10.7811 35.364 10.538 35.8062C10.2975 36.2484 10.1121 36.7219 9.98357 37.2301C9.85501 37.7356 9.79601 38.2629 9.80546 38.8043C9.81495 39.3455 9.89225 39.8664 10.0383 40.367C10.1844 40.8652 10.3862 41.3327 10.642 41.7664C10.9004 42.1996 11.2083 42.5936 11.5656 42.9491C11.9228 43.3046 12.3161 43.6081 12.7455 43.8564C13.175 44.1075 13.6356 44.298 14.1238 44.431C14.6146 44.5638 15.1227 44.6261 15.648 44.6171C16.3344 44.6051 16.9955 44.4716 17.6303 44.2156C18.2648 43.9597 18.8367 43.5987 19.3436 43.1328L18.134 41.1619C17.8155 41.5294 17.4346 41.813 16.9946 42.014C16.5543 42.2147 16.0939 42.3214 15.6081 42.3299C15.1172 42.3383 14.6592 42.2506 14.2284 42.0678C13.7948 41.882 13.418 41.6303 13.0926 41.3041C12.7674 40.9805 12.5069 40.6009 12.3143 40.1661C12.1194 39.7318 12.0181 39.2659 12.0093 38.7658C12.0006 38.2652 12.0854 37.7924 12.2651 37.3457C12.4422 36.8992 12.6894 36.5092 13.0032 36.1771C13.317 35.8452 13.6846 35.5792 14.1116 35.3785C14.5357 35.1809 14.9906 35.0784 15.4814 35.0699C15.967 35.0614 16.4311 35.1506 16.878 35.3358C17.3249 35.5212 17.7154 35.7927 18.0465 36.1488L19.1866 34.1369C18.6636 33.6836 18.0796 33.34 17.4364 33.109C16.7932 32.8807 16.1278 32.7693 15.4414 32.7813ZM19.8436 32.8656L20.0431 44.293L22.2609 44.2543L22.0614 32.8269L19.8436 32.8656ZM29.1501 34.8313C29.6356 34.8229 30.0937 34.9107 30.5272 35.0934C30.9609 35.279 31.3404 35.5307 31.6629 35.8514C31.9853 36.1724 32.2431 36.5549 32.4357 36.995C32.6306 37.435 32.7321 37.9037 32.7408 38.4039C32.7496 38.9045 32.6646 39.3743 32.485 39.8155C32.3078 40.2565 32.0633 40.6438 31.7524 40.9784C31.4412 41.3159 31.0709 41.5819 30.644 41.7827C30.2173 41.9803 29.7623 42.0827 29.2768 42.0913L29.2741 42.0899C29.7597 42.0815 30.217 41.9805 30.644 41.7827C31.071 41.5819 31.4399 41.3159 31.7509 40.9785C32.0619 40.6439 32.3078 40.2565 32.485 39.8155C32.6647 39.3743 32.7469 38.9045 32.7381 38.404C32.7293 37.9037 32.6308 37.435 32.4357 36.995C32.2431 36.5549 31.9838 36.1724 31.6615 35.8514C31.3389 35.5307 30.9609 35.279 30.5272 35.0934C30.0936 34.9105 29.6332 34.8228 29.1474 34.8313L29.1501 34.8313ZM29.146 35.305C30.8385 35.2755 32.2354 36.6656 32.2658 38.4094C32.2743 38.8955 32.1759 39.3594 31.9924 39.7741C31.9113 39.968 31.8053 40.1469 31.6866 40.3142L31.6852 40.3156C31.5585 40.4956 31.4136 40.662 31.2534 40.8108C31.2459 40.8177 31.2392 40.8249 31.2316 40.8319C31.2103 40.8515 31.1866 40.8698 31.1645 40.8887C30.9283 41.0917 30.662 41.2588 30.373 41.3817C30.2949 41.4155 30.2169 41.4458 30.1384 41.472C30.1107 41.4803 30.0815 41.4888 30.0528 41.4971C30.0249 41.5053 29.998 41.5133 29.9699 41.5208L29.9615 41.5236C29.9553 41.5254 29.9471 41.5267 29.9408 41.5282C29.7212 41.584 29.492 41.6152 29.2562 41.6193C27.5638 41.6488 26.167 40.2599 26.1363 38.5163C26.1058 36.7725 27.4534 35.3346 29.146 35.305ZM29.1587 35.9591C27.8166 35.9825 26.7482 37.1225 26.7723 38.5052C26.784 39.1669 27.0441 39.7642 27.459 40.2046C27.3038 39.8678 27.2132 39.492 27.2062 39.095C27.1805 37.6031 28.3342 36.3735 29.7823 36.3482C30.1123 36.3426 30.4298 36.3999 30.7228 36.5096C30.2953 36.1558 29.7495 35.9488 29.1587 35.9591ZM10.1019 21.0921L10.3014 32.5195L13.712 32.46C14.2351 32.4508 14.7361 32.374 15.2137 32.2296C15.6937 32.0853 16.143 31.8871 16.559 31.6296C16.9752 31.372 17.3541 31.0653 17.6904 30.7112C18.0264 30.3573 18.3129 29.9686 18.5535 29.5404C18.7941 29.1145 18.9754 28.656 19.1017 28.1667C19.2281 27.6803 19.2872 27.1729 19.278 26.6453C19.2689 26.1205 19.1922 25.6156 19.0488 25.131C18.9055 24.6495 18.7083 24.1989 18.4529 23.7787C18.1974 23.3616 17.898 22.9796 17.5496 22.6402C17.2011 22.2981 16.8118 22.006 16.3868 21.7631C15.9621 21.5204 15.5061 21.3352 15.0213 21.2077C14.539 21.0828 14.0356 21.0235 13.5125 21.0326L10.1019 21.0921ZM19.6644 20.9252L19.8638 32.3526L27.2003 32.2245L27.1603 29.9361L22.0417 30.0254L21.8821 20.8865L19.6644 20.9252ZM13.5525 23.3198C14.0216 23.3116 14.4664 23.3937 14.882 23.5661C15.2974 23.7411 15.6626 23.9801 15.9752 24.2845C16.2907 24.5893 16.5381 24.949 16.7232 25.3592C16.9056 25.7694 17.002 26.2145 17.0104 26.6849C17.0186 27.1582 16.9375 27.6064 16.7698 28.0255C16.5991 28.4447 16.3646 28.8142 16.0597 29.1296C15.7582 29.4474 15.4011 29.6978 14.9922 29.8818C14.5829 30.0657 14.1412 30.1634 13.6721 30.1715L12.5431 30.1912L12.4235 23.3395L13.5525 23.3198Z" fill="white"/>
</g>
<defs>
<clipPath id="clip0_1_1864">
<rect width="42.6667" height="64" fill="white" transform="translate(-0.00332642 0.744581) rotate(-1)"/>
</clipPath>
</defs>
</svg>
