<svg width="109" height="31" viewBox="0 0 109 31" fill="none" xmlns="http://www.w3.org/2000/svg">
<path d="M47.7857 13.6858L47.833 16.3993L46.7746 16.4177C46.1004 19.7021 43.6694 21.5926 39.7628 21.6608C35.3942 21.737 32.3977 18.8055 32.3255 14.6679C32.2726 10.5301 35.0674 7.42047 39.7052 7.33951C43.6504 7.27065 46.3975 9.14769 46.6386 11.9347L42.2894 12.0106C42.0622 11.1291 41.1277 10.5294 39.7807 10.5529C37.5868 10.5912 36.4597 12.1895 36.4993 14.4603C36.5386 16.7119 37.8558 18.2867 39.8765 18.2515C41.339 18.2259 42.2916 17.651 42.6563 16.4896L40.4431 16.5283L40.3958 13.8148L47.7857 13.6858ZM52.918 21.2771C50.2431 21.3238 48.5511 19.2357 48.5 16.3107C48.4486 13.3663 50.1243 11.2194 52.7609 11.1734C54.2427 11.1475 55.2944 11.8414 55.754 12.8151L55.7292 11.3911L59.5204 11.325L59.6873 20.8894L55.8961 20.9556L55.8713 19.5316C55.4651 20.5204 54.3614 21.2519 52.918 21.2771ZM54.212 18.2129C55.3475 18.1931 56.0058 17.3153 55.986 16.18C55.9659 15.0253 55.2773 14.1711 54.1418 14.1909C53.0642 14.2097 52.3862 15.0685 52.4067 16.2425C52.4272 17.4163 53.1344 18.2317 54.212 18.2129ZM63.3881 10.9302C62.1757 10.9513 61.274 10.0238 61.2545 8.90756C61.2347 7.77223 62.1038 6.83304 63.3162 6.81188C64.5094 6.79105 65.4301 7.699 65.4499 8.83433C65.4694 9.9506 64.5813 10.9093 63.3881 10.9302ZM61.6749 20.8547L61.5079 11.2903L65.2798 11.2244L65.4467 20.7888L61.6749 20.8547ZM67.44 20.7541L67.273 11.1896L71.0449 11.1238L71.0694 12.5286C71.5507 11.4229 72.6182 10.8268 74.1386 10.8003C76.4863 10.7593 77.6642 12.067 77.7109 14.7419L77.8126 20.573L73.9638 20.6402L73.8789 15.7714C73.8574 14.5398 73.4432 13.9695 72.5194 13.9856C71.5763 14.0021 71.106 14.6262 71.1282 15.8963L71.2118 20.6882L67.44 20.7541ZM83.9664 20.7929C80.8488 20.8473 79.0172 19.5896 78.9843 17.7035L82.7371 17.638C82.7465 18.1768 83.2148 18.5345 83.9461 18.5218C84.4464 18.513 84.8077 18.2564 84.8003 17.833C84.795 17.5252 84.5987 17.3168 84.1349 17.2094L81.855 16.7294C80.1163 16.3747 79.1168 15.372 79.091 13.8901C79.056 11.8886 80.7472 10.6079 83.5184 10.5596C86.636 10.5052 88.2717 11.5739 88.3049 13.4791L84.5906 13.5439C84.5809 12.9858 84.1914 12.723 83.5563 12.7341C83.0559 12.7428 82.7327 12.9795 82.7388 13.3259C82.7452 13.6916 83.0187 13.9179 83.5598 14.0431L85.8215 14.5811C87.5032 14.9753 88.4991 15.7857 88.5253 17.2868C88.5619 19.3844 86.7953 20.7435 83.9664 20.7929ZM95.4988 17.473C95.9029 17.466 96.1525 17.4231 96.4597 17.3793L96.5097 20.2466C95.9726 20.3523 95.2238 20.4617 94.1652 20.4802C92.414 20.5107 90.4619 20.0634 90.4068 16.9075L90.3504 13.6744L88.9456 13.6989L88.8952 10.8122L90.3 10.7877L90.2513 7.99716L94.0233 7.93132L94.072 10.7219L96.2465 10.6839L96.2969 13.5706L94.1224 13.6085L94.165 16.0525C94.1862 17.2649 94.8253 17.4848 95.4988 17.473ZM104.057 10.5476L107.829 10.4817L107.985 19.4111C108.014 21.0469 107.419 22.2701 106.604 22.9773C105.693 23.744 104.66 24.0892 102.851 24.1208C101.003 24.153 99.8815 23.8646 99.0231 23.2058C98.3005 22.6217 97.7257 21.6692 97.7086 20.6877L101.48 20.6219C101.529 21.2179 101.94 21.5956 102.806 21.5805C103.749 21.5641 104.241 21.0357 104.223 20.0159L104.192 18.2645C103.71 19.2932 102.681 19.9273 101.238 19.9525C98.6975 19.9968 97.669 18.4169 97.6256 15.9344L97.5336 10.6614L101.305 10.5956L101.39 15.4259C101.408 16.4844 101.765 17.0941 102.728 17.0773C103.69 17.0605 104.159 16.3786 104.136 15.07L104.057 10.5476Z" fill="white"/>
<path d="M22.6708 10.5116C15.7746 11.9496 12.7614 16.7291 12.0216 18.1058C11.9571 18.23 11.8977 18.3541 11.8333 18.4834C11.8333 18.4834 15.9942 15.4218 18.5439 14.9313C18.5439 14.9313 19.5002 18.8982 20.2168 19.7214C20.2168 19.7214 13.7804 19.89 9.37655 22.2432C9.37655 22.2432 9.81181 16.0475 7.42574 11.5211C9.48601 11.48 15.7496 11.1092 19.5226 8.14672L20.5572 9.84611L25.1579 1.43984L15.5796 1.65824L16.9467 3.91071C11.9515 6.74591 6.10204 6.76608 2.45547 6.39389C1.35085 6.25941 0.178707 6.07475 -1.06132 5.81959C-1.06132 5.81959 7.60411 15.5733 4.21559 29.9826C4.21559 29.9826 14.4796 21.4671 28.5779 25.2559C28.5779 25.2559 23.3006 17.8064 22.6708 10.5116Z" fill="white"/>
</svg>
