<svg width="24" height="24" viewBox="0 0 24 24" fill="none" xmlns="http://www.w3.org/2000/svg">
<path d="M20.4001 12C20.4001 12.191 20.3243 12.3741 20.1892 12.5091C20.0542 12.6442 19.8711 12.72 19.6801 12.72H3.84012C3.64916 12.72 3.46602 12.6442 3.331 12.5091C3.19598 12.3741 3.12012 12.191 3.12012 12C3.12012 11.8091 3.19598 11.6259 3.331 11.4909C3.46602 11.3559 3.64916 11.28 3.84012 11.28H19.6801C19.8711 11.28 20.0542 11.3559 20.1892 11.4909C20.3243 11.6259 20.4001 11.8091 20.4001 12ZM3.84012 6.96002H19.6801C19.8711 6.96002 20.0542 6.88416 20.1892 6.74914C20.3243 6.61411 20.4001 6.43097 20.4001 6.24002C20.4001 6.04907 20.3243 5.86593 20.1892 5.7309C20.0542 5.59588 19.8711 5.52002 19.6801 5.52002H3.84012C3.64916 5.52002 3.46602 5.59588 3.331 5.7309C3.19598 5.86593 3.12012 6.04907 3.12012 6.24002C3.12012 6.43097 3.19598 6.61411 3.331 6.74914C3.46602 6.88416 3.64916 6.96002 3.84012 6.96002ZM19.6801 17.04H3.84012C3.64916 17.04 3.46602 17.1159 3.331 17.2509C3.19598 17.3859 3.12012 17.5691 3.12012 17.76C3.12012 17.951 3.19598 18.1341 3.331 18.2691C3.46602 18.4042 3.64916 18.48 3.84012 18.48H19.6801C19.8711 18.48 20.0542 18.4042 20.1892 18.2691C20.3243 18.1341 20.4001 17.951 20.4001 17.76C20.4001 17.5691 20.3243 17.3859 20.1892 17.2509C20.0542 17.1159 19.8711 17.04 19.6801 17.04Z" fill="#FAFAFA"/>
</svg>
