<svg width="32" height="33" viewBox="0 0 32 33" fill="none" xmlns="http://www.w3.org/2000/svg">
<g clip-path="url(#clip0_1_3107)">
<path d="M30.7961 1.79122C30.018 1.0501 28.9846 0.636719 27.9101 0.636719C26.8356 0.636719 25.8022 1.0501 25.0242 1.79122L10.0851 16.7209C9.6204 16.6314 9.1481 16.5868 8.67483 16.5876C7.71267 16.5848 6.75951 16.773 5.87058 17.1411C4.98164 17.5093 4.17457 18.0501 3.4961 18.7324C0.936725 21.2971 0.251561 29.4218 0.136922 31.0241L0.035614 32.5516L1.56191 32.4451C3.16151 32.3357 11.2929 31.6546 13.8549 29.0912C14.7024 28.2413 15.328 27.1961 15.6767 26.0475C16.0253 24.899 16.0864 23.6824 15.8544 22.5048L30.7961 7.56315C31.5594 6.79667 31.988 5.75896 31.988 4.67719C31.988 3.59542 31.5594 2.55771 30.7961 1.79122ZM11.97 27.2063C10.7303 28.4447 6.28208 29.2858 2.94024 29.6457C3.31748 26.1799 4.19725 21.8023 5.38097 20.6173C6.26907 19.8174 7.43029 19.3889 8.62509 19.42C9.81994 19.4513 10.9572 19.9399 11.8024 20.785C12.6475 21.6302 13.1361 22.7673 13.1672 23.9622C13.1984 25.157 12.7699 26.3182 11.97 27.2063ZM28.9139 5.67827L14.756 19.8375C14.23 19.041 13.5501 18.3575 12.7564 17.8273L26.909 3.67343C27.1783 3.41626 27.5364 3.27277 27.9087 3.27277C28.2811 3.27277 28.6392 3.41626 28.9085 3.67343C29.0407 3.80459 29.1458 3.96055 29.2177 4.13237C29.2895 4.3042 29.3267 4.48851 29.3272 4.67475C29.3277 4.86099 29.2914 5.04549 29.2205 5.2177C29.1496 5.3899 29.0454 5.54642 28.9139 5.67827Z" fill="white"/>
</g>
<defs>
<clipPath id="clip0_1_3107">
<rect width="32" height="32.9062" fill="white"/>
</clipPath>
</defs>
</svg>
