<svg width="32" height="33" viewBox="0 0 32 33" fill="none" xmlns="http://www.w3.org/2000/svg">
<g clip-path="url(#clip0_1_3090)">
<path d="M29.1708 15.9632C28.3661 15.1471 27.4206 14.483 26.38 14.0027C27.1456 13.3697 27.7518 12.5659 28.1498 11.6559C28.5478 10.7457 28.7266 9.75498 28.6715 8.76318C28.6166 7.7714 28.3294 6.8064 27.8333 5.94591C27.3371 5.08542 26.6458 4.35348 25.8149 3.80906C24.9841 3.26464 24.0371 2.92296 23.0501 2.81152C22.0631 2.70009 21.0636 2.82204 20.1324 3.16752C19.201 3.51302 18.3639 4.0724 17.6885 4.80061C17.0129 5.52883 16.5178 6.40552 16.2431 7.36007H15.7588C15.4841 6.40552 14.989 5.52883 14.3135 4.80061C13.638 4.0724 12.8009 3.51302 11.8695 3.16752C10.9383 2.82204 9.93895 2.70009 8.95188 2.81152C7.96485 2.92296 7.01779 3.26464 6.18699 3.80906C5.35618 4.35348 4.66485 5.08542 4.16868 5.94591C3.6725 6.8064 3.38537 7.7714 3.33039 8.76318C3.27541 9.75498 3.45413 10.7457 3.85215 11.6559C4.25017 12.5659 4.85637 13.3697 5.6219 14.0027C3.93955 14.7666 2.51355 16 1.51522 17.5548C0.516898 19.1096 -0.0112769 20.9195 -0.00584847 22.7672C-0.0058513 23.168 0.0732783 23.5648 0.227 23.935C0.380723 24.3051 0.606013 24.6412 0.889946 24.9241C1.17388 25.207 1.51087 25.4309 1.88158 25.5833C2.25229 25.7356 2.64942 25.8133 3.05021 25.8117H6.5099C6.41706 26.3294 6.37074 26.8542 6.37151 27.3801C6.37148 28.1836 6.68908 28.9546 7.25506 29.5248C7.82104 30.0951 8.58951 30.4185 9.39298 30.4246H22.6089C23.4144 30.4216 24.1859 30.0995 24.7543 29.5289C25.3228 28.9582 25.642 28.1856 25.642 27.3801C25.6427 26.8542 25.5965 26.3294 25.5036 25.8117H28.9633C29.7687 25.8087 30.5402 25.4866 31.1086 24.916C31.6771 24.3453 31.9963 23.5727 31.9963 22.7672C31.9981 21.5027 31.7494 20.2503 31.2644 19.0824C30.7795 17.9146 30.0679 16.8544 29.1708 15.9632ZM22.3438 5.05362C23.4142 5.05362 24.4409 5.47887 25.1978 6.23583C25.9548 6.99278 26.38 8.01942 26.38 9.08992C26.38 10.1605 25.9548 11.187 25.1978 11.944C24.4409 12.701 23.4142 13.1262 22.3438 13.1262C22.2411 11.9899 21.8333 10.9023 21.1633 9.97865C20.4934 9.05501 19.5864 8.32956 18.5381 7.87902C18.7965 7.06878 19.3029 6.36017 19.9857 5.85321C20.6686 5.34625 21.4933 5.06656 22.3438 5.05362ZM20.0372 13.7028C20.0372 14.5012 19.8006 15.2815 19.3571 15.9453C18.9135 16.6091 18.2831 17.1264 17.5456 17.4319C16.808 17.7374 15.9965 17.8174 15.2135 17.6616C14.4306 17.5059 13.7114 17.1214 13.1468 16.557C12.5824 15.9924 12.198 15.2733 12.0422 14.4903C11.8865 13.7073 11.9664 12.8958 12.2719 12.1582C12.5774 11.4207 13.0947 10.7902 13.7585 10.3467C14.4223 9.90324 15.2027 9.6665 16.001 9.6665C17.0715 9.6665 18.0981 10.0918 18.8551 10.8487C19.612 11.6057 20.0372 12.6324 20.0372 13.7028ZM5.6219 9.08992C5.61121 8.12088 5.95052 7.18052 6.5775 6.44157C7.20447 5.70262 8.07703 5.21471 9.03487 5.06746C9.9927 4.9202 10.9716 5.1235 11.7915 5.64C12.6115 6.1565 13.2176 6.95153 13.4985 7.87902C12.4502 8.32956 11.5431 9.05501 10.8732 9.97865C10.2033 10.9023 9.79544 11.9899 9.69279 13.1262C9.15981 13.1308 8.63126 13.0298 8.13756 12.829C7.64384 12.6281 7.19479 12.3315 6.81632 11.9563C6.43784 11.5811 6.13743 11.1346 5.93243 10.6425C5.72742 10.1506 5.62189 9.6229 5.6219 9.08992ZM3.05021 23.5053C2.85647 23.5023 2.67169 23.4231 2.53576 23.2851C2.39983 23.147 2.32365 22.961 2.32367 22.7672C2.32215 21.8036 2.51083 20.8491 2.87889 19.9586C3.24695 19.0681 3.78715 18.2589 4.46852 17.5775C5.1499 16.8962 5.95906 16.356 6.84961 15.9879C7.74016 15.6199 8.6946 15.4311 9.65824 15.4327H9.9119C10.2669 16.6784 10.9954 17.7854 11.9992 18.6041C9.85102 19.5989 8.13773 21.3408 7.17877 23.5053H3.05021ZM22.6551 28.1182H9.39298C9.1992 28.1152 9.01444 28.0361 8.87851 27.898C8.74258 27.7599 8.66641 27.5739 8.66643 27.3801C8.66643 25.4349 9.43914 23.5693 10.8147 22.1938C12.1902 20.8183 14.0557 20.0456 16.001 20.0456C17.9462 20.0456 19.8118 20.8183 21.1873 22.1938C22.5628 23.5693 23.3355 25.4349 23.3355 27.3801C23.3355 27.5739 23.2594 27.7599 23.1235 27.898C22.9874 28.0361 22.8027 28.1152 22.6089 28.1182H22.6551ZM28.9979 23.5053H24.8232C23.8619 21.3451 22.1489 19.6076 20.0027 18.6156C21.0084 17.7939 21.7372 16.6826 22.09 15.4327H22.3438C24.2881 15.4357 26.1518 16.2094 27.5267 17.5843C28.9015 18.9591 29.6752 20.8229 29.6783 22.7672C29.6783 22.961 29.6021 23.147 29.4662 23.2851C29.3302 23.4231 29.1455 23.5023 28.9517 23.5053H28.9979Z" fill="white"/>
</g>
<defs>
<clipPath id="clip0_1_3090">
<rect width="32" height="32.9062" fill="white"/>
</clipPath>
</defs>
</svg>
