<svg width="24" height="24" viewBox="0 0 24 24" fill="none" xmlns="http://www.w3.org/2000/svg">
<path d="M3.6001 11.28H8.713C8.87882 11.2802 9.03951 11.3376 9.16791 11.4425C9.2963 11.5475 9.38453 11.6936 9.4177 11.856C9.5499 12.5071 9.90307 13.0924 10.4174 13.5128C10.9319 13.9333 11.5758 14.1629 12.2401 14.1629C12.9044 14.1629 13.5483 13.9333 14.0628 13.5128C14.5771 13.0924 14.9303 12.5071 15.0625 11.856C15.0956 11.6936 15.1839 11.5475 15.3123 11.4425C15.4406 11.3376 15.6013 11.2802 15.7672 11.28H20.8801M3.6001 8.40002H20.8801M5.0401 5.52002H19.4401C20.2354 5.52002 20.8801 6.16473 20.8801 6.96002V17.04C20.8801 17.8353 20.2354 18.48 19.4401 18.48H5.0401C4.2448 18.48 3.6001 17.8353 3.6001 17.04V6.96002C3.6001 6.16473 4.2448 5.52002 5.0401 5.52002Z" stroke="#FAFAFA" stroke-width="1.44" stroke-linecap="round" stroke-linejoin="round"/>
</svg>
