<svg width="24" height="24" viewBox="0 0 24 24" fill="none" xmlns="http://www.w3.org/2000/svg">
<path d="M20.0643 14.7485C19.9617 14.6838 19.8444 14.6459 19.7231 14.6387C19.602 14.6315 19.481 14.6551 19.3714 14.7071C19.097 14.8369 18.7943 14.8952 18.4914 14.8765C18.1885 14.8579 17.8952 14.763 17.6388 14.6006C17.3824 14.4383 17.1712 14.2136 17.0249 13.9478C16.8786 13.6819 16.8018 13.3833 16.8018 13.0799C16.8018 12.7764 16.8786 12.4779 17.0249 12.212C17.1712 11.9461 17.3824 11.7215 17.6388 11.5592C17.8952 11.3968 18.1885 11.3019 18.4914 11.2832C18.7943 11.2646 19.097 11.3229 19.3714 11.4527C19.4811 11.5048 19.6023 11.5282 19.7235 11.5209C19.8449 11.5136 19.9623 11.4756 20.065 11.4107C20.1676 11.3457 20.2522 11.2559 20.3108 11.1494C20.3694 11.0431 20.4001 10.9234 20.4 10.802V6.95988C20.4 6.57797 20.2484 6.2117 19.9783 5.94164C19.7083 5.6716 19.342 5.51988 18.96 5.51988H15.7003C15.7137 5.40036 15.7202 5.28016 15.72 5.15988C15.7194 4.71738 15.6284 4.27966 15.4526 3.87357C15.2768 3.46748 15.0199 3.10158 14.6976 2.79829C14.2515 2.37926 13.6958 2.09517 13.0948 1.97894C12.4939 1.86271 11.8724 1.91907 11.3021 2.14151C10.7319 2.36395 10.2363 2.74338 9.87277 3.23583C9.5093 3.72828 9.29272 4.31363 9.24816 4.92408C9.23433 5.12266 9.23854 5.32207 9.26076 5.51988H6.00006C5.61815 5.51988 5.25187 5.6716 4.98183 5.94164C4.71178 6.2117 4.56006 6.57797 4.56006 6.95988V9.85968C4.44053 9.84628 4.32034 9.83968 4.20006 9.83988C3.75756 9.8406 3.31986 9.93164 2.91378 10.1074C2.5077 10.2832 2.14179 10.5401 1.83846 10.8623C1.53295 11.185 1.29771 11.5676 1.14761 11.9859C0.99749 12.4041 0.935777 12.8489 0.966357 13.2922C1.01796 14.0729 1.34965 14.8087 1.90045 15.3643C2.45124 15.9199 3.1841 16.258 3.96426 16.3162C4.16282 16.3305 4.36228 16.3263 4.56006 16.3037V19.1999C4.56006 19.5818 4.71178 19.9481 4.98183 20.2182C5.25187 20.4882 5.61815 20.6399 6.00006 20.6399H18.96C19.342 20.6399 19.7083 20.4882 19.9783 20.2182C20.2484 19.9481 20.4 19.5818 20.4 19.1999V15.3578C20.4001 15.2361 20.3694 15.1164 20.3107 15.0099C20.252 14.9033 20.1672 14.8135 20.0643 14.7485ZM18.96 19.1999H6.00006V15.3578C6.0001 15.2362 5.9694 15.1167 5.9108 15.0104C5.85221 14.9039 5.76763 14.814 5.66495 14.749C5.56228 14.6841 5.44483 14.6462 5.32356 14.6388C5.20228 14.6315 5.08112 14.655 4.97136 14.7071C4.69701 14.8369 4.39431 14.8952 4.09139 14.8765C3.78848 14.8579 3.49519 14.763 3.23878 14.6006C2.98239 14.4383 2.77121 14.2136 2.62487 13.9478C2.47854 13.6819 2.4018 13.3833 2.4018 13.0799C2.4018 12.7764 2.47854 12.4779 2.62487 12.212C2.77121 11.9461 2.98239 11.7215 3.23878 11.5592C3.49519 11.3968 3.78848 11.3019 4.09139 11.2832C4.39431 11.2646 4.69701 11.3229 4.97136 11.4527C5.08112 11.5048 5.20228 11.5282 5.32356 11.5209C5.44483 11.5136 5.56228 11.4756 5.66495 11.4107C5.76763 11.3457 5.85221 11.2559 5.9108 11.1494C5.9694 11.0431 6.0001 10.9234 6.00006 10.802V6.95988H10.2021C10.3237 6.95993 10.4432 6.92922 10.5497 6.87063C10.656 6.81203 10.7459 6.72746 10.8109 6.62478C10.8759 6.5221 10.9137 6.40465 10.9211 6.28338C10.9284 6.16211 10.905 6.04095 10.8528 5.93118C10.7231 5.65683 10.6649 5.35412 10.6835 5.05122C10.7021 4.7483 10.797 4.45501 10.9593 4.19861C11.1217 3.94221 11.3463 3.73102 11.6121 3.58469C11.878 3.43836 12.1766 3.36163 12.48 3.36163C12.7836 3.36163 13.0821 3.43836 13.348 3.58469C13.6139 3.73102 13.8384 3.94221 14.0008 4.19861C14.1632 4.45501 14.258 4.7483 14.2767 5.05122C14.2953 5.35412 14.237 5.65683 14.1072 5.93118C14.0552 6.04095 14.0317 6.16211 14.0391 6.28338C14.0464 6.40465 14.0843 6.5221 14.1493 6.62478C14.2142 6.72746 14.304 6.81203 14.4105 6.87063C14.517 6.92922 14.6365 6.95993 14.7579 6.95988H18.96V9.86058C18.7623 9.83792 18.5628 9.83371 18.3643 9.84798C17.5263 9.90732 16.7441 10.2898 16.1828 10.9148C15.6213 11.5398 15.3247 12.3584 15.3552 13.1979C15.3859 14.0374 15.7413 14.8322 16.3467 15.4147C16.9521 15.9971 17.76 16.3217 18.6 16.3199C18.7203 16.3201 18.8405 16.3135 18.96 16.3001V19.1999Z" fill="#FAFAFA"/>
</svg>
