<svg width="32" height="29" viewBox="0 0 32 29" fill="none" xmlns="http://www.w3.org/2000/svg">
<path d="M27.0566 5.26732H22.4222V2.37154C22.4222 1.0638 21.3474 0 20.0263 0H11.9659C10.6448 0 9.57 1.06393 9.57 2.37154V5.26732H4.93553C2.21408 5.26732 0 7.4814 0 10.2028V24.2973C0 26.5203 1.80849 28.3288 4.03151 28.3288H27.9606C30.1835 28.3288 31.9921 26.5203 31.9921 24.2973V10.2028C31.9921 7.4814 29.778 5.26732 27.0566 5.26732ZM11.4502 2.37154C11.4502 2.09143 11.6719 1.88022 11.9659 1.88022H20.0262C20.3202 1.88022 20.5419 2.09143 20.5419 2.37154V5.26732H11.4502V2.37154ZM30.1118 24.2973C30.1119 25.4835 29.1468 26.4486 27.9606 26.4486H4.03151C2.84524 26.4486 1.88023 25.4835 1.88023 24.2973V15.5158C2.17464 15.7006 2.49657 15.8504 2.84198 15.957C2.85998 15.9625 2.8781 15.9676 2.89634 15.9721L12.4741 18.3128V19.086C12.4741 20.3 13.4617 21.2877 14.6757 21.2877H17.3164C18.5304 21.2877 19.518 20.3 19.518 19.086V18.3128L29.0957 15.9721C29.114 15.9676 29.1322 15.9627 29.1501 15.957C29.4955 15.8504 29.8174 15.7006 30.1119 15.5158L30.1118 24.2973ZM14.3544 19.086V16.4334C14.3544 16.2562 14.4985 16.1121 14.6758 16.1121H17.3165C17.4936 16.1121 17.6378 16.2562 17.6378 16.4334V19.086C17.6378 19.2632 17.4936 19.4074 17.3165 19.4074H14.6758C14.4985 19.4073 14.3544 19.2632 14.3544 19.086ZM30.1119 12.0974C30.1119 13.0425 29.5134 13.8653 28.6196 14.1529L19.5166 16.3775C19.4868 15.1893 18.5117 14.2317 17.3165 14.2317H14.6758C13.4805 14.2317 12.5054 15.1894 12.4755 16.3775L3.37254 14.1529C2.47883 13.8653 1.88023 13.0425 1.88023 12.0974V10.2028C1.88023 8.51813 3.25082 7.14758 4.93553 7.14758H27.0566C28.7412 7.14758 30.1119 8.51813 30.1119 10.2028V12.0974Z" fill="white"/>
</svg>
