<svg width="25" height="22" viewBox="0 0 25 22" fill="none" xmlns="http://www.w3.org/2000/svg">
<path d="M24.1594 0.239328C24.0239 0.122268 23.8589 0.0444078 23.6824 0.0141478C23.5058 -0.0161122 23.3244 0.00237796 23.1575 0.067608L0.991643 8.74215C0.677503 8.86425 0.411543 9.08515 0.233813 9.37155C0.0560757 9.65795 -0.0238143 9.99435 0.00616667 10.33C0.0361487 10.6657 0.174383 10.9826 0.400043 11.233C0.625713 11.4834 0.926603 11.6536 1.25742 11.7182L7.0007 12.8458V19.2498C6.99957 19.5986 7.10323 19.9397 7.29825 20.2289C7.49326 20.5181 7.77065 20.7421 8.09445 20.8718C8.41775 21.0038 8.7733 21.0355 9.11486 20.9627C9.45643 20.89 9.76813 20.7161 10.0096 20.4638L12.779 17.5916L17.1725 21.4373C17.4895 21.7184 17.8984 21.874 18.3221 21.8748C18.5078 21.8746 18.6923 21.8455 18.869 21.7883C19.1576 21.6967 19.4173 21.5311 19.6221 21.3079C19.8268 21.0847 19.9695 20.8118 20.036 20.5163L24.4755 1.20293C24.5152 1.02875 24.5068 0.847038 24.4511 0.677288C24.3954 0.507538 24.2946 0.356148 24.1594 0.239328ZM17.4722 4.17683L7.67336 11.1943L2.24836 10.1301L17.4722 4.17683ZM8.7507 19.2498V14.0566L11.4621 16.4344L8.7507 19.2498ZM18.3243 20.1248L9.28113 12.1951L22.2968 2.86652L18.3243 20.1248Z" fill="#0A0A0A"/>
</svg>
