<svg width="32" height="33" viewBox="0 0 32 33" fill="none" xmlns="http://www.w3.org/2000/svg">
<g clip-path="url(#clip0_1_3124)">
<path d="M15.8908 17.702C11.1738 17.702 7.33472 13.8629 7.33472 9.1459C7.33472 4.42891 11.1738 0.589844 15.8908 0.589844C20.6078 0.589844 24.4468 4.42891 24.4468 9.1459C24.4468 13.8629 20.6078 17.702 15.8908 17.702ZM15.8908 2.82186C12.4088 2.82186 9.56674 5.66396 9.56674 9.1459C9.56674 12.6278 12.4088 15.4699 15.8908 15.4699C19.3727 15.4699 22.2148 12.6278 22.2148 9.1459C22.2148 5.66396 19.3727 2.82186 15.8908 2.82186Z" fill="white"/>
<path d="M21.5746 32.5829C21.0091 32.5829 20.4734 32.3746 20.0865 31.9876C19.6253 31.5264 19.4169 30.8568 19.5211 30.1574L19.8038 28.1486C19.8782 27.6277 20.1907 27.0177 20.5627 26.6308L25.8303 21.3632C27.9432 19.2503 29.8032 20.4556 30.7109 21.3632C31.4847 22.137 31.8865 22.9703 31.8865 23.8036C31.8865 24.6517 31.4996 25.4404 30.7109 26.229L25.4433 31.4966C25.0712 31.8686 24.4464 32.1811 23.9256 32.2555L21.9166 32.5381C21.7976 32.5679 21.6936 32.5829 21.5746 32.5829ZM28.2557 22.4198C27.9879 22.4198 27.7498 22.5983 27.4076 22.9405L22.14 28.2081C22.0953 28.2528 22.0209 28.4016 22.0209 28.4611L21.7531 30.3211L23.6131 30.0532C23.6726 30.0384 23.8213 29.964 23.866 29.9193L29.1336 24.6517C29.3717 24.4137 29.6544 24.0714 29.6544 23.8036C29.6544 23.5804 29.4759 23.2679 29.1336 22.9405C28.7765 22.5834 28.5087 22.4198 28.2557 22.4198Z" fill="white"/>
<path d="M29.1649 27.3303C29.0608 27.3303 28.9566 27.3156 28.8672 27.2858C26.9031 26.7353 25.3407 25.1729 24.7902 23.2087C24.6265 22.6134 24.9687 22.0034 25.5639 21.8397C26.1591 21.676 26.7692 22.0183 26.9329 22.6134C27.2751 23.8336 28.2423 24.8009 29.4625 25.1431C30.0577 25.3068 30.3999 25.9317 30.2362 26.5121C30.1023 27.0031 29.6559 27.3303 29.1649 27.3303Z" fill="white"/>
<path d="M3.10883 32.5836C2.49874 32.5836 1.99281 32.0777 1.99281 31.4676C1.99281 25.1138 8.22761 19.9355 15.8909 19.9355C17.5129 19.9355 19.1199 20.1736 20.6228 20.62C21.218 20.7986 21.5453 21.4235 21.3668 22.0039C21.1882 22.599 20.5633 22.9264 19.9829 22.7478C18.6735 22.361 17.3046 22.1527 15.8909 22.1527C9.46264 22.1527 4.22483 26.3191 4.22483 31.4527C4.22483 32.0777 3.71891 32.5836 3.10883 32.5836Z" fill="white"/>
</g>
<defs>
<clipPath id="clip0_1_3124">
<rect width="32" height="32.9062" fill="white"/>
</clipPath>
</defs>
</svg>
