<svg width="111" height="18" viewBox="0 0 111 18" fill="none" xmlns="http://www.w3.org/2000/svg">
<path fill-rule="evenodd" clip-rule="evenodd" d="M29.4 -0.0996094L20.0188 18.1004H11.2072L15.1332 10.5575H14.9571C11.7182 14.7302 6.88564 17.477 0 18.1004V10.662C0 10.662 4.40491 10.4038 6.99443 7.70189H0V-0.0994692H7.86099V6.31699L8.03743 6.31629L11.2497 -0.0994692H17.1948V6.27629L17.3712 6.27609L20.704 -0.0996094H29.4Z" fill="#146EF5"/>
<path d="M81.1992 16.0008H83.2992V1.30078H81.1992V16.0008Z" fill="white"/>
<path fill-rule="evenodd" clip-rule="evenodd" d="M67.0798 16.3417C67.6202 16.5812 68.1696 16.7008 68.7282 16.7008C69.651 16.7008 70.4766 16.4615 71.2051 15.9827C71.9337 15.504 72.4982 14.8441 72.899 14.0032C73.2997 13.1556 73.5 12.195 73.5 11.1211C73.5 10.0471 73.2936 9.08652 72.8808 8.23902C72.4679 7.39162 71.8942 6.73492 71.1596 6.26912C70.425 5.79692 69.5903 5.56402 68.6552 5.57052C68.0603 5.57052 67.4896 5.69342 66.9432 5.93922C66.3968 6.18502 65.9415 6.53442 65.5772 6.98722C65.5491 7.02172 65.5218 7.05652 65.4953 7.09172V1.30078H63V16.4971H65.477L65.472 15.0774C65.5362 15.1611 65.6046 15.2429 65.6774 15.3228C66.072 15.7563 66.5395 16.0959 67.0798 16.3417ZM69.6297 13.8867C69.2229 14.1519 68.7585 14.2846 68.2364 14.2846C67.7203 14.2846 67.2468 14.1487 66.8157 13.877C66.3847 13.5988 66.0416 13.2204 65.7866 12.7416C65.5378 12.2629 65.4133 11.7195 65.4133 11.1114C65.4072 10.5033 65.5287 9.95982 65.7776 9.48112C66.0325 8.99592 66.3756 8.62072 66.8066 8.35552C67.2376 8.08382 67.7142 7.95112 68.2364 7.95762C68.7585 7.95112 69.2229 8.08052 69.6297 8.34582C70.0425 8.60452 70.3582 8.97652 70.5768 9.46172C70.8014 9.94042 70.9137 10.4904 70.9137 11.1114C70.9137 11.7324 70.8014 12.2823 70.5768 12.761C70.3582 13.2398 70.0425 13.615 69.6297 13.8867Z" fill="white"/>
<path d="M33.5977 2.69922H36.5111L39.1173 11.9087L41.8898 2.69922H44.3176L47.3245 11.7239L49.827 2.69922H52.4977L48.557 15.9993H46.0451L42.9876 7.18286L40.1809 15.9993H37.6409L33.5977 2.69922Z" fill="white"/>
<path fill-rule="evenodd" clip-rule="evenodd" d="M56.3608 16.6998C55.3626 16.7062 54.4625 16.4727 53.6603 15.9992C52.8643 15.5192 52.2367 14.8542 51.7774 14.0045C51.3243 13.1546 51.0977 12.1848 51.0977 11.095C51.0977 10.0377 51.3304 9.0808 51.7957 8.2245C52.2611 7.3683 52.8919 6.7001 53.6878 6.2201C54.4839 5.74 55.3718 5.5 56.3516 5.5C57.4538 5.5 58.4183 5.7595 59.2449 6.2784C60.0777 6.7974 60.6992 7.5337 61.1094 8.4873C61.5258 9.4344 61.6759 10.5209 61.5595 11.7469H53.6918C53.7138 12.2354 53.8288 12.6798 54.0369 13.08C54.2696 13.5211 54.5942 13.865 55.0105 14.1115C55.4269 14.3579 55.8923 14.4812 56.4067 14.4812C56.7986 14.4748 57.1629 14.4034 57.4997 14.2672C57.8365 14.1245 58.1212 13.9331 58.354 13.6931C58.5927 13.453 58.7611 13.1806 58.8591 12.8757H61.4861C61.3269 13.6217 61.0085 14.2866 60.5308 14.8705C60.0532 15.4478 59.453 15.8986 58.7305 16.223C58.0079 16.5473 57.218 16.7062 56.3608 16.6998ZM54.0461 9.0711C53.8993 9.3422 53.7977 9.6341 53.7411 9.9469H58.9564C58.9186 9.5517 58.8035 9.1917 58.6111 8.8668C58.3907 8.484 58.0906 8.1889 57.711 7.9813C57.3313 7.7672 56.9027 7.6602 56.4251 7.6602C55.9168 7.6602 55.4545 7.7834 55.0381 8.0299C54.6217 8.2764 54.291 8.6235 54.0461 9.0711Z" fill="white"/>
<path d="M75.1623 5.64312C75.1623 4.80342 75.3545 4.05782 75.7386 3.40612C76.1227 2.74822 76.661 2.23754 77.3537 1.87412C78.0526 1.50442 78.8681 1.31331 79.8 1.30078V3.58472C79.3655 3.59102 78.994 3.68182 78.6855 3.85732C78.3832 4.02642 78.1502 4.27402 77.9865 4.59982C77.8357 4.89982 77.7544 5.24752 77.7425 5.64312H79.7433V7.81422H77.7409V16.0008H75.1623V7.81422H73.5V5.64312H75.1623Z" fill="white"/>
<path fill-rule="evenodd" clip-rule="evenodd" d="M89.9356 16.7C88.9288 16.7 88.0274 16.4629 87.2315 15.989C86.4417 15.5086 85.8207 14.8462 85.3685 14.0023C84.9223 13.1517 84.6992 12.1875 84.6992 11.1097C84.6992 10.0255 84.9223 9.058 85.3685 8.2075C85.8207 7.3504 86.4417 6.6849 87.2315 6.211C88.0274 5.737 88.9288 5.5 89.9356 5.5C90.9486 5.5 91.853 5.737 92.6488 6.211C93.4508 6.6849 94.0747 7.3472 94.5209 8.1977C94.967 9.0483 95.1932 10.0189 95.1992 11.1097C95.1932 12.1875 94.967 13.1517 94.5209 14.0023C94.0808 14.8462 93.4598 15.5086 92.6579 15.989C91.856 16.4629 90.9486 16.7 89.9356 16.7ZM89.9356 14.2555C90.4662 14.2555 90.9365 14.1256 91.3465 13.8659C91.7565 13.5997 92.073 13.2295 92.2961 12.7556C92.5192 12.2752 92.6308 11.7266 92.6308 11.1097C92.6308 10.4864 92.5192 9.9345 92.2961 9.4541C92.073 8.9736 91.7565 8.6035 91.3465 8.3438C90.9365 8.0776 90.4662 7.9445 89.9356 7.9445C89.4111 7.9445 88.9439 8.0776 88.5339 8.3438C88.1299 8.6035 87.8163 8.9736 87.5933 9.4541C87.3702 9.9345 87.2617 10.4864 87.2678 11.1097C87.2678 11.7266 87.3792 12.2752 87.6023 12.7556C87.8314 13.2295 88.145 13.5997 88.5429 13.8659C88.9469 14.1256 89.4111 14.2555 89.9356 14.2555Z" fill="white"/>
<path d="M98.059 6.19922H95.1992L98.2942 15.9992H100.797L102.832 9.73992L105.03 15.9992H107.495L110.599 6.19922H108.013L106.252 12.299L104.306 6.19922H101.803L99.8669 12.4334L98.059 6.19922Z" fill="white"/>
</svg>
