<svg width="24" height="24" viewBox="0 0 24 24" fill="none" xmlns="http://www.w3.org/2000/svg">
<path d="M17.5857 13.5788L14.5857 12.0788C14.4675 12.0199 14.3361 11.9932 14.2044 12.0015C14.0727 12.0097 13.9455 12.0525 13.8357 12.1257L12.4585 13.0443C11.8263 12.6969 11.3061 12.1766 10.9585 11.5443L11.8773 10.1672C11.9503 10.0574 11.9931 9.93017 12.0014 9.79851C12.0096 9.66677 11.9829 9.53529 11.9241 9.41717L10.4241 6.41719C10.3619 6.29163 10.2658 6.186 10.1467 6.11226C10.0275 6.03853 9.89015 5.99964 9.75 6C8.75546 6 7.80165 6.39509 7.09839 7.09835C6.39513 7.80161 6.00004 8.75546 6.00004 9.75C6.00252 11.9373 6.87251 14.0343 8.41915 15.5809C9.96575 17.1275 12.0627 17.9975 14.25 18C14.7425 18 15.2301 17.903 15.6851 17.7146C16.1401 17.5261 16.5535 17.2498 16.9017 16.9017C17.2499 16.5534 17.5262 16.14 17.7146 15.685C17.9031 15.2301 18 14.7424 18 14.25C18.0002 14.1106 17.9614 13.9741 17.8882 13.8555C17.815 13.7369 17.7103 13.6411 17.5857 13.5788ZM14.25 16.5C12.4605 16.498 10.7447 15.7863 9.47923 14.5208C8.21382 13.2554 7.50203 11.5396 7.50004 9.75C7.49989 9.2298 7.68 8.72563 8.00972 8.32326C8.33944 7.9209 8.7984 7.64522 9.30849 7.54312L10.3847 9.69934L9.46877 11.0625C9.40037 11.1651 9.35829 11.2832 9.34637 11.4059C9.33437 11.5287 9.35297 11.6526 9.40037 11.7666C9.93695 13.0419 10.9515 14.0565 12.2269 14.5931C12.3412 14.6427 12.466 14.6629 12.5901 14.6521C12.7141 14.6413 12.8336 14.5997 12.9375 14.5312L14.3073 13.6181L16.4635 14.6943C16.3606 15.205 16.0837 15.6642 15.6801 15.9935C15.2763 16.3227 14.771 16.5018 14.25 16.5ZM12 2.25C10.3167 2.24963 8.66203 2.68509 7.1969 3.51397C5.73181 4.34284 4.50627 5.53692 3.63958 6.97997C2.77288 8.42301 2.29455 10.0659 2.25115 11.7486C2.20775 13.4313 2.60075 15.0967 3.39191 16.5825L2.32785 19.7747C2.23971 20.039 2.22692 20.3226 2.29091 20.5938C2.3549 20.8649 2.49315 21.1129 2.69015 21.3099C2.88715 21.5069 3.13513 21.6452 3.40628 21.7091C3.67744 21.7731 3.96106 21.7603 4.22535 21.6722L7.41754 20.6081C8.72512 21.3036 10.174 21.6921 11.6541 21.744C13.1343 21.7959 14.6067 21.51 15.9599 20.9079C17.313 20.3057 18.5112 19.4033 19.4635 18.269C20.4158 17.1346 21.0971 15.7983 21.4557 14.3613C21.8145 12.9243 21.8411 11.4246 21.5336 9.97577C21.2261 8.527 20.5926 7.16732 19.6812 5.99992C18.7698 4.83253 17.6043 3.88811 16.2735 3.23836C14.9426 2.58861 13.4811 2.25061 12 2.25ZM12 20.25C10.5497 20.251 9.1248 19.8691 7.86941 19.1428C7.77749 19.0895 7.67531 19.0563 7.5696 19.0455C7.4639 19.0347 7.35711 19.0464 7.25629 19.08L3.75004 20.25L4.9191 16.7438C4.9528 16.643 4.96471 16.5363 4.95404 16.4306C4.94338 16.3248 4.91038 16.2226 4.85723 16.1307C3.94782 14.5583 3.58271 12.7299 3.81851 10.929C4.05431 9.12797 4.87785 7.45521 6.16137 6.17006C7.4449 4.88491 9.11666 4.05926 10.9173 3.82118C12.7179 3.58311 14.5468 3.94592 16.1203 4.85333C17.6937 5.76075 18.9237 7.16204 19.6194 8.8398C20.3151 10.5177 20.4378 12.3781 19.9683 14.1327C19.4987 15.8873 18.4633 17.4379 17.0225 18.5439C15.5818 19.65 13.8164 20.2497 12 20.25Z" fill="#D4D4D4"/>
</svg>
