<svg width="23" height="23" viewBox="0 0 23 23" fill="none" xmlns="http://www.w3.org/2000/svg">
<path d="M11.375 0C9.1252 0 6.926 0.66713 5.05539 1.91703C3.18478 3.16693 1.72682 4.94346 0.865878 7.02197C0.00492835 9.10049 -0.220332 11.3876 0.218568 13.5942C0.657478 15.8007 1.74084 17.8275 3.33167 19.4183C4.92249 21.0092 6.94932 22.0925 9.1559 22.5314C11.3624 22.9703 13.6495 22.7451 15.728 21.8841C17.8065 21.0232 19.5831 19.5652 20.833 17.6946C22.0829 15.824 22.75 13.6248 22.75 11.375C22.7468 8.35909 21.5474 5.46771 19.4148 3.33518C17.2823 1.20264 14.3909 0.00318 11.375 0ZM20.9617 10.5197C20.6832 10.5066 20.4043 10.5 20.125 10.5C18.5019 10.5005 16.886 10.7152 15.3191 11.1388C14.9371 10.0052 14.4443 8.91199 13.848 7.87499C15.4033 6.93713 16.8112 5.77427 18.0261 4.42422C19.7118 6.03254 20.7552 8.19899 20.9617 10.5197ZM16.6556 3.33156C15.5627 4.53248 14.2994 5.56652 12.9063 6.40062C11.7394 4.75827 10.3123 3.31744 8.6811 2.135C10.0192 1.74436 11.4262 1.64905 12.8048 1.85565C14.1834 2.06225 15.5006 2.56583 16.6655 3.33156H16.6556ZM6.74297 2.94C8.5308 4.0659 10.0895 5.51991 11.3367 7.22531C9.1538 8.23139 6.77858 8.75159 4.375 8.74999C3.63319 8.74959 2.8922 8.70029 2.15688 8.60239C2.88855 6.18899 4.53427 4.15706 6.74297 2.94ZM1.75001 11.375C1.74996 11.0228 1.76931 10.6708 1.80797 10.3206C2.65844 10.44 3.5162 10.5 4.375 10.5C7.11982 10.5026 9.8303 9.88959 12.3069 8.70629C12.8525 9.64849 13.3035 10.6425 13.6533 11.6736C12.7238 12.0228 11.8243 12.4471 10.9638 12.9424C8.563 14.3293 6.5046 16.2378 4.94047 18.527C3.93604 17.626 3.13278 16.5233 2.58306 15.291C2.03333 14.0587 1.74948 12.7244 1.75001 11.375ZM6.34375 19.5781C7.7638 17.4778 9.6429 15.7278 11.8388 14.4605C12.5729 14.0368 13.339 13.6711 14.1302 13.3667C14.4009 14.5682 14.5377 15.7959 14.5381 17.0275C14.5387 18.2248 14.4107 19.4188 14.1564 20.5888C12.8566 20.9814 11.4884 21.0944 10.1418 20.9202C8.7953 20.746 7.5008 20.2886 6.34375 19.5781ZM16.0847 19.7674C16.2197 18.8621 16.2877 17.9482 16.2881 17.033C16.288 15.6164 16.1246 14.2045 15.8014 12.8253C17.2112 12.4449 18.6648 12.2515 20.125 12.25C20.4021 12.25 20.6795 12.2569 20.9573 12.2708C20.8109 13.8208 20.2911 15.3122 19.4425 16.6176C18.594 17.9229 17.4418 19.0033 16.0847 19.7663V19.7674Z" fill="#0A0A0A"/>
</svg>
