<svg width="20" height="22" viewBox="0 0 20 22" fill="none" xmlns="http://www.w3.org/2000/svg">
<path d="M19.1203 19.6558L12.2734 8.89549L19.0295 1.46344C19.1823 1.2912 19.2611 1.06567 19.2487 0.83576C19.2364 0.60584 19.1339 0.39007 18.9635 0.23522C18.7931 0.0803601 18.5685 -0.00108976 18.3385 0.00852024C18.1084 0.0181402 17.8914 0.11803 17.7345 0.28656L11.2989 7.36529L6.87031 0.40578C6.79141 0.28148 6.68231 0.17912 6.55321 0.10819C6.42421 0.0372602 6.27931 4.01138e-05 6.13201 1.13775e-07H0.882052C0.725172 -7.98862e-05 0.571152 0.0420302 0.436122 0.12191C0.301092 0.20179 0.190022 0.3165 0.114542 0.45404C0.0390719 0.59157 0.00196194 0.74687 0.00710194 0.90368C0.0122419 1.06048 0.059452 1.21301 0.143772 1.34531L6.99061 12.1045L0.234552 19.542C0.155662 19.6268 0.0943721 19.7264 0.0542421 19.835C0.0141021 19.9436 -0.00406808 20.0591 0.000761917 20.1748C0.00559192 20.2905 0.0333421 20.404 0.0823921 20.5089C0.131452 20.6138 0.200832 20.7079 0.286522 20.7858C0.372212 20.8637 0.472502 20.9238 0.581592 20.9626C0.690672 21.0014 0.806382 21.0182 0.922002 21.012C1.03763 21.0058 1.15086 20.9766 1.25515 20.9263C1.35944 20.876 1.45271 20.8055 1.52955 20.7189L7.96521 13.6402L12.3938 20.5997C12.4734 20.723 12.5827 20.8243 12.7117 20.8942C12.8407 20.9642 12.9853 21.0005 13.132 21H18.382C18.5388 21 18.6926 20.9578 18.8275 20.878C18.9623 20.7982 19.0733 20.6836 19.1487 20.5462C19.2242 20.4089 19.2613 20.2538 19.2563 20.0971C19.2513 19.9405 19.2044 19.7881 19.1203 19.6558ZM13.6122 19.25L2.47565 1.75H5.64751L16.7884 19.25H13.6122Z" fill="#0A0A0A"/>
</svg>
