<svg width="30" height="30" viewBox="0 0 30 30" fill="none" xmlns="http://www.w3.org/2000/svg">
<path d="M13.125 9.0625C12.9592 9.0625 12.8003 9.12835 12.6831 9.24556C12.5658 9.36277 12.5 9.52174 12.5 9.6875C12.5 9.85326 12.5658 10.0122 12.6831 10.1294C12.8003 10.2467 12.9592 10.3125 13.125 10.3125H16.875C17.0408 10.3125 17.1997 10.2467 17.3169 10.1294C17.4342 10.0122 17.5 9.85326 17.5 9.6875C17.5 9.52174 17.4342 9.36277 17.3169 9.24556C17.1997 9.12835 17.0408 9.0625 16.875 9.0625H13.125ZM11.875 15.9375C11.875 16.269 11.7433 16.587 11.5089 16.8214C11.2745 17.0558 10.9565 17.1875 10.625 17.1875C10.2935 17.1875 9.97554 17.0558 9.74112 16.8214C9.5067 16.587 9.375 16.269 9.375 15.9375C9.375 15.606 9.5067 15.288 9.74112 15.0536C9.97554 14.8192 10.2935 14.6875 10.625 14.6875C10.9565 14.6875 11.2745 14.8192 11.5089 15.0536C11.7433 15.288 11.875 15.606 11.875 15.9375ZM11.875 20.3125C11.875 20.644 11.7433 20.962 11.5089 21.1964C11.2745 21.4308 10.9565 21.5625 10.625 21.5625C10.2935 21.5625 9.97554 21.4308 9.74112 21.1964C9.5067 20.962 9.375 20.644 9.375 20.3125C9.375 19.981 9.5067 19.663 9.74112 19.4286C9.97554 19.1942 10.2935 19.0625 10.625 19.0625C10.9565 19.0625 11.2745 19.1942 11.5089 19.4286C11.7433 19.663 11.875 19.981 11.875 20.3125ZM15 17.1875C15.3315 17.1875 15.6495 17.0558 15.8839 16.8214C16.1183 16.587 16.25 16.269 16.25 15.9375C16.25 15.606 16.1183 15.288 15.8839 15.0536C15.6495 14.8192 15.3315 14.6875 15 14.6875C14.6685 14.6875 14.3505 14.8192 14.1161 15.0536C13.8817 15.288 13.75 15.606 13.75 15.9375C13.75 16.269 13.8817 16.587 14.1161 16.8214C14.3505 17.0558 14.6685 17.1875 15 17.1875ZM16.25 20.3125C16.25 20.644 16.1183 20.962 15.8839 21.1964C15.6495 21.4308 15.3315 21.5625 15 21.5625C14.6685 21.5625 14.3505 21.4308 14.1161 21.1964C13.8817 20.962 13.75 20.644 13.75 20.3125C13.75 19.981 13.8817 19.663 14.1161 19.4286C14.3505 19.1942 14.6685 19.0625 15 19.0625C15.3315 19.0625 15.6495 19.1942 15.8839 19.4286C16.1183 19.663 16.25 19.981 16.25 20.3125ZM19.375 17.1875C19.7065 17.1875 20.0245 17.0558 20.2589 16.8214C20.4933 16.587 20.625 16.269 20.625 15.9375C20.625 15.606 20.4933 15.288 20.2589 15.0536C20.0245 14.8192 19.7065 14.6875 19.375 14.6875C19.0435 14.6875 18.7255 14.8192 18.4911 15.0536C18.2567 15.288 18.125 15.606 18.125 15.9375C18.125 16.269 18.2567 16.587 18.4911 16.8214C18.7255 17.0558 19.0435 17.1875 19.375 17.1875Z" fill="#063D30"/>
<path fill-rule="evenodd" clip-rule="evenodd" d="M10 4.375C10.1658 4.375 10.3247 4.44085 10.4419 4.55806C10.5592 4.67527 10.625 4.83424 10.625 5V6.25H19.375V5C19.375 4.83424 19.4408 4.67527 19.5581 4.55806C19.6753 4.44085 19.8342 4.375 20 4.375C20.1658 4.375 20.3247 4.44085 20.4419 4.55806C20.5592 4.67527 20.625 4.83424 20.625 5V6.25375C20.9308 6.25625 21.2033 6.26708 21.4425 6.28625C21.8987 6.32375 22.2987 6.4025 22.6688 6.59C23.2566 6.88987 23.7344 7.36813 24.0337 7.95625C24.2225 8.32625 24.3013 8.72625 24.3388 9.18125C24.375 9.625 24.375 10.1712 24.375 10.8488V20.4012C24.375 21.0787 24.375 21.6262 24.3388 22.0675C24.3013 22.5237 24.2225 22.9237 24.0337 23.2938C23.7342 23.8814 23.2564 24.3592 22.6688 24.6587C22.2987 24.8475 21.8988 24.9263 21.4438 24.9638C21 25 20.4537 25 19.7775 25H10.2238C9.54625 25 8.99875 25 8.5575 24.9638C8.10125 24.9263 7.70125 24.8475 7.33125 24.6587C6.74313 24.3594 6.26487 23.8816 5.965 23.2938C5.7775 22.9237 5.69875 22.5238 5.66125 22.0688C5.625 21.625 5.625 21.0775 5.625 20.4V10.85C5.625 10.2563 5.625 9.765 5.65 9.35375L5.66125 9.18375C5.69875 8.7275 5.7775 8.3275 5.965 7.9575C6.26466 7.36919 6.74294 6.89091 7.33125 6.59125C7.70125 6.40375 8.10125 6.325 8.55625 6.2875C8.79708 6.26833 9.07 6.2575 9.375 6.255V5C9.375 4.83424 9.44085 4.67527 9.55806 4.55806C9.67527 4.44085 9.83424 4.375 10 4.375ZM9.375 8.125V7.50375C9.13601 7.50572 8.89713 7.51531 8.65875 7.5325C8.28125 7.5625 8.06375 7.62 7.89875 7.70375C7.54563 7.88357 7.25857 8.17063 7.07875 8.52375C6.995 8.68875 6.9375 8.90625 6.9075 9.28375C6.875 9.67 6.875 10.165 6.875 10.875V11.5625H23.125V10.875C23.125 10.165 23.125 9.67 23.0925 9.28375C23.0625 8.90625 23.005 8.68875 22.9212 8.52375C22.7414 8.17063 22.4544 7.88357 22.1012 7.70375C21.9362 7.62 21.7188 7.5625 21.3412 7.5325C21.1029 7.51531 20.864 7.50572 20.625 7.50375V8.125C20.625 8.29076 20.5592 8.44973 20.4419 8.56694C20.3247 8.68415 20.1658 8.75 20 8.75C19.8342 8.75 19.6753 8.68415 19.5581 8.56694C19.4408 8.44973 19.375 8.29076 19.375 8.125V7.5H10.625V8.125C10.625 8.29076 10.5592 8.44973 10.4419 8.56694C10.3247 8.68415 10.1658 8.75 10 8.75C9.83424 8.75 9.67527 8.68415 9.55806 8.56694C9.44085 8.44973 9.375 8.29076 9.375 8.125ZM23.125 12.8125H6.875V20.375C6.875 21.085 6.875 21.5812 6.9075 21.9662C6.9375 22.3438 6.995 22.5612 7.07875 22.7262C7.25857 23.0794 7.54563 23.3664 7.89875 23.5462C8.06375 23.63 8.28125 23.6875 8.65875 23.7175C9.045 23.75 9.54 23.75 10.25 23.75H19.75C20.46 23.75 20.9563 23.75 21.3412 23.7175C21.7188 23.6875 21.9362 23.63 22.1012 23.5462C22.4544 23.3664 22.7414 23.0794 22.9212 22.7262C23.005 22.5612 23.0625 22.3438 23.0925 21.9662C23.125 21.5812 23.125 21.085 23.125 20.375V12.8125Z" fill="#063D30"/>
</svg>
